<?xml version="1.0" encoding="utf-8"?>
<!-- Generator: Adobe Illustrator 16.0.0, SVG Export Plug-In . SVG Version: 6.00 Build 0)  -->
<!DOCTYPE svg PUBLIC "-//W3C//DTD SVG 1.1//EN" "http://www.w3.org/Graphics/SVG/1.1/DTD/svg11.dtd">
<svg version="1.1" id="圖層_1" xmlns="http://www.w3.org/2000/svg" xmlns:xlink="http://www.w3.org/1999/xlink" x="0px" y="0px"
	 width="50px" height="50px" viewBox="0 0 50 50" enable-background="new 0 0 50 50" xml:space="preserve">
<g>
	<path fill="#FFFFFF" d="M25,49C11.8,49,1,38.2,1,25S11.8,1,25,1s24,10.8,24,24S38.2,49,25,49z"/>
	<path fill="#D5D5D5" d="M25,2c12.7,0,23,10.3,23,23c0,12.7-10.3,23-23,23C12.3,48,2,37.7,2,25C2,12.3,12.3,2,25,2 M25,0
		C11.2,0,0,11.2,0,25c0,13.8,11.2,25,25,25c13.8,0,25-11.2,25-25C50,11.2,38.8,0,25,0L25,0z"/>
</g>
<g>
	<path d="M15.3,25c0-3.5,0.4-6.4,1.1-8.5c0.7-2.2,1.8-3.8,3.2-5c1.4-1.2,3.2-1.8,5.4-1.8c1.6,0,3,0.3,4.2,1c1.2,0.6,2.2,1.6,3,2.8
		c0.8,1.2,1.4,2.7,1.9,4.4c0.4,1.7,0.7,4.1,0.7,7.1c0,3.5-0.4,6.3-1.1,8.5c-0.7,2.2-1.8,3.8-3.2,5c-1.4,1.2-3.2,1.8-5.4,1.8
		c-2.9,0-5.1-1-6.8-3.1C16.2,34.7,15.3,30.6,15.3,25z M19,25c0,4.9,0.6,8.2,1.7,9.8c1.1,1.6,2.6,2.4,4.2,2.4c1.7,0,3.1-0.8,4.2-2.4
		c1.1-1.6,1.7-4.9,1.7-9.8c0-4.9-0.6-8.2-1.7-9.8c-1.1-1.6-2.6-2.4-4.3-2.4c-1.7,0-3,0.7-4,2.1C19.7,16.7,19,20.1,19,25z"/>
</g>
</svg>
