<?xml version="1.0" encoding="utf-8"?>
<!-- Generator: Adobe Illustrator 16.0.0, SVG Export Plug-In . SVG Version: 6.00 Build 0)  -->
<!DOCTYPE svg PUBLIC "-//W3C//DTD SVG 1.1//EN" "http://www.w3.org/Graphics/SVG/1.1/DTD/svg11.dtd">
<svg version="1.1" id="圖層_1" xmlns="http://www.w3.org/2000/svg" xmlns:xlink="http://www.w3.org/1999/xlink" x="0px" y="0px"
	 width="50px" height="50px" viewBox="0 0 50 50" enable-background="new 0 0 50 50" xml:space="preserve">
<g>
	<circle fill="#EADE54" cx="25" cy="25" r="25"/>
</g>
<g>
	<path d="M15.2,31.8l3.7-0.5c0.4,2.1,1.1,3.6,2.1,4.5c1,0.9,2.2,1.4,3.7,1.4c1.7,0,3.2-0.6,4.4-1.8c1.2-1.2,1.8-2.7,1.8-4.4
		c0-1.7-0.5-3.1-1.6-4.2c-1.1-1.1-2.5-1.6-4.2-1.6c-0.7,0-1.6,0.1-2.6,0.4l0.4-3.2c0.2,0,0.4,0,0.6,0c1.6,0,3-0.4,4.2-1.2
		c1.2-0.8,1.9-2.1,1.9-3.8c0-1.3-0.5-2.5-1.4-3.3c-0.9-0.9-2.1-1.3-3.5-1.3c-1.4,0-2.6,0.4-3.6,1.3c-1,0.9-1.6,2.2-1.8,4l-3.7-0.7
		c0.4-2.5,1.5-4.4,3.1-5.7s3.6-2,5.9-2c1.6,0,3.1,0.3,4.5,1c1.4,0.7,2.4,1.7,3.1,2.9c0.7,1.2,1.1,2.5,1.1,3.8c0,1.3-0.3,2.5-1,3.5
		s-1.7,1.9-3.1,2.5c1.8,0.4,3.1,1.3,4.1,2.5s1.5,2.9,1.5,4.8c0,2.6-1,4.8-2.9,6.6s-4.3,2.7-7.2,2.7c-2.6,0-4.8-0.8-6.5-2.3
		C16.5,36.4,15.5,34.3,15.2,31.8z"/>
</g>
</svg>
