<?xml version="1.0" encoding="utf-8"?>
<!-- Generator: Adobe Illustrator 16.0.0, SVG Export Plug-In . SVG Version: 6.00 Build 0)  -->
<!DOCTYPE svg PUBLIC "-//W3C//DTD SVG 1.1//EN" "http://www.w3.org/Graphics/SVG/1.1/DTD/svg11.dtd">
<svg version="1.1" id="圖層_1" xmlns="http://www.w3.org/2000/svg" xmlns:xlink="http://www.w3.org/1999/xlink" x="0px" y="0px"
	 width="50px" height="50px" viewBox="0 0 50 50" enable-background="new 0 0 50 50" xml:space="preserve">
<g>
	<circle fill="#7ABE47" cx="25" cy="25" r="25"/>
</g>
<g>
	<path d="M36.2,38v4H13.8c0-1,0.1-2,0.5-2.9c0.6-1.5,1.5-3,2.7-4.5c1.3-1.5,3.1-3.2,5.4-5.1c3.7-3,6.2-5.4,7.4-7.2s1.9-3.4,1.9-5
		c0-1.6-0.6-3-1.8-4.2s-2.7-1.7-4.6-1.7c-2,0-3.6,0.6-4.8,1.8c-1.2,1.2-1.8,2.9-1.8,5l-4.3-0.4c0.3-3.2,1.4-5.6,3.3-7.3
		C19.8,8.9,22.4,8,25.6,8c3.2,0,5.8,0.9,7.7,2.7c1.9,1.8,2.8,4,2.8,6.7c0,1.4-0.3,2.7-0.8,4c-0.6,1.3-1.5,2.7-2.8,4.1
		s-3.4,3.4-6.4,5.9c-2.5,2.1-4.1,3.5-4.8,4.3c-0.7,0.7-1.3,1.5-1.8,2.2H36.2z"/>
</g>
</svg>
