<?xml version="1.0" encoding="utf-8"?>
<!-- Generator: Adobe Illustrator 24.3.0, SVG Export Plug-In . SVG Version: 6.00 Build 0)  -->
<svg version="1.1" id="组_584" xmlns="http://www.w3.org/2000/svg" xmlns:xlink="http://www.w3.org/1999/xlink" x="0px" y="0px"
	 viewBox="0 0 32 32" style="enable-background:new 0 0 32 32;" xml:space="preserve">
<style type="text/css">
	.st0{fill:none;}
	.st1{fill:#FFFFFF;}
	.st2{clip-path:url(#SVGID_2_);}
</style>
<g>
	<g id="椭圆_42">
		<circle class="st0" cx="16" cy="16" r="16"/>
		<path class="st1" d="M16,32C7.2,32,0,24.8,0,16S7.2,0,16,0s16,7.2,16,16S24.8,32,16,32z M16,2.1C8.3,2.1,2.1,8.3,2.1,16
			S8.4,29.9,16,29.9c7.7,0,13.9-6.3,13.9-13.9C29.9,8.3,23.7,2.1,16,2.1z"/>
	</g>
	<g>
		<g>
			<defs>
				<circle id="SVGID_1_" cx="16" cy="16" r="16"/>
			</defs>
			<clipPath id="SVGID_2_">
				<use xlink:href="#SVGID_1_"  style="overflow:visible;"/>
			</clipPath>
			<g id="蒙版组_6" class="st2">
				<path class="st1" d="M16.3,17c-0.6,0-1-0.5-1-1V-0.1c0-0.6,0.5-1,1-1c0.6,0,1,0.5,1,1V16C17.4,16.6,16.9,17,16.3,17z"/>
				<path class="st1" d="M5.7,28.4c-0.3,0-0.5-0.1-0.7-0.3c-0.4-0.4-0.4-1.1,0-1.5l10.7-11c0.4-0.4,1.1-0.4,1.5,0
					c0.4,0.4,0.4,1.1,0,1.5l-10.7,11C6.2,28.3,5.9,28.4,5.7,28.4z"/>
				<path class="st1" d="M16.3,17.4c-0.1,0-0.3,0-0.4-0.1L2.1,10.7c-0.5-0.2-0.7-0.9-0.5-1.4C1.9,8.8,2.5,8.6,3,8.9l13.8,6.5
					c0.5,0.2,0.7,0.9,0.5,1.4C17.1,17.2,16.7,17.4,16.3,17.4z"/>
			</g>
		</g>
	</g>
</g>
</svg>
