<?xml version="1.0" encoding="utf-8"?>
<!-- Generator: Adobe Illustrator 22.0.1, SVG Export Plug-In . SVG Version: 6.00 Build 0)  -->
<svg version="1.1" id="圖層_1" xmlns="http://www.w3.org/2000/svg" xmlns:xlink="http://www.w3.org/1999/xlink" x="0px" y="0px"
	 viewBox="0 0 50 50" style="enable-background:new 0 0 50 50;" xml:space="preserve">
<style type="text/css">
	.st0{fill:#0090FF;}
</style>
<path class="st0" d="M25.9,36.5c0.1,0,0.1-0.1,0.2-0.1c0.7-0.7,1.4-1.4,2.1-2.1c0.1-0.1,0.1-0.1,0.2-0.2c2.5,2.5,4.9,4.9,7.4,7.4
	c0,0,0,0,0.1,0c0-13.1,0-26.2,0-39.4c1.1,0,2.2,0,3.3,0c0,13.1,0,26.2,0,39.4c2.5-2.5,4.9-4.9,7.4-7.4c0.3,0.3,0.6,0.6,1,1
	c0.4,0.4,0.9,0.9,1.3,1.3c0.1,0.1,0.1,0.1,0.2,0.1c0,0,0,0.1,0,0.1c-0.1,0-0.1,0.1-0.2,0.1c-3.7,3.7-7.4,7.4-11.1,11.1
	c-0.1,0.1-0.1,0.1-0.1,0.2c0,0-0.1,0-0.1,0c0-0.1-0.1-0.1-0.1-0.2c-3.7-3.7-7.4-7.4-11.1-11.1C26,36.6,25.9,36.6,25.9,36.5
	C25.9,36.5,25.9,36.5,25.9,36.5z"/>
<path class="st0" d="M23.9,13.5c-0.1,0-0.1,0.1-0.2,0.1c-0.7,0.7-1.4,1.4-2.1,2.1c-0.1,0.1-0.1,0.1-0.2,0.2
	c-2.5-2.5-4.9-4.9-7.4-7.4c0,0,0,0-0.1,0c0,13.1,0,26.2,0,39.4c-1.1,0-2.2,0-3.3,0c0-13.1,0-26.2,0-39.4c-2.5,2.5-4.9,4.9-7.4,7.4
	c-0.3-0.3-0.6-0.6-1-1c-0.4-0.4-0.9-0.9-1.3-1.3c-0.1-0.1-0.1-0.1-0.2-0.1c0,0,0-0.1,0-0.1c0.1,0,0.1-0.1,0.2-0.1
	C4.8,9.6,8.5,5.9,12.2,2.2c0.1-0.1,0.1-0.1,0.1-0.2c0,0,0.1,0,0.1,0c0,0.1,0.1,0.1,0.1,0.2c3.7,3.7,7.4,7.4,11.1,11.1
	C23.8,13.4,23.8,13.4,23.9,13.5C23.9,13.5,23.9,13.5,23.9,13.5z"/>
</svg>
