<?xml version="1.0" encoding="utf-8"?>
<!-- Generator: Adobe Illustrator 16.0.0, SVG Export Plug-In . SVG Version: 6.00 Build 0)  -->
<!DOCTYPE svg PUBLIC "-//W3C//DTD SVG 1.1//EN" "http://www.w3.org/Graphics/SVG/1.1/DTD/svg11.dtd">
<svg version="1.1" id="圖層_1" xmlns="http://www.w3.org/2000/svg" xmlns:xlink="http://www.w3.org/1999/xlink" x="0px" y="0px"
	 width="26px" height="26px" viewBox="0 0 26 26" enable-background="new 0 0 26 26" xml:space="preserve">
<g>
	<g>
		<g>
			<g>
				<path fill="#466DEE" d="M13.284,4.581c-4.478,0-8.104,3.628-8.104,8.103c0,4.478,3.627,8.105,8.104,8.105
					c4.476,0,8.104-3.628,8.104-8.105C21.388,8.209,17.76,4.581,13.284,4.581L13.284,4.581z"/>
			</g>
		</g>
		<g>
			<path fill="#466DEE" d="M7.721,1.015L1.053,1.248L3.768,3.25C1.792,5.241,0.423,7.833,0,10.745h2.152
				C2.55,8.452,3.651,6.415,5.208,4.82l1.761,2.824L7.721,1.015z"/>
		</g>
		<g>
			<path fill="#466DEE" d="M18.28,24.985l6.668-0.234l-2.714-2.001c1.976-1.991,3.344-4.583,3.766-7.495h-2.152
				c-0.396,2.293-1.497,4.331-3.055,5.923l-1.76-2.823L18.28,24.985z"/>
		</g>
	</g>
</g>
</svg>
