<?xml version="1.0" encoding="utf-8"?>
<!-- Generator: Adobe Illustrator 24.3.0, SVG Export Plug-In . SVG Version: 6.00 Build 0)  -->
<svg version="1.1" id="圖層_1" xmlns="http://www.w3.org/2000/svg" xmlns:xlink="http://www.w3.org/1999/xlink" x="0px" y="0px"
	 width="50px" height="50px" viewBox="0 0 50 50" style="enable-background:new 0 0 50 50;" xml:space="preserve">
<style type="text/css">
	.st0{fill:#FFFFFF;}
</style>
<path id="previous" class="st0" d="M43.9,26.3c-5.2-7.3-13.5-11.7-22.5-11.8V4.9c0-0.5-0.2-1-0.7-1.3c-0.4-0.3-0.9-0.2-1.3,0.1
	l-19,18.3c-0.3,0.2-0.5,0.6-0.5,1c0,0.4,0.1,0.9,0.5,1.2l19,18.3c0.3,0.3,0.9,0.4,1.3,0.2c0.5-0.3,0.7-0.8,0.7-1.3V32
	c7.8,0,19.9,0.7,26.2,13.9c0.2,0.4,0.6,0.7,1,0.7h0.3c0.6-0.2,1-0.8,0.9-1.4C49.9,38.4,47.8,31.8,43.9,26.3z"/>
</svg>
