<?xml version="1.0" encoding="utf-8"?>
<!-- Generator: Adobe Illustrator 22.0.1, SVG Export Plug-In . SVG Version: 6.00 Build 0)  -->
<svg version="1.1" id="圖層_1" xmlns="http://www.w3.org/2000/svg" xmlns:xlink="http://www.w3.org/1999/xlink" x="0px" y="0px"
	 viewBox="0 0 50 50" style="enable-background:new 0 0 50 50;" xml:space="preserve">
<style type="text/css">
	.st0{fill:#0090FF;}
</style>
<path class="st0" d="M36.3,24c0-0.1-0.1-0.1-0.1-0.2c-0.7-0.7-1.4-1.4-2.1-2.1c-0.1-0.1-0.1-0.1-0.2-0.2c2.5-2.5,4.9-4.9,7.4-7.4
	c0,0,0,0,0-0.1c-13.1,0-26.2,0-39.4,0c0-1.1,0-2.2,0-3.3c13.1,0,26.2,0,39.4,0c-2.5-2.5-4.9-4.9-7.4-7.4c0.3-0.3,0.6-0.6,1-1
	c0.4-0.4,0.9-0.9,1.3-1.3c0.1-0.1,0.1-0.1,0.1-0.2c0,0,0.1,0,0.1,0c0,0.1,0.1,0.1,0.1,0.2c3.7,3.7,7.4,7.4,11.1,11.1
	c0.1,0.1,0.1,0.1,0.2,0.1c0,0,0,0.1,0,0.1c-0.1,0-0.1,0.1-0.2,0.1c-3.7,3.7-7.4,7.4-11.1,11.1C36.5,23.9,36.5,23.9,36.3,24
	C36.4,24,36.4,24,36.3,24z"/>
<path class="st0" d="M13.4,26c0,0.1,0.1,0.1,0.1,0.2c0.7,0.7,1.4,1.4,2.1,2.1c0.1,0.1,0.1,0.1,0.2,0.2c-2.5,2.5-4.9,4.9-7.4,7.4
	c0,0,0,0,0,0.1c13.1,0,26.2,0,39.4,0c0,1.1,0,2.2,0,3.3c-13.1,0-26.2,0-39.4,0c2.5,2.5,4.9,4.9,7.4,7.4c-0.3,0.3-0.6,0.6-1,1
	c-0.4,0.4-0.9,0.9-1.3,1.3c-0.1,0.1-0.1,0.1-0.1,0.2c0,0-0.1,0-0.1,0c0-0.1-0.1-0.1-0.1-0.2c-3.7-3.7-7.4-7.4-11.1-11.1
	c-0.1-0.1-0.1-0.1-0.2-0.1c0,0,0-0.1,0-0.1c0.1,0,0.1-0.1,0.2-0.1c3.7-3.7,7.4-7.4,11.1-11.1C13.2,26.1,13.3,26.1,13.4,26
	C13.4,26,13.4,26,13.4,26z"/>
</svg>
