<?xml version="1.0" encoding="utf-8"?>
<!-- Generator: Adobe Illustrator 24.3.0, SVG Export Plug-In . SVG Version: 6.00 Build 0)  -->
<svg version="1.1" id="圖層_1" xmlns="http://www.w3.org/2000/svg" xmlns:xlink="http://www.w3.org/1999/xlink" x="0px" y="0px"
	 width="264px" height="245px" viewBox="0 0 264 245" style="enable-background:new 0 0 264 245;" xml:space="preserve">
<style type="text/css">
	.st0{opacity:0.3;}
	.st1{fill:#FFFFFF;}
	.st2{fill:#FFFFFF;fill-opacity:0.3;}
	.st3{fill:#399FD8;}
	.st4{fill:#FFA71A;}
</style>
<g>
	<g class="st0">
		<path class="st1" d="M133,19.1c3.3,0,6.4,2,7.5,5.3l53.8,151.2c1.5,4.2-0.7,8.7-4.8,10.2L84.7,223.8c-0.9,0.3-1.8,0.5-2.7,0.5
			c-3.3,0-6.4-2-7.5-5.3L20.7,67.7c-1.5-4.2,0.7-8.7,4.8-10.2l104.7-37.9C131.2,19.3,132.1,19.1,133,19.1 M133,0.1L133,0.1
			c-3.1,0-6.2,0.5-9.1,1.6c0,0-0.1,0-0.1,0L19.1,39.6c-14,5-21.3,20.5-16.3,34.5l53.8,151.2c3.8,10.7,14.1,17.9,25.4,17.9
			c3.1,0,6.1-0.5,9.1-1.6c0,0,0.1,0,0.1,0l104.7-37.9c6.8-2.4,12.2-7.3,15.3-13.8c3.1-6.5,3.5-13.8,1-20.6L158.4,18.1
			C154.6,7.3,144.3,0.1,133,0.1L133,0.1z"/>
	</g>
</g>
<path class="st2" d="M134.6,60.5l7-2.5l-19.7-23.7l-6.9,2.3v30.9l6.8-2.5l-0.3-6.9l8.7-3.7L134.6,60.5z M121.4,53.4l-0.5-11.8
	l6.7,9.2L121.4,53.4z"/>
<path class="st2" d="M214.9,75.1l7.4-0.6l-12.9-28l-7.3,0.5l-7.9,29.9l7.2-0.6l1.5-6.8l9.3-1.3L214.9,75.1z M204,64.7l2.5-11.5
	l4.1,10.6L204,64.7z"/>
<path class="st2" d="M80.8,183.7l-7,2.4l19.4,23.9l6.9-2.3l0.4-30.9l-6.9,2.4l0.2,6.9l-8.7,3.6L80.8,183.7z M94,191.1l0.4,11.8
	l-6.5-9.2L94,191.1z"/>
<path class="st2" d="M261.9,200L248.8,40.1c-0.6-6.8-3.6-13.1-8.7-17.7c-5-4.6-11.5-7.1-18.2-7.1c-0.7,0-1.5,0-2.3,0.1
	c0,0-0.1,0-0.1,0l-49.1,4.3l6.9,18.5l43.9-3.9c0.2,0,0.4,0,0.7,0c4.1,0,7.6,3.2,8,7.3l13.1,160c0.4,4.4-2.9,8.3-7.3,8.6l-33.4,2.9
	l0,0l-71.1,25.3l106.1-9.3C252.1,227.9,263.2,214.9,261.9,200z"/>
<g>
	<path class="st3" d="M99.9,102.9c-4.1,1.6-6.3,2.5-6.6,2.6c-1.2,0.5-3.6,1.4-7,2.6l-0.6,2.9l-7.2,16.1L74,112.8
		c-3.2,1.2-5.1,2.1-5.9,2.4c-1.1,0.4-3.3,1.3-6.4,2.3l0.9,2.4c0.8,2,2,5.5,3.6,10.4c2.4,7.2,4.2,12.8,5.5,16.9c0.7,2.3,2,6,3,9.7
		c3.4-1.4,5.4-2.2,6.3-2.5l6.1-2.2l-4.1-11.5L99.9,102.9z"/>
	<path class="st3" d="M93.3,125.7c0,0,1.4,1,3.3,2.5c11.2,8.6,20.1,11.5,23,11.3c-5.9,2.3-14.3,5.6-19,4.6s-8.8-5.4-11.8-7.7
		L93.3,125.7z"/>
	<g>
		<path class="st4" d="M137,88.6c-1.6,0.6-3.8,1.4-6.6,2.5c-0.1,0,0.4,1.6,1.4,4.5c1.1,3.1,2.2,6.5,3.3,10.2
			c1.3,4.3,2.2,7.2,2.5,8.5c0.3,1.3,0.5,2.3,0.5,3.2c0,0.9-0.1,1.7-0.3,2.4c-0.1,0.6-0.3,1.1-0.7,1.6c-0.3,0.6-0.8,1.1-1.3,1.5
			c-0.6,0.6-1.5,1-2.3,1.3c-1,0.4-2.1,0.6-3.2,0.7c-1.1,0-2-0.2-2.8-0.6c-0.5-0.2-0.9-0.6-1.3-1.1c6.2,9.4,14.5,7.9,19,5.2
			c1.2-0.9,2.2-1.8,3.2-2.9c1.4-1.6,2.4-3.2,2.9-4.7c0.5-1.5,0.6-3.2,0.4-4.9s-1-4.5-2.5-8.4c-0.1-0.3-0.2-0.6-0.4-0.9l-6.1-20.1
			L137,88.6z"/>
		<path class="st4" d="M127.1,127.3c-1.6-3.7-3.2-8.3-3.2-8.3c-0.3-0.8-0.8-2.1-1.5-4.1c-0.7-2-1.4-4.1-2-6.4l-3.7-12.1
			c-2.5,0.9-4.4,1.8-5.8,2.3c-1.2,0.5-3.2,1.2-6.2,2.3l3.7,11.1c0.8,2.3,1.3,4,1.7,5.2l1.3,4.6c0.6,1.7,0.9,3,1.2,4
			c0.3,0.8,0.5,1.6,0.7,2c0.5,1.3,1.2,2.5,1.9,3.5c0.7,0.9,1.4,1.6,2.2,2.2c0.8,0.6,1.8,0.9,3,1.3c1.3,0.4,2.8,0.5,4.4,0.6
			s3.4-0.1,5.3-0.5c1.7-0.3,3.4-0.9,5.2-1.4C132.7,133.5,128.8,131.3,127.1,127.3z"/>
	</g>
</g>
</svg>
