<?xml version="1.0" encoding="utf-8"?>
<!-- Generator: Adobe Illustrator 16.0.0, SVG Export Plug-In . SVG Version: 6.00 Build 0)  -->
<!DOCTYPE svg PUBLIC "-//W3C//DTD SVG 1.1//EN" "http://www.w3.org/Graphics/SVG/1.1/DTD/svg11.dtd">
<svg version="1.1" id="圖層_1" xmlns="http://www.w3.org/2000/svg" xmlns:xlink="http://www.w3.org/1999/xlink" x="0px" y="0px"
	 width="25px" height="25px" viewBox="0 0 25 25" enable-background="new 0 0 25 25" xml:space="preserve">
<circle fill="#DC0000" cx="12.5" cy="12.501" r="12.5"/>
<g>
	<path fill="#FFFFFF" d="M18.193,7.732l-2.225,0.174c-0.199-0.878-0.48-1.517-0.846-1.914c-0.604-0.638-1.351-0.957-2.237-0.957
		c-0.713,0-1.338,0.198-1.877,0.597c-0.705,0.514-1.26,1.264-1.666,2.25c-0.406,0.986-0.618,2.391-0.634,4.214
		c0.539-0.82,1.197-1.43,1.977-1.827c0.779-0.397,1.595-0.597,2.449-0.597c1.491,0,2.761,0.549,3.81,1.647
		c1.049,1.098,1.572,2.518,1.572,4.258c0,1.144-0.246,2.206-0.739,3.188c-0.493,0.981-1.171,1.734-2.032,2.256
		c-0.862,0.522-1.84,0.783-2.934,0.783c-1.865,0-3.386-0.686-4.562-2.058c-1.177-1.371-1.766-3.632-1.766-6.781
		c0-3.521,0.651-6.083,1.952-7.683c1.136-1.392,2.665-2.088,4.587-2.088c1.434,0,2.608,0.402,3.524,1.206
		C17.462,5.205,18.012,6.315,18.193,7.732z M9.057,15.589c0,0.771,0.164,1.509,0.491,2.213c0.327,0.705,0.785,1.241,1.374,1.61
		s1.206,0.553,1.853,0.553c0.945,0,1.756-0.381,2.436-1.144s1.02-1.798,1.02-3.107c0-1.26-0.336-2.252-1.007-2.978
		c-0.671-0.725-1.517-1.088-2.536-1.088c-1.011,0-1.869,0.363-2.573,1.088C9.409,13.462,9.057,14.413,9.057,15.589z"/>
</g>
</svg>
