<svg xmlns="http://www.w3.org/2000/svg" width="51" height="37.313" viewBox="0 0 51 37.313">
  <g id="组_19" data-name="组 19" transform="translate(-7073.507 244.315)">
    <path id="联合_1" data-name="联合 1" d="M33.944,35.87V19.816H50V35.87Zm8.824-1.589h5.641V28.638H42.768Zm-7.232,0h5.641V28.638H35.535Zm7.232-7.232h5.641V21.405H42.768Zm-7.232,0h5.641V21.405H35.535ZM18.584,32.016c-.948-.241-1.886-.463-2.794-.769-3.854-1.3-7.255-3.216-9.243-7a9.365,9.365,0,0,1-.9-5.67,4.258,4.258,0,0,1,.243.463,12.37,12.37,0,0,0,12.362,8.3c.184-.006.514.006.817.013l.484-4.67L31.815,31.3,18.183,35.87ZM43.979,16.741a12.374,12.374,0,0,0-12.358-8.3c-.081,0-.192,0-.316,0l-.492,4.745L18.549,4.572,32.181,0l-.4,3.889c.78.2,1.551.391,2.3.643,3.856,1.3,7.256,3.22,9.245,7a9.327,9.327,0,0,1,.9,5.673C44.111,17,44.03,16.876,43.979,16.741ZM0,17.108V1.053H16.054V17.108Zm8.822-1.589h5.643V9.875H8.822Zm-7.232,0H7.232V9.875H1.589ZM8.822,8.286h5.643V2.643H8.822Zm-7.232,0H7.232V2.643H1.589Z" transform="translate(7074.007 -243.594)" fill="#fff" stroke="rgba(0,0,0,0)" stroke-miterlimit="10" stroke-width="1"/>
  </g>
</svg>
