<?xml version="1.0" encoding="utf-8"?>
<!-- Generator: Adobe Illustrator 24.3.0, SVG Export Plug-In . SVG Version: 6.00 Build 0)  -->
<svg version="1.1" id="圖層_1" xmlns="http://www.w3.org/2000/svg" xmlns:xlink="http://www.w3.org/1999/xlink" x="0px" y="0px"
	 width="50px" height="50px" viewBox="0 0 50 50" style="enable-background:new 0 0 50 50;" xml:space="preserve">
<style type="text/css">
	.st0{fill:#B7B6B6;}
</style>
<g id="派彩icon" transform="translate(-305.12 -519.807)">
	<path id="路径_16177" class="st0" d="M315.5,535c0-0.2-0.1-0.4-0.1-0.7c-0.7-5.7,3.6-11.1,9.7-13.1c6.8-2.4,14.4,0.2,18.3,6.4
		c2.7,4.4,1.9,10.1-1.9,13.6c-3.9,3.7-7.4,7.8-11,11.8c-0.9,0.9-1.3,0.8-1.9-0.2c-1.3-2-2.8-3.8-4.1-5.8c-0.3-0.5-0.2-1.1,0-1.6
		c1.5-1.8,3-3.5,4.6-5.2c0.6-0.5,1.3-0.7,2-0.8c2.5-0.2,4.7-2,5.5-4.4c0.6-2.5-0.4-5-2.5-6.4c-2.2-1.3-5-1.3-7.3,0
		c-2,1.2-3.1,3.5-2.7,5.8c0.1,0.5-0.1,1-0.4,1.4c-1.2,1.5-2.6,2.9-3.9,4.3c-0.7,0.8-1.3,0.5-1.7-0.2
		C317.2,538.3,316.3,536.6,315.5,535L315.5,535z"/>
	<path id="矩形_200" class="st0" d="M331.5,558.3l4.3,4.3c0.5,0.5,0.5,1.4,0,2l-4.3,4.3c-0.5,0.5-1.4,0.5-2,0l-4.3-4.3
		c-0.5-0.5-0.5-1.4,0-2l4.3-4.3C330.1,557.8,330.9,557.8,331.5,558.3z"/>
</g>
</svg>
