<?xml version="1.0" encoding="utf-8"?>
<!-- Generator: Adobe Illustrator 26.0.3, SVG Export Plug-In . SVG Version: 6.00 Build 0)  -->
<svg version="1.1" id="圖層_1" xmlns="http://www.w3.org/2000/svg" xmlns:xlink="http://www.w3.org/1999/xlink" x="0px" y="0px"
	 viewBox="0 0 71 50" style="enable-background:new 0 0 71 50;" xml:space="preserve">
<style type="text/css">
	.st0{fill:#186FB8;}
	.st1{fill:#FFFFFF;}
</style>
<g id="泰鈕" transform="translate(-281.4 -223.467)">
	<path class="st0" d="M344.8,273H289c-4,0-7.2-2.3-7.2-5v-39c0-2.8,3.3-5,7.2-5h55.8c4,0,7.2,2.3,7.2,5v39
		C352,270.7,348.7,273,344.8,273z"/>
</g>
<g>
	<path class="st1" d="M13.3,29l3.1,1c-0.4,1.7-1.3,2.9-2.3,3.8c-1.2,0.9-2.5,1.3-4.2,1.3c-2,0-3.8-0.7-5.1-2.2c-1.3-1.5-2-3.4-2-5.8
		c0-2.6,0.7-4.7,2-6.1s3.1-2.2,5.2-2.2c1.9,0,3.5,0.6,4.7,1.7c0.7,0.7,1.3,1.6,1.6,2.9l-3.1,0.7c-0.1-0.9-0.6-1.5-1.2-1.9
		c-0.6-0.4-1.3-0.7-2.2-0.7c-1.2,0-2,0.4-2.8,1.3s-1,2-1,3.9c0,2,0.3,3.4,1,4.2c0.7,0.9,1.6,1.2,2.8,1.2c0.9,0,1.6-0.3,2.2-0.7
		S13.1,30,13.3,29z"/>
	<path class="st1" d="M22.1,19.1v5.7c1-1.2,2.2-1.7,3.5-1.7c0.7,0,1.3,0.1,1.9,0.4c0.6,0.3,1,0.6,1.3,1c0.3,0.4,0.4,0.9,0.6,1.3
		s0.1,1.2,0.1,2.2v6.7h-3.1v-6c0-1.2,0-1.9-0.1-2.3c-0.1-0.4-0.3-0.6-0.6-0.7c-0.3-0.1-0.6-0.3-1-0.3c-0.4,0-0.9,0.1-1.3,0.3
		c-0.4,0.1-0.9,0.7-1,1.2c-0.1,0.4-0.3,1.2-0.3,2.2v5.7H19V19.1H22.1z"/>
	<path class="st1" d="M39.9,34.7v-1.7c-0.4,0.6-1,1-1.6,1.5C37.5,34.7,37,35,36.1,35c-0.7,0-1.5-0.1-2-0.4s-1-0.9-1.3-1.5
		s-0.4-1.5-0.4-2.5v-7.1h3.1v5.2c0,1.6,0,2.6,0.1,2.9s0.3,0.6,0.6,0.9c0.3,0.1,0.7,0.3,1.2,0.3c0.6,0,1-0.1,1.3-0.4
		c0.4-0.3,0.7-0.6,0.9-1c0.1-0.4,0.3-1.5,0.3-3.1v-4.8h3.1v11.4h-2.9V34.7z"/>
	<path class="st1" d="M48,26.8l-2.8-0.4c0.3-1.2,0.9-1.9,1.6-2.5s1.9-0.7,3.4-0.7c1.3,0,2.3,0.1,3.1,0.4c0.7,0.3,1.2,0.7,1.3,1.2
		c0.3,0.4,0.4,1.3,0.4,2.6v3.5c0,1,0,1.7,0.1,2.2c0.1,0.4,0.3,1,0.6,1.5h-2.9c-0.1-0.1-0.1-0.4-0.3-0.9c0-0.1-0.1-0.3-0.1-0.3
		c-0.6,0.4-1,0.9-1.6,1.2c-0.6,0.3-1.2,0.4-1.9,0.4c-1.2,0-2-0.3-2.8-1c-0.7-0.6-1-1.5-1-2.3c0-0.6,0.1-1.2,0.4-1.7
		c0.3-0.4,0.7-0.9,1.3-1.2c0.6-0.3,1.3-0.4,2.3-0.7c1.5-0.3,2.3-0.4,2.9-0.7V27c0-0.6-0.1-1-0.4-1.2c-0.3-0.3-0.9-0.4-1.6-0.4
		c-0.6,0-1,0.1-1.3,0.3C48.5,25.8,48.2,26.2,48,26.8z M46.7,21.9l2.2-3.2h2.8l2.2,3.2h-2.3l-1.2-1.6l-1.2,1.6H46.7z M52,29.3
		c-0.4,0.1-1,0.3-1.9,0.4s-1.3,0.3-1.6,0.6c-0.4,0.3-0.6,0.6-0.6,1c0,0.4,0.1,0.7,0.4,1c0.3,0.3,0.7,0.4,1.2,0.4
		c0.6,0,1-0.1,1.6-0.6c0.4-0.3,0.6-0.6,0.7-1c0.1-0.3,0.1-0.7,0.1-1.5C52,29.7,52,29.3,52,29.3z M50.5,17.2c0.4-0.1,0.6-0.3,0.6-0.4
		c0-0.1-0.1-0.3-0.3-0.4c-0.3-0.1-0.7-0.3-1.5-0.3c-0.3,0-0.6,0-1,0l-0.1-1c0.3,0,0.7-0.1,1.6-0.1s1.6,0.1,2.2,0.4
		c0.6,0.3,0.9,0.7,0.9,1.3c0,0.7-0.6,1.2-1.9,1.3v0.6h-1.2v-1.2C50.1,17.2,50.4,17.2,50.5,17.2z"/>
	<path class="st1" d="M68.3,34.7h-3.1v-5.8c0-1.2,0-2-0.1-2.3s-0.3-0.6-0.6-0.9c-0.3-0.1-0.6-0.3-1-0.3c-0.6,0-1,0.1-1.5,0.4
		c-0.4,0.3-0.7,0.7-0.9,1.2s-0.3,1.3-0.3,2.6v5.1h-3.1V23.3h2.8v1.6c1-1.3,2.2-1.9,3.8-1.9c0.7,0,1.3,0.1,1.7,0.3
		c0.6,0.3,1,0.6,1.3,0.9c0.3,0.4,0.4,0.7,0.6,1.3c0.1,0.4,0.1,1.2,0.1,2v7.1H68.3z"/>
</g>
</svg>
