<?xml version="1.0" encoding="utf-8"?>
<!-- Generator: Adobe Illustrator 24.3.0, SVG Export Plug-In . SVG Version: 6.00 Build 0)  -->
<svg version="1.1" id="圖層_1" xmlns="http://www.w3.org/2000/svg" xmlns:xlink="http://www.w3.org/1999/xlink" x="0px" y="0px"
	 width="50px" height="50px" viewBox="0 0 50 50" style="enable-background:new 0 0 50 50;" xml:space="preserve">
<style type="text/css">
	.st0{fill:#B7B6B6;}
</style>
<g>
	<path class="st0" d="M4.3,22.8C8.2,15.3,15.8,9.8,25,9.8c9.2,0,16.7,5.4,20.7,12.8l4.3-4.7C44.8,9.6,35.6,4,25,4
		C14.4,4,5.2,9.6,0,18L4.3,22.8z"/>
	<path class="st0" d="M14.1,33.7c1.7-4.4,5.7-7.9,11-7.9c5.2,0,9.2,3.4,10.9,7.8l4.2-4.7c-3-5.3-8.7-8.8-15.2-8.8
		c-6.5,0-12.2,3.6-15.2,8.9L14.1,33.7z"/>
	<path class="st0" d="M25,46l6.5-7.4c-1.5-2-3.8-3.4-6.5-3.4c-2.7,0-5.1,1.4-6.6,3.4L25,46z"/>
</g>
</svg>
