<svg xmlns="http://www.w3.org/2000/svg" xmlns:xlink="http://www.w3.org/1999/xlink" width="62" height="28" viewBox="0 0 62 28"><defs><radialGradient id="a" cx="31.02" cy="-210.92" r="44.21" gradientTransform="matrix(1, 0, 0, -1.01, -0.01, -199.52)" gradientUnits="userSpaceOnUse"><stop offset="0.01" stop-color="#ffea3b"/><stop offset="0.51" stop-color="#fa0"/><stop offset="1" stop-color="#7c5900"/></radialGradient><radialGradient id="b" cx="31" cy="13.5" r="21.15" gradientTransform="translate(0.28 0.32) scale(0.99 0.98)" gradientUnits="userSpaceOnUse"><stop offset="0.01" stop-color="#ffea3b"/><stop offset="0.51" stop-color="#fa0"/><stop offset="1" stop-color="#ca8900"/></radialGradient></defs><path d="M58,28H4a4,4,0,0,1-4-4V4A4,4,0,0,1,4,0H58a4,4,0,0,1,4,4V24A4,4,0,0,1,58,28Z" fill="#664a00"/><path d="M58,27H4a4,4,0,0,1-4-3.86V3.86A4,4,0,0,1,4,0H58a4,4,0,0,1,4,3.86V23.14A4,4,0,0,1,58,27Z" fill="url(#a)"/><path d="M5,2H57a3,3,0,0,1,3,3V22a3,3,0,0,1-3,3H5a3,3,0,0,1-3-3V5A3,3,0,0,1,5,2Z" fill="#fff" style="isolation:isolate"/><path d="M5.23,3.25a2,2,0,0,0-2,2V21.8a2,2,0,0,0,2,1.95H56.77a2,2,0,0,0,2-1.95V5.2a2,2,0,0,0-2-1.95H5.23" fill="url(#b)"/><path d="M6.15,4.23A1.84,1.84,0,0,0,4.24,6V21a1.84,1.84,0,0,0,1.91,1.76h49.7A1.84,1.84,0,0,0,57.76,21V6a1.84,1.84,0,0,0-1.91-1.76H6.15" fill="#f7efe4"/></svg>