<svg xmlns="http://www.w3.org/2000/svg" xmlns:xlink="http://www.w3.org/1999/xlink" width="62" height="28" viewBox="0 0 62 28"><defs><linearGradient id="a" x1="-563.99" y1="-361.4" x2="-563.99" y2="-360.4" gradientTransform="translate(34998.66 9757.72) scale(62 27)" gradientUnits="userSpaceOnUse"><stop offset="0" stop-color="#2678bf"/><stop offset="1" stop-color="#4b98d9"/></linearGradient></defs><rect y="1" width="62" height="27" rx="3" fill="#0f69bf"/><rect width="62" height="27" rx="3" fill="url(#a)"/><path d="M5,3A2,2,0,0,0,3,5V22a2,2,0,0,0,2,2H57a2,2,0,0,0,2-2V5a2,2,0,0,0-2-2H5M5,2H57a3,3,0,0,1,3,3V22a3,3,0,0,1-3,3H5a3,3,0,0,1-3-3V5A3,3,0,0,1,5,2Z" fill="#fff" style="isolation:isolate"/></svg>