<svg xmlns="http://www.w3.org/2000/svg" width="34.896" height="27.519" viewBox="0 0 34.896 27.519">
  <g id="组_1" data-name="组 1" transform="translate(-1520.64 -1669.844)">
    <path id="路径_438" data-name="路径 438" d="M1548.792,1712.152c-9.274,0-16.792,4.939-16.792,11.031s7.518,11.031,16.792,11.031,16.792-4.939,16.792-11.031S1558.066,1712.152,1548.792,1712.152Zm0,20.33c-8.627,0-15.646-4.154-15.646-9.258h.344c0,4.914,6.865,8.912,15.3,8.912s15.3-4,15.3-8.912h.344C1564.438,1728.328,1557.42,1732.482,1548.792,1732.482Z" transform="translate(-10.048 -37.147)" fill="#8099ff"/>
    <path id="路径_440" data-name="路径 440" d="M4.389,0C6.814,0,8.779,2.612,8.779,5.833s-1.965,5.833-4.389,5.833S0,9.055,0,5.833,1.965,0,4.389,0Z" transform="translate(1520.64 1682.836) rotate(-64.859)" fill="#d40006"/>
    <ellipse id="椭圆_14" data-name="椭圆 14" cx="4.402" cy="3.12" rx="4.402" ry="3.12" transform="translate(1540.667 1685.672) rotate(-35.688)" fill="#d40006"/>
    <path id="路径_514" data-name="路径 514" d="M5,0c2.763,0,5,1.666,5,3.72s-2.24,3.72-5,3.72S0,5.775,0,3.72,2.24,0,5,0Z" transform="translate(1535.3 1692.174) rotate(151)" fill="#fff" stroke="#202020" stroke-width="0.5"/>
    <path id="路径_439" data-name="路径 439" d="M5.949,0C9.234,0,11.9,1.888,11.9,4.216S9.234,8.432,5.949,8.432,0,6.545,0,4.216,2.663,0,5.949,0Z" transform="translate(1540.508 1673.452) rotate(-16.094)" fill="#fff" stroke="#202020" stroke-width="0.5"/>
  </g>
</svg>
