<?xml version="1.0" encoding="utf-8"?>
<!-- Generator: Adobe Illustrator 26.0.3, SVG Export Plug-In . SVG Version: 6.00 Build 0)  -->
<svg version="1.1" id="圖層_1" xmlns="http://www.w3.org/2000/svg" xmlns:xlink="http://www.w3.org/1999/xlink" x="0px" y="0px"
	 viewBox="0 0 26.1 52" style="enable-background:new 0 0 26.1 52;" xml:space="preserve">
<style type="text/css">
	.st0{opacity:0.8;fill:#996A26;enable-background:new    ;}
	.st1{fill:#F5EDD6;enable-background:new    ;}
</style>
<path id="路径_44" class="st0" d="M26,0c-0.2,27,0.2,24.2,0,52C11.6,52,0,40.4,0,26S11.6,0,26,0z"/>
<path id="btn_back" class="st1" d="M17.9,25.7l-4.5-4.5c-0.5-0.5-0.5-1.3,0-1.8c0.5-0.5,1.3-0.5,1.8,0l5.4,5.4
	c0.2,0.2,0.4,0.6,0.4,0.9c0,0.3-0.1,0.7-0.4,0.9l-5.4,5.4c-0.5,0.5-1.3,0.5-1.8,0c-0.5-0.5-0.5-1.3,0-1.8c0,0,0,0,0,0L17.9,25.7z"/>
</svg>
