<?xml version="1.0" encoding="utf-8"?>
<!-- Generator: Adobe Illustrator 26.0.3, SVG Export Plug-In . SVG Version: 6.00 Build 0)  -->
<svg version="1.1" id="圖層_1" xmlns="http://www.w3.org/2000/svg" xmlns:xlink="http://www.w3.org/1999/xlink" x="0px" y="0px"
	 viewBox="0 0 50 50" style="enable-background:new 0 0 50 50;" xml:space="preserve">
<style type="text/css">
	.st0{fill:#9F7231;}
</style>
<path class="st0" d="M48.5,8c-0.4,0-0.8-0.2-1-0.2l0,0c-0.6,0-1.4,0.2-2,0.6L36,14.5C35.5,10.3,32.1,7,27.8,7H8.1
	C5.9,7,3.9,7.8,2.4,9.5C0.8,10.9,0,12.9,0,15.1v19.7c0,2.2,0.8,4.3,2.4,5.7C3.9,42.2,6.1,43,8.1,43h19.7c4.3,0,7.7-3.2,7.9-7.5
	l9.5,6.1c0.6,0.4,1.2,0.6,2,0.6c0.4,0,0.8,0,1-0.2c1.2-0.4,1.6-0.8,1.6-1.6V9.9C50.2,8.9,49.6,8.4,48.5,8z M31.9,34.9
	c0,2.2-1.8,4.1-4.1,4.1H8.1c-1,0-2-0.4-2.8-1.2S4.1,36,4.1,35V15.1c0-1,0.4-2,1.2-2.8c0.6-0.8,1.6-1.2,2.8-1.2h19.7
	c2.2,0,4.1,1.8,4.1,4.1C31.9,15.2,31.9,34.9,31.9,34.9z M46.1,37.1l-10.4-6.5V19.4l10.4-6.5V37.1z"/>
</svg>
