<?xml version="1.0" encoding="utf-8"?>
<!-- Generator: Adobe Illustrator 26.0.3, SVG Export Plug-In . SVG Version: 6.00 Build 0)  -->
<svg version="1.1" id="圖層_1" xmlns="http://www.w3.org/2000/svg" xmlns:xlink="http://www.w3.org/1999/xlink" x="0px" y="0px"
	 viewBox="0 0 50 50" style="enable-background:new 0 0 50 50;" xml:space="preserve">
<style type="text/css">
	.st0{clip-path:url(#SVGID_00000080910541967313749750000009395831633347719308_);}
	.st1{fill:#9F7231;}
</style>
<g>
	<defs>
		<rect id="SVGID_1_" y="1" width="50" height="48"/>
	</defs>
	<clipPath id="SVGID_00000142883139753699208430000003084199056397565117_">
		<use xlink:href="#SVGID_1_"  style="overflow:visible;"/>
	</clipPath>
	<g id="组_9" style="clip-path:url(#SVGID_00000142883139753699208430000003084199056397565117_);">
		<g id="组_11" transform="translate(0 1)">
			<path id="路径_33" class="st1" d="M24.7,33.2c-1.9,0-3.7-0.7-5.2-1.9c-0.6-0.5-0.7-1.3-0.2-1.9c0.5-0.6,1.3-0.7,1.9-0.2l0,0
				c1,0.8,2.3,1.2,3.6,1.2c1.3-0.1,2.2-0.6,2.4-1.5c0.1-0.6,0.3-1.7-3-3.1c-2-0.8-4.3-2.1-4.3-4.7c0.1-2.3,1.8-4.2,4.2-4.4
				c1.8-0.2,3.6,0.2,5.1,1.2c0.6,0.5,0.6,1.3,0.2,1.9c-0.5,0.5-1.3,0.6-1.8,0.2c-0.9-0.5-2-0.8-3.1-0.7c-0.9,0-1.7,0.7-1.8,1.7
				c0,0.4,0,1.2,2.6,2.3c2.3,1,5.3,2.6,4.7,6.1c-0.5,2.3-2.6,3.8-4.9,3.7C24.9,33.2,24.8,33.2,24.7,33.2"/>
			<path id="路径_34" class="st1" d="M24.6,36.5c-0.7,0-1.4-0.6-1.4-1.4l0,0v-3.1c0-0.7,0.7-1.3,1.4-1.3c0.7,0,1.2,0.6,1.3,1.3
				v3.1C26,35.9,25.4,36.5,24.6,36.5L24.6,36.5"/>
			<path id="路径_35" class="st1" d="M24.6,19.3c-0.7,0-1.4-0.6-1.4-1.4l0,0v-3c0-0.7,0.7-1.3,1.4-1.3c0.7,0,1.2,0.6,1.3,1.3v3
				C26,18.7,25.4,19.3,24.6,19.3L24.6,19.3"/>
		</g>
		<path id="路径_36" class="st1" d="M11.7,49c-1.8,0-3.2-1.5-3.2-3.2c0-0.2,0-0.3,0-0.5l2.2-13.3L1,22.5c-1.3-1.2-1.3-3.3-0.1-4.6
			c0.5-0.5,1.1-0.8,1.8-1l13.4-2L22,2.8c0.8-1.6,2.7-2.3,4.3-1.5c0.6,0.3,1.2,0.8,1.5,1.4l6.1,12.1l13.4,1.8c1.8,0.2,3,1.9,2.7,3.6
			c-0.1,0.7-0.4,1.4-0.9,1.8l-9.6,9.5L41.8,45c0.3,1.8-0.9,3.4-2.6,3.7c-0.7,0.1-1.4,0-2-0.3l-12-6.2l-11.9,6.4
			C12.8,48.8,12.3,49,11.7,49 M24.9,4L24.9,4c-0.1,0-0.2,0.1-0.2,0.1L18.4,17c-0.2,0.4-0.6,0.7-1.1,0.8L3.2,20C3,20,3,20.1,3,20.3
			c0,0.1,0,0.1,0.1,0.1l10.3,9.9c0.4,0.3,0.5,0.8,0.4,1.3l-2.3,14.1c0,0.1,0.1,0.3,0.2,0.3c0.1,0,0.1,0,0.2,0l12.6-6.7
			c0.4-0.2,0.9-0.2,1.4,0l12.7,6.6l0,0c0.1,0.1,0.3,0,0.3-0.1c0,0,0-0.1,0-0.2l-2.5-14.1c-0.1-0.5,0.1-1,0.4-1.3l10.2-10.1
			c0.1-0.1,0.1-0.3,0-0.4c0,0-0.1-0.1-0.1-0.1l-14.1-2c-0.5-0.1-0.9-0.4-1.1-0.8L25.1,4.1C25.1,4,25,4,24.9,4"/>
	</g>
</g>
</svg>
