<svg id="圖層_1" data-name="圖層 1" xmlns="http://www.w3.org/2000/svg" viewBox="0 0 515.86 270.62"><defs><style>.cls-1{fill:#9c2d7f;}.cls-2{fill:none;stroke:#fff;stroke-linecap:round;stroke-linejoin:round;stroke-width:5px;}</style></defs><path class="cls-1" d="M539.11,104.76c-17.68-34.35-46.22-56.35-83.42-67.17-20-5.82-40.51-4.83-60.95-5-2.35,0-3,1.3-4,3A75.22,75.22,0,0,1,367,62.1c-33,22.56-68.92,26.72-106.71,15.84C236,71,216,57.57,203.62,34.64c-1.17-2.17-2.78-2-4.58-2-8.32,0-16.65-.08-25,0-23.75.33-46.16,6-66.58,18.19-37,22.11-59.36,54.45-66,97.18-4.81,30.66.37,59.87,16.14,86.49,27,45.54,67.64,68.19,120.52,68.54,39.78.26,79.56,0,119.33,0H415.27a154.39,154.39,0,0,0,25.85-1.86c39.78-6.73,71.23-26.78,92.49-60.84C561,196.65,562.73,150.67,539.11,104.76Z" transform="translate(-39.71 -32.61)"/><path class="cls-2" d="M206.24,48.31c-7.72,0-15.44-.07-23.15,0-22,.29-42.79,5.31-61.72,16.09-34.31,19.55-55,48.15-61.23,85.94-4.45,27.11.35,52.94,15,76.48,25,40.28,62.7,60.31,111.72,60.62,36.87.23,73.75,0,110.61,0H406.68a150.15,150.15,0,0,0,24-1.64c36.87-6,66-23.69,85.74-53.81,25.35-38.74,27-79.4,5.09-120-16.38-30.38-42.84-49.84-77.32-59.41-18.57-5.14-37.56-4.27-56.5-4.4" transform="translate(-39.71 -32.61)"/></svg>