<?xml version="1.0" encoding="utf-8"?>
<!-- Generator: Adobe Illustrator 24.3.0, SVG Export Plug-In . SVG Version: 6.00 Build 0)  -->
<svg version="1.1" id="圖層_1" xmlns="http://www.w3.org/2000/svg" xmlns:xlink="http://www.w3.org/1999/xlink" x="0px" y="0px"
	 viewBox="0 0 50 50" style="enable-background:new 0 0 50 50;" xml:space="preserve">
<style type="text/css">
	.st0{fill:#FFFFFF;}
</style>
<g id="炸金花icon1" transform="translate(570.903 257.253)">
	<path id="路径_349" class="st0" d="M-555.5-216v-25.1c0-0.8,0.7-1.5,1.5-1.6c-0.5-0.5-1.2-0.6-1.8-0.4l-14.1,5.8
		c-0.8,0.3-1.2,1.3-0.9,2.1l9.5,23.2c0.3,0.8,1.3,1.2,2.1,0.9l8.1-3.3h-2.8C-554.8-214.4-555.5-215.1-555.5-216z"/>
	<path id="路径_350" class="st0" d="M-521.9-237.2L-536-243c-0.6-0.2-1.3-0.1-1.8,0.4c0.8,0,1.5,0.7,1.5,1.6v25.1
		c0,0.9-0.7,1.6-1.6,1.6h-2.8l8.1,3.3c0.8,0.3,1.8-0.1,2.1-0.9l9.5-23.2C-520.7-236-521.1-236.9-521.9-237.2z"/>
	<path id="路径_351" class="st0" d="M-538.4-242.3C-538.4-242.3-538.5-242.3-538.4-242.3h-14.9h-0.1c-0.8,0-1.5,0.7-1.5,1.5v24.3
		c0,0.9,0.7,1.5,1.5,1.5h14.8c0.9,0,1.5-0.7,1.5-1.5v-24.3C-536.9-241.6-537.6-242.3-538.4-242.3z M-543.7-225.1L-543.7-225.1
		c-0.6,0-1.2-0.2-1.7-0.5l-0.1,0.3c0.3,0.4,0.6,0.7,0.9,1c0.5,0.4,1.1,0.8,1.7,1.1h-5.9c0.6-0.3,1.2-0.6,1.7-1.1
		c0.3-0.3,0.7-0.7,0.9-1l-0.1-0.4c-0.5,0.3-1.1,0.5-1.7,0.5c-1.7,0-3.1-1.4-3.1-3.1l0,0l0,0c0-1.7,1.3-2.4,2.4-3.2
		c0.2-0.2,0.5-0.3,0.7-0.5c1.3-1.1,2.1-2.2,2.2-2.2c0.1,0,0.9,1.2,2.2,2.2c0.2,0.2,0.5,0.4,0.7,0.5c1.2,0.8,2.4,1.5,2.4,3.2
		C-540.6-226.5-542-225.1-543.7-225.1L-543.7-225.1z"/>
	<path id="路径_352" class="st0" d="M-540.5-250.9v0.1l-0.8,3.1c0,0.2-0.2,0.3-0.3,0.3h-4.7h-4.7c-0.2,0-0.3-0.1-0.3-0.3l-0.8-3.1
		v-0.1c-0.3-0.1-0.5-0.4-0.5-0.7c0-0.4,0.3-0.7,0.7-0.7s0.7,0.3,0.7,0.7c0,0.2-0.1,0.4-0.3,0.6l1,1c0.2,0.2,0.6,0.4,0.9,0.4
		c0.4,0,0.8-0.2,1.1-0.5l1.6-2.1c-0.1-0.1-0.2-0.3-0.2-0.5c0-0.4,0.3-0.7,0.7-0.7s0.7,0.3,0.7,0.7c0,0.2-0.1,0.4-0.2,0.5l0,0
		l1.6,2.1c0.2,0.3,0.6,0.5,1.1,0.5c0.3,0,0.7-0.1,0.9-0.4l1-1c-0.2-0.1-0.3-0.4-0.3-0.6c0-0.4,0.3-0.7,0.7-0.7s0.7,0.3,0.7,0.7
		C-540-251.3-540.2-251-540.5-250.9z M-541.4-246.3c0-0.2-0.2-0.4-0.4-0.4h-9.1c-0.2,0-0.4,0.2-0.4,0.4v0.8c0,0.2,0.2,0.4,0.4,0.4
		h9.1c0.2,0,0.4-0.2,0.4-0.4V-246.3z"/>
</g>
</svg>
