<?xml version="1.0" encoding="utf-8"?>
<!-- Generator: Adobe Illustrator 24.3.0, SVG Export Plug-In . SVG Version: 6.00 Build 0)  -->
<svg version="1.1" id="圖層_1" xmlns="http://www.w3.org/2000/svg" xmlns:xlink="http://www.w3.org/1999/xlink" x="0px" y="0px"
	 viewBox="0 0 50 50" style="enable-background:new 0 0 50 50;" xml:space="preserve">
<style type="text/css">
	.st0{fill:#6AFF00;}
</style>
<g id="百家乐icon" transform="translate(933.827 -97.12)">
	<path id="路径_346" class="st0" d="M-898.2,118.1c-0.4-0.1-0.9,0-1.2,0.2c-0.5,0.4-0.8,1-0.9,1.6c-0.2,0.6-0.2,1.3,0,1.9
		c0.2,0.4,0.6,0.8,1,0.9s0.9,0,1.3-0.2c0.5-0.4,0.8-0.9,0.9-1.4c0.2-0.6,0.2-1.3,0-1.9C-897.3,118.6-897.7,118.3-898.2,118.1z"/>
	<path id="路径_347" class="st0" d="M-885.3,108l-18.4-4.9c-1.1-0.3-2.2,0.3-2.4,1.4l-2.1,7.7l6,22.3c0.3,1.1-0.3,2.1-1.4,2.4l0,0
		l-4.6,1.2l13.8,3.7c1.1,0.3,2.2-0.3,2.4-1.4l8.1-30C-883.6,109.4-884.2,108.3-885.3,108L-885.3,108z M-895,123.5
		c-0.3,1.7-1.2,3.3-2.5,4.5c-1.1,0.8-2.4,1-3.6,0.6c-0.9-0.2-1.6-0.7-2.1-1.4c-0.5-0.8-0.7-1.7-0.5-2.6l2.3,0.4
		c-0.1,0.4,0,0.8,0.2,1.1c0.2,0.3,0.5,0.5,0.8,0.6c0.5,0.1,1,0,1.4-0.3c0.7-0.7,1.2-1.6,1.4-2.6c-0.7,0.5-1.6,0.7-2.5,0.4
		c-1-0.2-1.8-0.9-2.2-1.8c-0.5-1-0.6-2.1-0.3-3.2c0.2-1.1,0.9-2.1,1.9-2.7c0.9-0.6,2.1-0.7,3.1-0.4c1.2,0.3,2.2,1.1,2.7,2.2
		C-894.4,120.1-894.4,121.9-895,123.5L-895,123.5z"/>
	<path id="路径_348" class="st0" d="M-903.4,133.8l-6-22.3l-2.1-7.7c-0.3-1.1-1.4-1.7-2.4-1.4l-18.4,4.9c-1.1,0.3-1.7,1.4-1.4,2.4
		l8.1,30c0.3,1.1,1.4,1.7,2.4,1.4l13.8-3.7l4.6-1.2C-903.7,135.9-903.1,134.9-903.4,133.8L-903.4,133.8z M-919.6,128.5l-2.5,0.7
		l-3.3-12.2l2.5-0.7l1.5,5.4l3.5-6.7l3.3-0.9l-3.3,6l4.9,4.4l1.9,1.7l-2.6,0.7l-0.6,0.2l-4.9-4.8l-1.5,2.6L-919.6,128.5z"/>
</g>
</svg>
