<svg id="组_7" data-name="组 7" xmlns="http://www.w3.org/2000/svg" xmlns:xlink="http://www.w3.org/1999/xlink" width="30" height="32.221" viewBox="0 0 30 32.221">
  <defs>
    <clipPath id="clip-path">
      <rect id="矩形_10" data-name="矩形 10" width="30" height="32.221" fill="none"/>
    </clipPath>
  </defs>
  <g id="组_6" data-name="组 6" clip-path="url(#clip-path)">
    <path id="路径_11" data-name="路径 11" d="M91.322,100.914c1.084-1.405,2.408-2.228,4.207-1.816a4.413,4.413,0,0,1,3.155,5.291,9.15,9.15,0,0,1-2.449,4.714c-1.38,1.439-2.916,2.73-4.415,4.05a.9.9,0,0,1-.833.126c-2.795-2.007-5.348-4.251-6.683-7.544a5.081,5.081,0,0,1,.163-4.664,3.852,3.852,0,0,1,6.42-.637c.136.153.275.3.436.48" transform="translate(-68.773 -81.224)" fill="#fff"/>
    <path id="路径_12" data-name="路径 12" d="M98.433,16.683H92.038c1.662-.593,2.335-1.861,2.591-3.6a3.783,3.783,0,0,1-3.655.682,3.514,3.514,0,0,1-2.191-4.507,6.933,6.933,0,0,1,1.468-2.722,57.316,57.316,0,0,1,4.475-3.962A.934.934,0,0,1,95.59,2.5a15.7,15.7,0,0,1,5.642,5.518c1.161,2.114.739,4.288-1.043,5.394a3.672,3.672,0,0,1-4.351-.315,3.933,3.933,0,0,0,2.6,3.59" transform="translate(-72.696 -1.987)" fill="#fff"/>
    <path id="路径_13" data-name="路径 13" d="M3.4,113.5a3.69,3.69,0,0,0,2.519-3.336c-1.331.767-2.661,1.1-3.878.308a4.853,4.853,0,0,1-1.763-2.026c-.829-1.97.252-3.758,2.669-4.76-.4-2.377.925-4.564,3.58-4.624,2.312-.053,3.616,1.665,3.564,4.563,2.819,1,3.454,3.394,2.519,5.288-.96,1.948-3.013,2.464-5.3,1.364-.19,1.27.431,2.093,2.535,3.224Z" transform="translate(0 -81.283)" fill="#fff"/>
    <path id="路径_14" data-name="路径 14" d="M9.008,14.54c-1.189-1.372-2.321-2.675-3.45-3.982-.8-.927-1.621-1.839-2.377-2.8A.932.932,0,0,1,3.1,6.886C5.018,4.6,6.976,2.349,9,0l6.276,7.27L9.008,14.54" transform="translate(-2.482)" fill="#fff"/>
  </g>
</svg>
