<?xml version="1.0" encoding="utf-8"?>
<!-- Generator: Adobe Illustrator 24.3.0, SVG Export Plug-In . SVG Version: 6.00 Build 0)  -->
<svg version="1.1" id="圖層_1" xmlns="http://www.w3.org/2000/svg" xmlns:xlink="http://www.w3.org/1999/xlink" x="0px" y="0px"
	 viewBox="0 0 38.7 29.6" style="enable-background:new 0 0 38.7 29.6;" xml:space="preserve">
<style type="text/css">
	.st0{fill:#FFD100;}
</style>
<path id="路径_346" class="st0" d="M25.2,11.3c-0.3-0.1-0.6,0-0.9,0.2c-0.3,0.3-0.5,0.7-0.6,1.1c-0.2,0.4-0.2,0.9,0,1.3
	c0.1,0.3,0.4,0.5,0.7,0.6c0.3,0.1,0.6,0,0.9-0.2c0.3-0.3,0.5-0.6,0.6-1s0.1-0.9,0-1.3C25.8,11.6,25.5,11.4,25.2,11.3z"/>
<path id="路径_348" class="st0" d="M21.5,22.4L17.3,6.5L15.8,1c-0.2-0.8-1-1.2-1.7-1l-13,3.5c-0.8,0.2-1.2,1-1,1.7l5.7,21.4
	c0.2,0.8,1,1.2,1.7,1l9.8-2.6l3.3-0.9C21.3,23.9,21.7,23.2,21.5,22.4z M10.1,18.7l-1.7,0.5L6,10.5L7.8,10l1,3.8L11.3,9l2.3-0.6
	l-2.4,4.2l3.5,3.1l1.4,1.2l-1.8,0.5l-0.4,0.1l-3.5-3.4l-1,1.8L10.1,18.7z"/>
<g>
	<g>
		<path class="st0" d="M36.6,19.6c-2.9-2.1-3.8-3.8-4.5-5.1l0,0l0,0l0,0c-0.7,1.3-1.7,3-4.5,5.1c-4.9,3.6-0.3,8.7,3.7,5.9
			c-0.3,1.7-1.2,3-2.1,3.5v0.6H32h2.8V29c-0.9-0.5-1.8-1.8-2.1-3.5C36.9,28.3,41.5,23.3,36.6,19.6z"/>
	</g>
</g>
<path class="st0" d="M29.4,27.6L29.4,27.6c0.1-0.1,0.1-0.2,0.2-0.3c-0.2,0-0.4,0-0.6,0c-1.9,0-3.6-1.2-4.2-2.9
	c-0.6-1.9,0.2-4,2.3-5.5c2.6-2,3.6-3.5,4.2-4.8c0.2-0.3,0.5-0.5,0.9-0.5s0.7,0.2,0.9,0.5c0,0,0,0.1,0.1,0.1l2.3-8.5
	c0.2-0.7-0.2-1.4-1-1.6l-13-3.5c-0.8-0.2-1.5,0.2-1.7,1L18.1,7l4.3,15.9c0.2,0.8-0.2,1.5-1,1.7l-3.3,0.9l9.8,2.6
	C28.5,28.2,29,28.1,29.4,27.6z M23.1,18.7c-0.6-0.1-1.1-0.5-1.5-1c-0.3-0.5-0.5-1.2-0.4-1.8l1.7,0.3c-0.1,0.3,0,0.6,0.1,0.8
	c0.1,0.2,0.3,0.4,0.6,0.4c0.4,0.1,0.7,0,1-0.2c0.5-0.5,0.8-1.2,1-1.8c-0.5,0.4-1.2,0.5-1.8,0.3c-0.7-0.2-1.2-0.6-1.6-1.3
	s-0.4-1.5-0.2-2.3s0.7-1.5,1.4-1.9c0.7-0.4,1.5-0.5,2.2-0.3c0.8,0.2,1.5,0.8,1.9,1.6c0.4,1.2,0.4,2.4,0,3.6
	c-0.2,1.2-0.9,2.4-1.8,3.2C25,18.8,24,19,23.1,18.7z"/>
</svg>
