<svg id="三公" xmlns="http://www.w3.org/2000/svg" xmlns:xlink="http://www.w3.org/1999/xlink" width="88.088" height="59.333" viewBox="0 0 88.088 59.333">
  <defs>
    <clipPath id="clip-path">
      <rect id="矩形_278" data-name="矩形 278" width="88.089" height="59.333" fill="#fff"/>
    </clipPath>
  </defs>
  <g id="组_11" data-name="组 11" clip-path="url(#clip-path)">
    <path id="路径_353" data-name="路径 353" d="M28.065,47.542A2.608,2.608,0,0,1,25.424,44.9V34.11a4.753,4.753,0,0,1-2.731,3.246,2.872,2.872,0,0,1-3.11-.369,1.791,1.791,0,0,1,.864-2.448c.706-.3,1.424-.068,2.414.594l.567.388a13.864,13.864,0,0,0-1.2-3.553c-.939-2.185-2.668-6.033-4.941-11.13l-1.521.457-.529-1.231,1.432-.616,3.793-1.631,1.264-.544.529,1.231-1.233.7c.658,1.6,1.353,3.22,2.049,4.839l.745,1.732a25.187,25.187,0,0,1,1.611,4.776V3.461A2.82,2.82,0,0,1,27.9.82a2.87,2.87,0,0,0-2.972-.66L1.65,9.735A2.752,2.752,0,0,0,.164,13.2L15.848,51.5a2.752,2.752,0,0,0,3.467,1.486l13.373-5.448Z" transform="translate(0 0)" fill="#fff"/>
    <path id="路径_354" data-name="路径 354" d="M151.859,6.983H127.094a2.539,2.539,0,0,0-2.476,2.476V49.578a2.431,2.431,0,0,0,2.476,2.476h24.435a2.431,2.431,0,0,0,2.476-2.476V9.459a2.09,2.09,0,0,0-2.146-2.476m-7.084,30.458a3.986,3.986,0,0,1-.869.932,5.031,5.031,0,0,1-1.117.665,3.115,3.115,0,0,1-1.067.277,2.41,2.41,0,0,1-.968-.2q-.574-.222-1.156-.5t-1.1-.51a2.119,2.119,0,0,0-.771-.233,1.57,1.57,0,0,0-.583.133,6.388,6.388,0,0,0-.632.3,5.646,5.646,0,0,0-.573.355q-.267.188-.425.277a.534.534,0,0,1-.445.122.564.564,0,0,1-.306-.222.936.936,0,0,1-.158-.377.67.67,0,0,1,.02-.366,2.19,2.19,0,0,1,.544-.787,8.464,8.464,0,0,1,1.334-1.032q1.344-.887,2.322-1.686a7.808,7.808,0,0,0,1.611-1.764,7.072,7.072,0,0,0,.939-2.229,13.193,13.193,0,0,0,.306-3.061,11.823,11.823,0,0,0-.188-2.074,6.731,6.731,0,0,0-.613-1.886,3.978,3.978,0,0,0-1.117-1.364,2.7,2.7,0,0,0-1.7-.532,2.617,2.617,0,0,0-1.7.543,3.958,3.958,0,0,0-1.077,1.386,6.634,6.634,0,0,0-.563,1.908,14.173,14.173,0,0,0-.158,2.085,16.666,16.666,0,0,0,.109,2.1,6.09,6.09,0,0,0,.366,1.475,5.062,5.062,0,0,0,.7,1.22q.445.577,1.116,1.331a.619.619,0,0,1,.208.521.78.78,0,0,1-.217.4,1.634,1.634,0,0,1-.346.266,1.773,1.773,0,0,1-.741.1,2.661,2.661,0,0,1-1.472-.732,6.591,6.591,0,0,1-1.551-1.83,9.955,9.955,0,0,1-1-2.385,9.1,9.1,0,0,1-.356-2.418,9.646,9.646,0,0,1,.474-3.095,7.275,7.275,0,0,1,1.344-2.429,5.91,5.91,0,0,1,2.1-1.575,6.66,6.66,0,0,1,2.757-.555,7.431,7.431,0,0,1,2.9.532,5.653,5.653,0,0,1,2.125,1.531,6.724,6.724,0,0,1,1.3,2.44,11.06,11.06,0,0,1,.445,3.261,9.922,9.922,0,0,1-.4,2.95,7.64,7.64,0,0,1-1.1,2.229,7.957,7.957,0,0,1-1.68,1.7,16.617,16.617,0,0,1-2.144,1.353q.751.221,1.453.488a11.3,11.3,0,0,0,1.472.444,1.41,1.41,0,0,0,.9-.144,1.813,1.813,0,0,0,.761-.61,1.27,1.27,0,0,1,.3-.277.6.6,0,0,1,.336-.122.333.333,0,0,1,.267.133.708.708,0,0,1,.109.444,1.956,1.956,0,0,1-.346,1.1" transform="translate(-98.203 -5.503)" fill="#fff"/>
    <path id="路径_355" data-name="路径 355" d="M250.887,39.677a1.658,1.658,0,0,1,1.089-1.7l.025-.006,7.116-2.924,8.626-21.065a2.687,2.687,0,0,0-1.486-3.467L242.978.938a2.871,2.871,0,0,0-2.972.66,2.577,2.577,0,0,1,2.476,2.642V17.809l.641.256,3.013,1.2,1.957.782-.425,1.063-2.073-.578c-.789,1.866-1.558,3.784-2.331,5.72l-.434,1.085,8.278-4.5-1.465-.937.425-1.063,2.72,1.087,1.555.622,1.055.421-.425,1.063-2.324-.6-5.114,2.683,1.29,10.181,1.527.827-.425,1.063-.909-.363-3.214-1.284-2.166-.865.425-1.063,1.582.43-.8-7.516-2.368,1.242V45.68a2.608,2.608,0,0,1-2.642,2.642h-4.623l13.373,5.448a2.752,2.752,0,0,0,3.467-1.486l.256-.626a17.925,17.925,0,0,1-1.428-6.969Z" transform="translate(-185.36 -0.614)" fill="#fff"/>
    <path id="路径_356" data-name="路径 356" d="M336.226,166.712l-.02-.008-8.8-3.615a1.142,1.142,0,0,1-.313-.1,1,1,0,0,0-.418-.1,1.209,1.209,0,0,0-.662.168l-.022.01-8.868,3.643-.022.006a1.47,1.47,0,0,0-.966,1.509v4.442a15.834,15.834,0,0,0,2.759,8.906,17.219,17.219,0,0,0,7.052,5.925,1.147,1.147,0,0,1,.31.095,1,1,0,0,0,.418.1,1.208,1.208,0,0,0,.661-.168l.024-.011a13.91,13.91,0,0,0,7.08-5.92l.015-.023a15.832,15.832,0,0,0,2.759-8.906v-4.442a1.733,1.733,0,0,0-.989-1.515m-4.886,6.68-5.309,5.078a1.154,1.154,0,0,1-1.385,0l-3-3a.874.874,0,0,1-.175-1.172,1.236,1.236,0,0,1,.312-.318c.512-.373.766-.338,1.248.1l2.077,2.077,4.386-4.385c.461-.462.909-.337,1.385,0,.8.554.8,1.191.462,1.616" transform="translate(-249.126 -128.364)" fill="#fff"/>
  </g>
</svg>
