<?xml version="1.0" encoding="utf-8"?>
<!-- Generator: Adobe Illustrator 24.3.0, SVG Export Plug-In . SVG Version: 6.00 Build 0)  -->
<svg version="1.1" id="骰寶icon1" xmlns="http://www.w3.org/2000/svg" xmlns:xlink="http://www.w3.org/1999/xlink" x="0px"
	 y="0px" viewBox="0 0 50 50" style="enable-background:new 0 0 50 50;" xml:space="preserve">
<style type="text/css">
	.st0{fill:#FFFFFF;}
</style>
<g>
	<g id="组_34" transform="translate(9.54 9.284)">
		<path id="路径_74" class="st0" d="M13.1,9.6c-1.9,0-3.5,1.6-3.5,3.5V37c0,1.9,1.6,3.5,3.5,3.5l0,0H37c1.9,0,3.5-1.6,3.5-3.5
			V13.1c0-1.9-1.6-3.5-3.5-3.5H13.1z M31.8,15.5c0-1.5,1.3-2.8,2.8-2.8s2.8,1.3,2.8,2.8s-1.3,2.8-2.8,2.8l0,0
			C33,18.3,31.8,17.1,31.8,15.5z M22.3,25c0-1.5,1.3-2.8,2.8-2.8s2.8,1.3,2.8,2.8s-1.3,2.8-2.8,2.8l0,0C23.5,27.8,22.3,26.6,22.3,25
			L22.3,25L22.3,25z M12.8,34.6c0-1.5,1.3-2.8,2.8-2.8s2.8,1.3,2.8,2.8s-1.3,2.8-2.8,2.8l0,0C14,37.4,12.8,36.1,12.8,34.6L12.8,34.6
			L12.8,34.6z"/>
	</g>
	<g id="组_35" transform="translate(0)">
		<path id="路径_75" class="st0" d="M22.7,17.8h8.2v-14c0-1.9-1.6-3.5-3.5-3.5l0,0H3.5C1.6,0.3,0,1.8,0,3.7l0,0v23.9
			c0,1.9,1.6,3.5,3.5,3.5H18v-8.7C18,19.8,20.1,17.8,22.7,17.8z M24.9,3.4c1.5,0,2.8,1.2,2.8,2.8S26.5,9,24.9,9
			c-1.5,0-2.8-1.2-2.8-2.8l0,0C22.1,4.6,23.4,3.4,24.9,3.4L24.9,3.4L24.9,3.4z M5.9,28c-1.5,0-2.8-1.3-2.8-2.8s1.3-2.8,2.8-2.8
			s2.8,1.3,2.8,2.8l0,0C8.7,26.7,7.4,28,5.9,28L5.9,28z M5.9,9C4.4,9,3.1,7.7,3.1,6.2s1.3-2.8,2.8-2.8s2.8,1.3,2.8,2.8l0,0
			C8.7,7.7,7.4,9,5.9,9L5.9,9z M15.4,18.5c-1.5,0-2.8-1.3-2.8-2.8s1.3-2.8,2.8-2.8s2.8,1.2,2.8,2.8C18.2,17.2,17,18.5,15.4,18.5
			L15.4,18.5z"/>
	</g>
</g>
</svg>
