<svg xmlns="http://www.w3.org/2000/svg" width="34.084" height="25.838" viewBox="0 0 34.084 25.838">
  <g id="组_4" data-name="组 4" transform="translate(-281.072 -407.874)">
    <g id="组_2" data-name="组 2">
      <path id="路径_438" data-name="路径 438" d="M298.114,411.4c-9.274,0-16.792,4.939-16.792,11.031s7.518,11.031,16.792,11.031,16.792-4.939,16.792-11.031S307.388,411.4,298.114,411.4Z" fill="none" stroke="#8099ff" stroke-width="0.5"/>
      <path id="路径_440" data-name="路径 440" d="M281.874,415.258c1.031-2.2,4.23-2.864,7.146-1.5s4.445,4.257,3.416,6.452-4.229,2.864-7.146,1.5S280.844,417.453,281.874,415.258Z" fill="#d40006"/>
      <ellipse id="椭圆_14" data-name="椭圆 14" cx="4.402" cy="3.12" rx="4.402" ry="3.12" transform="translate(300.037 422.067) rotate(-35.688)" fill="#d40006"/>
    </g>
    <path id="路径_521" data-name="路径 521" d="M298.114,431.976c-8.893,0-16.151-4.544-16.735-10.288a7.342,7.342,0,0,0-.057.743c0,6.092,7.518,11.031,16.792,11.031s16.792-4.939,16.792-11.031a7.062,7.062,0,0,0-.058-.743C314.264,427.432,307.006,431.976,298.114,431.976Z" fill="#8099ff"/>
    <g id="组_3" data-name="组 3">
      <path id="路径_522" data-name="路径 522" d="M282.015,418.669l.009-.036Z" fill="#b68440"/>
      <path id="路径_523" data-name="路径 523" d="M314.21,418.669l-.009-.036Z" fill="#b68440"/>
    </g>
    <path id="路径_514" data-name="路径 514" d="M290.3,430.993c-2.417,1.34-5.181.967-6.177-.829s.156-4.34,2.57-5.678,5.18-.968,6.176.83S292.71,429.655,290.3,430.993Z" fill="#fff"/>
    <path id="路径_439" data-name="路径 439" d="M305.593,408.2c3.157-.91,6.242.165,6.887,2.4s-1.393,4.79-4.549,5.7-6.239-.164-6.885-2.4S302.436,409.109,305.593,408.2Z" fill="#fff"/>
  </g>
</svg>
