<?xml version="1.0" encoding="utf-8"?>
<!-- Generator: Adobe Illustrator 24.3.0, SVG Export Plug-In . SVG Version: 6.00 Build 0)  -->
<svg version="1.1" id="圖層_1" xmlns="http://www.w3.org/2000/svg" xmlns:xlink="http://www.w3.org/1999/xlink" x="0px" y="0px"
	 viewBox="0 0 50 50" style="enable-background:new 0 0 50 50;" xml:space="preserve">
<style type="text/css">
	.st0{fill:#FFFFFF;}
</style>
<g>
	<path class="st0" d="M15.7,48.3c-0.1,0-0.3,0-0.4,0.1c-0.1,0.4-0.3,0.7-0.4,1c0,0.1,0,0.3,0,0.4h0.4c0-0.4,0.1-0.7,0.3-1
		c0,0,0-0.3,0.3-0.3s0.1,0.1,0.1,0.1c-0.1,0.4-0.3,0.8-0.5,1h0.8c0-0.1,0-0.1,0-0.3c0-0.3,0.1-0.8,0.3-1
		C16.1,48.4,16,48.4,15.7,48.3z"/>
	<path class="st0" d="M14.4,48.3c-0.1,0.3-0.4,0.8-0.5,1c0,0.1-0.1,0.4,0,0.5h0.4l0,0c0-0.1,0-0.3,0-0.4c0-0.3,0-0.5,0.1-0.8
		c0-0.1,0.1-0.1,0.3-0.1c0.1,0,0.1,0.1,0.1,0.1s-0.4,0.7-0.5,0.8c0,0.1-0.1,0.3-0.1,0.4h0.5c0-0.1,0-0.3,0-0.4l0.4-1
		C15,48.2,14.6,48.2,14.4,48.3z"/>
	<path class="st0" d="M19.8,42.7c0-0.1-0.1-0.4-0.1-0.5c0.4-0.5,0.7-1,0.8-1.7c0,0-0.5,0.5-1,0.4c-0.3,0-0.4-0.1-0.7-0.3
		c-0.3-0.1-0.5-0.4-0.8-0.4c-0.3-0.1-1.8-0.5-2.1-0.7c0,0-0.4,1-0.5,1.3c0.1,0.4,0.3,0.7,0.4,0.9c0.1,0.3,0.4,0.4,0.7,0.5
		c0.3,0.1,0.5,0.4,0.8,0.7c0.3,0.5,0.5,1,0.5,1.6l-1.6,2.6c-0.1,0.3-0.4,0.5-0.7,0.7s-0.7,0.1-0.9,0c-0.1,0-0.4,0-0.5,0
		c0.1,0,0.1,0.1,0.1,0.1c0.7-0.1,0.9,0.1,0.9,0.1c0.4,0.3,0.5,0.1,0.8,0.1c0.3,0,0.4,0.1,0.5,0.3c0,0,0.1-0.3,0.7-0.1
		c0.5,0.1,0.7,0.7,0.7,0.7v0.1c0,0-0.3-0.7-0.7-0.8c-0.3,0-0.4,0-0.5,0.1v0.1c-0.1,0.4-0.1,0.8-0.3,1.2h0.4c0-0.4,0-0.7,0.1-1
		c0-0.1,0.1-0.1,0.1-0.1l0.1,0.1c0,0.4-0.1,0.7-0.4,0.9h1.3v-0.5c-0.1-0.3-0.3-0.7-0.3-0.7c0.1,0.1,0.3,0.3,0.3,0.4l0,0l0.9-1.7
		c0.1-0.4,0.3-0.7,0.5-0.9c0.3-0.3,0.5-0.5,0.7-0.9c0.3-0.5,0.4-0.9,0.4-0.9c0.1-0.3,0.1-0.5-0.1-0.8C20.2,43.5,20,43.1,19.8,42.7z"
		/>
	<path class="st0" d="M14.3,48.2C14.3,48.2,14.3,48,14.3,48.2L14,48.3c-0.1,0-0.1,0-0.1,0c-0.4,0.3-0.5,0.7-0.4,1.2v0.1
		c0,0.1,0,0.1,0,0.1l0.1,0.1l0,0c0-0.1,0-0.4,0-0.5C13.8,49.2,14.2,48.4,14.3,48.2C14.3,48.3,14.3,48.2,14.3,48.2z M14,48.4
		c0,0.1-0.1,0.3-0.1,0.3c-0.1,0.1-0.3,0.4-0.4,0.7C13.5,49,13.6,48.6,14,48.4L14,48.4C13.9,48.4,14,48.3,14,48.4
		C14,48.3,14,48.3,14,48.4z"/>
	<path class="st0" d="M27.8,48.6l0.1,1.3h0.7c-0.1-0.3-0.3-0.8-0.4-0.9s0-0.3,0.1-0.3s0.1,0,0.3,0.3s0.1,0.9,0.1,0.9l0,0h0.7
		c-0.1-0.5-0.3-0.9-0.4-1.3C28.8,48.3,28,48.3,27.8,48.6z"/>
	<path class="st0" d="M26.1,48.4c-0.1,0.1-0.1,0.3-0.3,0.4c0,1,0.1,1,0.1,1h0.3c-0.1-0.3-0.1-0.7-0.1-0.9c0-0.1,0.1-0.1,0.1-0.1
		s0.1,0,0.1,0.1s0,0.9,0,1h0.4c0-0.3-0.1-1.2-0.1-1.3C26.4,48.4,26.3,48.3,26.1,48.4z"/>
	<path class="st0" d="M27.2,48.4c-0.1,0-0.4,0.1-0.4,0.3V50h0.5c0-0.1-0.1-0.9-0.1-1s0-0.1,0.1-0.1c0,0,0.1,0,0.1,0.1
		c0,0.4,0,0.7,0,1H28c0-0.4-0.1-0.9-0.3-1.3C27.5,48.4,27.3,48.3,27.2,48.4z"/>
	<path class="st0" d="M30.1,48.4c-0.1-0.1-0.4-0.1-0.5-0.1c-0.3,0.1-0.3,0.3-0.3,0.3c0.1,0.4,0.1,0.9,0.3,1.3H30
		c0-0.3-0.3-0.9-0.3-0.9c0-0.1,0-0.1,0.1-0.3c0,0,0.1,0,0.3,0.1c0,0.4,0,0.7,0,1h0.5C30.4,49.5,30.3,49,30.1,48.4
		C30.2,48.6,30.1,48.4,30.1,48.4z"/>
	<path class="st0" d="M26.1,46.4l0.1,0.4c0,0,0.3,1.3,0,1.6c0.1,0,0.3,0,0.4,0.1c0.1-0.1,0.4-0.3,0.5-0.3c0.3,0,0.4,0.1,0.5,0.3
		c0.1-0.1,0.4-0.3,0.5-0.3c0.3,0,0.5,0.1,0.8,0.3c0.1-0.3,0.4-0.3,0.7-0.3c-0.1-0.1-0.4-0.1-0.4-0.3c-0.3-0.5-0.5-1.2-0.7-1.7
		c0-0.4-0.3-0.7-0.5-0.9c-0.3-0.3-0.5-0.8-0.5-1.2c0-0.7-0.1-1.3-0.3-1.8c-0.1-0.7-0.3-1.6-0.4-2c-0.3,0.5-0.5,1-0.9,1.6
		c-0.1,0.4-0.3,0.8-0.3,1.2c-0.1-0.4-0.1-0.9,0-1.3c0-0.1,0.8-1.7,0.9-2.1c0-0.4,0-0.7,0-1c-0.3-0.8-0.5-1.4-0.9-2.2
		c-0.1-0.4-0.3-0.7-0.4-0.9c0,0.4,0,0.9,0.1,1.3c0.1,0.5,0.7,1.8,0.1,0.7c-0.4-0.8-0.7-1.6-0.5-2.5c0,0,0,0,0-0.1s-0.1-0.1-0.1-0.1
		c0-0.4-0.3-0.9-0.7-1.2c-0.1-0.1-0.3-0.1-0.4-0.4c0.1,0.1,0.1,0.3,0.1,0.4c0.1,0.3,0.1,1.3,0.1,1.6c0,0.4,0.1,0.7,0.3,1
		c0.3,0.5,0.3,1,0.1,1.6c0-0.5-0.1-1-0.4-1.6c-0.3-0.5-0.4-0.9-0.5-1.4c0-0.7-0.3-1.3-0.4-2c-0.1-0.1-0.4-0.3-0.5-0.4l0,0
		c0,0.7,0.1,1.4,0.4,2.1c0.1,0.4,0.4,0.8,0.4,1.3c0.1,0.4,0,0.9,0,1.3c0-0.8-0.3-1.6-0.5-2.3c0.1,0.4,0.1,0.8,0.1,1.2
		c-0.1,0.5-0.3,1-0.3,1.4c-0.1,0.4-0.3,0.8-0.3,1.2c0,0.3-0.1,0-0.1-0.1c0-0.5,0-1.2,0.1-1.7c0.1-0.7,0.3-1.4,0-2.2
		s-0.3-0.8-0.4-1.2c0-0.3-0.1-0.8-0.1-1.3l0.2-0.3c-0.3-0.3-0.4-0.7-0.7-1c0,0-0.1-0.3-0.3-0.5c0,0.4,0.1,1.4,0.1,1.6
		c0,0.3,0,0.7,0,0.9c0,0.3-0.1,0.5-0.3,0.8c-0.1,0.3-0.5,0.8-0.7,1s-0.5,0.7-0.5,0.8c-0.1,0.1-0.1,0.4-0.3,0.5c0-0.4,0-0.8,0.3-1.2
		c0.4-0.7,0.7-1.3,0.8-2c0.7-1.7,0.4-3.6-0.8-5.2l-0.1-0.1c0,0.1,0,0.1,0.1,0.3c0.1,0.7,0.1,1.3,0.1,2.1c0,0,0,1.2,0,1.4
		c-0.1,0.7-0.4,1.3-0.7,1.8c-0.4,0.5-0.7,0.9-1,1.3c-0.3,0.5-0.5,1-0.7,1.6c0-0.7,0.1-1.2,0.5-1.7c0.3-0.5,0.7-1.2,1-1.7
		c0.3-0.4,0.4-0.9,0.4-1.4s0-2.1-0.1-2.5c-0.1-0.7-0.3-1.2-0.5-1.8c-0.1-0.3-0.3-0.4-0.4-0.5s-0.3-0.3-0.4-0.3
		c0.1,0.3,0.4,2.1,0.4,2.1c0,1.2,0,2.3-0.1,3.5c0,0.5-0.1,0.9-0.3,1.4c-0.4,0.7-0.8,1.4-1.2,2.1c0.1,0.7,0.1,1.2,0.4,1.8
		c-0.3,0.3-0.5,0.7-0.7,0.9c-0.1,0.4-0.3,0.8-0.3,1.2c0,0,1.3,0.5,1.7,0.7c0.4,0.1,0.8,0.3,1,0.5c0.1,0.1,0.4,0.3,0.5,0.3
		c0.3,0,0.1,0.1,0.8-0.3c0.5-0.3,1.2-0.4,1.7-0.3c-0.8-0.8-1.7-1.4-2.7-1.7c0.5,0,1,0.1,1.6,0.4c-0.1-0.3-0.1-0.5-0.1-0.9
		c0.1-0.3,0.3-0.5,0.5-0.9c0.1-0.4,0.3-0.7,0.3-1s0-0.7,0-0.9s0.1-0.4,0.1-0.7c0,0.4,0,0.8,0,1.2c0,0.5,0.1,0.9,0,1.4
		c0,0.4-0.3,0.5-0.4,0.7c-0.1,0.3-0.1,0.7,0,0.9c0.1,0.1,0.1,0.4,0.3,0.5c0.5,0.4,1,0.9,1.4,1.4l0.1,0.1c-0.1-0.7-0.1-1.2,0-1.8
		c0.1-0.5,0.3-0.9,0.3-1.4c0.3,0.8,0.3,1.6,0,2.2c0,0.5,0,1.2,0.1,1.7c0.1,0.1,0.1,0.4,0.3,0.5c0-0.5,0-1,0.1-1.4s0.3-0.8,0.7-1.2
		c0.3-0.7,0.4-1.4,0.3-2.2c0.1,0.5,0.3,0.9,0.3,1.4s0,1-0.1,1.4c-0.1,0.3-0.5,0.8-0.7,1c-0.1,0.5-0.1,1-0.3,1.4
		c0.1,0.4,0.3,0.7,0.4,0.8c0.3,0.5,0.7,1,1,1.6c0.1,0.3,0.3,0.5,0.4,0.8C26.1,45.8,26.1,46.1,26.1,46.4z M17.3,38.3
		c0.3-0.4,0.5-0.8,0.7-1.2c0.1-0.4,0.4-0.9,0.7-1.6c0.3-0.8,0.7-1.4,1.2-2.1c-0.4,0.8-0.7,1.6-0.9,2.5l0,0c-0.1,0.5-0.3,1-0.5,1.4
		C18.3,37.5,17.7,38.3,17.3,38.3z M20.6,36.7c0,0.4-0.1,0.8-0.4,1c-0.4,0.4-0.9,0.7-1.4,0.9c-0.1,0.1-0.4,0.3-0.5,0.4
		c0-0.1,0.1-0.3,0.3-0.5c0.1-0.1,0,0,0.1-0.1s1.3-0.7,1.6-1.4s0.8-2.1,0.8-2.1C20.9,35,20.7,36.3,20.6,36.7z"/>
	<path class="st0" d="M22.5,42.4c-0.3,0.4-0.3,0.9,0.1,1.3c0.3,0.3,0.8,0.4,1,0.1c0.1-0.1,0.1-0.4,0.1-0.7s0.1-0.5,0.4-0.7
		c-0.3-0.4-0.4-0.8-0.7-1C23,41.7,22.6,42.1,22.5,42.4z"/>
	<path class="st0" d="M30.1,40.2c-0.1-0.5-0.3-0.9-0.7-1.3c-0.3-0.1-0.5-0.1-0.8-0.3c0,0.4-0.1,0.8-0.5,1c-0.1-0.5-0.3-1-0.7-1.6
		c-0.1,0-0.3-0.1-0.3-0.3c-0.4-0.3-0.7-0.7-1-1c0.5,0.8,0.8,1.6,1,2.3c0.3,0.3,0.7,0.5,1,0.7c0.7,0.3,1.7,0.5,2.2,0.7
		c0.9,0.3,1.7,0.8,2.3,1.4c0.3-0.4,0.4-0.8,0.3-1.3l0,0c-0.3-0.3-0.5-0.4-0.8-0.7c0,0.8-0.4,0.9-0.4,0.9c0-0.5-0.1-0.9-0.5-1.3
		c-0.3-0.1-0.7-0.3-0.9-0.4C30.6,39.6,30.4,40,30.1,40.2z"/>
	<path class="st0" d="M30.4,43.6c0,0.3,0,0.5,0,0.7c-0.1,0.1-0.3,0.4-0.4,0.5l0,0c0.3,0.3,0.5,0.4,0.9,0.5c0.1-0.1,0.3-0.4,0.4-0.5
		c0-0.3,0-0.4,0-0.7c-0.3-0.1-0.5-0.3-0.8-0.5H30.4z"/>
	<path class="st0" d="M28.6,43.6c0.3,0.1,0.5,0.4,0.8,0.7c0.1-0.1,0.3-0.3,0.4-0.4c0.1-0.3,0.1-0.5,0-0.8c-0.3-0.3-0.5-0.5-0.8-0.7
		C29,42.8,28.9,43.4,28.6,43.6z"/>
	<path class="st0" d="M34.1,43.4c-0.3,0-0.5,0-0.7-0.1c0.1,0.3,0,0.5,0,0.8c0.4,0.1,0.8,0.4,0.9,0.9c0.3-0.4,0.4-0.8,0.4-1.2
		c0-0.1,0-0.4-0.1-0.5C34.4,43.2,34.2,43.4,34.1,43.4z"/>
	<path class="st0" d="M32.8,44.4c-0.3,0-0.7,0-0.9,0c0.1,0.3,0.1,0.4,0.1,0.7c0,0.1-0.1,0.4-0.1,0.5c0.5,0,0.9,0,1.4-0.1l0,0
		c0-0.1,0-0.4,0-0.5C33.2,44.8,33.1,44.5,32.8,44.4z"/>
	<path class="st0" d="M27.5,41.5c0,0,0.3,1.2,0.3,1.4l0.3,0.1c0.3-0.4,0.4-0.9,0.1-1.3C27.8,41.8,27.7,41.7,27.5,41.5z"/>
	<path class="st0" d="M33.8,42.7c0.1-0.1,0.4-0.3,0.4-0.5c-0.1-0.4-0.4-0.7-0.7-0.9c-0.1,0.4-0.4,0.7-0.8,0.8
		c0.1,0.3,0.4,0.5,0.4,0.8C33.4,42.8,33.7,42.8,33.8,42.7z"/>
	<path class="st0" d="M11.4,20.7c1.2,0.1,2.2,0.1,3.4,0c0.4-0.1,1.2-1.2,1.2-1.2c0.4,0,0.8,0.4,1,0.7s0.4,0.7,0.7,0.8s0.5,0,0.9-0.1
		c0.3-0.1,0.5-0.3,0.7-0.4l0.1-0.5c0.1-0.5,0-0.5,0-0.5l-0.3-0.3c0.1-0.3,0.1-0.5,0.1-0.9c0,0-0.1-0.3-0.1,0c0,0.1-0.1,0.3-0.3,0.5
		c0,0,0-0.3-0.1-0.3s-0.3,0-0.4,0c0-0.3-0.1-0.1-0.1-0.1c-0.3-0.5-0.5-1.2-0.5-1.7c0-0.4,0.1-0.8,0.3-1c0.1,0.7,0.3,0.5,0.3,0.5V16
		c0,0-0.1,0.1-0.1-0.1c-0.1-0.5-0.3-0.9-0.4-1.3l0,0c0-0.3,0.1-0.4,0.3-0.4c0,0,0,0,0.1,0c0.3,0.7,0.3,1.3,0.1,1.8
		c0.1-0.3,0.1-0.7,0.1-0.9c0,0,0.5-0.5,0.7-0.4c0.1,0.1,0,0.9,0.1,1.2s0.1,0.1,0.1,0.1c0.3-0.7,0.4-1.3,0.3-2c0,0,0-0.1,0-0.3
		c0.1-0.1,0.3-0.3,0.1-0.4l0,0c-0.1-0.1-0.4-0.4-0.5-0.5c0.1-0.3,0.1-0.3,0-0.4c-0.1-0.1-0.4-0.1-0.4-0.1c-0.4,0-0.7,0-1,0.1
		c-0.4,0-0.8,0-1.2,0C16.4,12.1,16.3,12,16,12c-0.3,0.1-0.5,0.3-0.7,0.5c-0.1,0-0.4,0-0.5,0c-0.3,0-0.4-0.1-0.5-0.1
		c-0.3,0.1-0.5,0.3-0.8,0.4c-0.8,0.3-1.4,0.5-2.1,0.9c-0.4,0.4-0.8,0.7-1.2,0.9c-0.3,0.1-0.4,0.3-0.5,0.5l1.7-0.3
		C10.7,16.8,10.5,18.9,11.4,20.7z M16.3,16c0.3-0.8,0.7-1.4,1.3-2c-0.5,0.7-0.9,1.4-1.2,2.2c0.1,0.9,0.4,1.8,0.9,2.5
		C16.6,18,16.3,16.9,16.3,16L16.3,16z M17.4,17.2c0.3,0.3,0.5,1.2,0.8,1.2l0,0c-0.1,0.1-0.3,0.3-0.4,0.4s-0.4-0.3-0.5-0.3
		c-0.1-0.3-0.3-0.5-0.4-0.8c0-0.3-0.3-0.4-0.3-0.4s0.1-0.1,0.3,0C17.2,17.1,17.3,17.1,17.4,17.2z M19.4,19.4c-0.3,0.3-0.7,0.4-1,0.5
		c-0.4,0.1-0.4,0-0.5-0.1s-0.4-0.4-0.5-0.5V19c-0.1-0.1-0.5-0.7-0.7-0.8l0,0l0,0l0,0l0.8,0.7c0,0,0.3,0.3,0.3,0.4s0.3,0.3,0.5,0.3
		s0.9-0.4,0.9-0.4S19.5,19.3,19.4,19.4z M18.5,18.4c0.1,0,0.3,0,0.4,0s0.1,0.3-0.3,0.4l0,0h-0.1C18.5,18.6,18.5,18.5,18.5,18.4z
		 M18.5,18.2c0,0.3,0,0.5,0,0.8l0.1-0.1h0.1h0.1H19h0.1c0.1-0.1,0.3-0.4,0.4-0.7c0.1,0.1,0,0.8-0.1,0.8l0,0h-0.1l0,0
		c-0.3,0.1-0.4,0.1-0.7,0.3l0,0c0,0,0,0,0,0.1c-0.3,0-0.5-0.1-0.5-0.4C18.1,18.9,18.3,18.6,18.5,18.2z M17.9,15.1L17.9,15.1
		c-0.1,0.4-0.3,0.8-0.3,1.2c0,0.7,0.3,1.3,0.7,1.8c0,0.1,0,0.1,0,0.1l0,0l-0.1-0.1c-0.4-0.5-0.5-1-0.7-1.7
		C17.6,15.9,17.7,15.5,17.9,15.1z M18.5,14.6L18.5,14.6c0-0.1,0.3-0.3,0.5-0.4l0,0C18.9,14.3,18.7,14.5,18.5,14.6z M19.4,15.4
		c0-0.4-0.1-0.9-0.3-1.3V14c0,0,0,0-0.1,0s-0.5,0-0.5,0l-0.1,0.1l0,0c0-0.1-0.1-0.1-0.1-0.3c0-0.1,0-0.1,0-0.1
		c0.1,0,0.4-0.1,0.5-0.1s0.3,0,0.4,0.1v0.1c0.1,0,0.1,0,0.3,0C19.6,14.5,19.5,15,19.4,15.4z M19.5,13c0.4,0.3,0.1,0.5,0.1,0.5l0,0
		v0.1c-0.1-0.1-0.4-0.1-0.5-0.3c0-0.3,0-0.4,0-0.7C19,12.8,19.1,12.6,19.5,13z M18.1,12.2c0.3-0.1,0.7-0.1,0.9-0.1
		c0.4,0.3-0.1,0.5-0.1,0.5l0,0C18.6,12.2,18.1,12.4,18.1,12.2C17.9,12.4,17.9,12.2,18.1,12.2L18.1,12.2z M16.1,13.8
		c-0.3,0-0.3-0.5-0.3-0.5c0,0.1,0.1,0.3,0.3,0.3c0.5,0.1,0.9-0.1,1.2-0.5c-0.3,0.1-0.8,0.3-1,0.1c-0.3-0.1,0-0.4,0-0.4
		c0.3,0.3,0.8,0.3,1-0.1c-0.3,0-0.5,0-0.7,0c0,0-0.1,0,0.1-0.1c0.7-0.1,1.2,0,1.7,0.1l0,0c0.3,0.1,0.1,0.8,0.1,0.8
		c-0.9,0.1-1.7,0.5-2.3,1c-0.4,0-0.7-0.3-0.7-0.7c0.7,0.7,1.4-0.3,1.4-0.3C16.9,13.8,16.5,13.9,16.1,13.8z M13.4,13.2
		c0.3-0.3,0.5-0.5,0.9-0.5c0.1,0,1.3,0.4,1.3,0.4l0,0c0,0.1-0.1,0.3-0.3,0.3c-0.4,0-0.8,0-1-0.1l-0.7,0.5c-0.1,0.3-0.1,0.4-0.3,0.5
		l-0.1,0.1c0.1,0,0.3,0,0.3-0.1c0.3,0.1,0.7,0.1,0.9,0c0.4-0.1,0.4-0.8,0.4-0.8c0.3,0.4,0,0.9-0.4,1s-0.9,0.1-1.3,0
		c0,0-0.1,0-0.1-0.1c-0.1,0-0.3,0.1-0.4,0.1C12.9,13.9,13.1,13.5,13.4,13.2z M14.7,13.4c0,0.9-0.9,0.5-0.9,0.5l0,0
		c0.1-0.3,0.3-0.7,0.7-0.7L14.7,13.4z M12.6,14.6c0.1,0.4,0.5,0.5,0.8,0.5l0,0c0.4,0,1-0.4,1-0.4s-0.8,1-1.3,0.9
		S12.6,14.6,12.6,14.6z M12.5,14.2C12.5,14.2,12.5,14.3,12.5,14.2c0,0.1-0.4,1.8,0.5,2c1,0.3,1.7-1.4,1.7-1.4c0,0.7-0.4,1.3-0.9,1.7
		c0,0-0.1,0.4,0,0.5s0.5,0.1,0.8-0.5c0.1-0.4,0.3-0.7,0.7-0.9c-0.3,0.5-0.5,1.2-0.5,1.7c-0.1,0.4,0,0.8,0.3,1
		c-0.4-0.1-0.4-0.3-0.5-0.4s-0.1-0.5-0.5-0.7c-0.4-0.1-0.7,0.4-0.7,0.4s-0.3-0.4,0-0.5s0.1-0.5,0.1-0.5s-0.4,0.4-0.9-0.4
		C12,15.5,12.5,14.5,12.5,14.2C12.5,14.3,12.5,14.2,12.5,14.2L12.5,14.2z M12.2,14.3L12.2,14.3L12.2,14.3c-0.3,1-0.4,2-0.4,3
		c0.1,0.7,0.4,0.8,0.5,0.8c0.3,0.1,0.5,0.1,0.8,0s0.5-0.5,0.8-0.1c0,0-0.5,0-0.4,0.5c0.1,0.4,0.4,0.7,0.8,0.5c0.1,0,0.4-0.3,0.7-0.3
		c0.3-0.1,0.5,0,0.7,0.1c0.3,0.3-0.1,0-0.3,0.1c-0.1,0.1-0.5,0.4-0.8,0.7c-0.4,0.3-0.8,0.4-1.3,0.3s-0.9-0.4-1.2-0.8
		c0.1,0,0.3,0.1,0.4,0.1c0.1,0.1,0.4,0.3,0.5,0.3c0.3-0.1,0.4-0.1,0.7,0c0-0.4-0.3-0.7-0.7-0.7c-0.5-0.1-0.9-0.1-1.2-0.4
		c-0.1-0.3-0.3-0.8-0.3-1.2C11.6,16.3,11.8,15.4,12.2,14.3C12.2,14.5,12.2,14.3,12.2,14.3z"/>
	<path class="st0" d="M7.9,32c-0.3-0.5-0.3-0.8-0.4-1c-0.1-0.3-0.5-0.8-0.7-1s-0.4-0.5-0.7-0.8c0-0.2,0-0.3-0.1-0.4
		c0,0.7-0.1,1.3-0.3,2c0,0,0,0.1,0,0.4L6.5,32c0.1,0.1,0.3,0.5,0.4,0.7c0.3,0.4,0.5,0.7,0.9,0.9c0,0-0.4,0.1-0.8-0.5
		c-0.4-0.7-0.4-0.5-0.5-0.7c0,0-0.3-0.1-0.4-0.1c0.1,0.7,0.4,1.4,0.7,2l0.1,0.3l0,0c0.3,0.3,0.5,0.4,0.8,0.7
		c0.1,0.1,0.5,0.8,0.7,0.9c0.1,0.3,0.3,0.4,0.4,0.7c0.1,0.1-0.5-0.4-0.5-0.4s-0.7-0.8-0.9-1l0,0c0,0.4,0,0.7,0,1
		c0.8,2.3,1.2,4.8,1.4,7.3c0.4-0.7,0.8-1.2,1.2-1.8c0,0,0.1-0.5,0.3-1.3c-0.3-0.4-0.5-0.8-0.7-1.2c0.3,0.3,0.5,0.5,0.8,0.7
		c0-0.1,0-0.3,0.1-0.4c-0.3-0.5-0.7-0.8-1.2-0.9C9,38.3,8.7,38,8.6,37.8l0.5,0.4c0.3,0.1,0.5,0.3,0.9,0.4c0.3,0.1,0.4,0.3,0.7,0.4
		c0.1-0.7,0.4-1.3,0.5-1.8c-0.1,0-0.4-0.1-0.7-0.3c-0.4-0.1-0.8-0.3-1.2-0.5c-0.3-0.3-0.4-0.5-0.5-0.8l0.7,0.7
		c0.3,0.1,0.5,0.3,0.8,0.3l1,0.3c0.1-0.3,0.1-0.5,0.3-0.7c0-0.8,0.3-1.4,0.7-2c1.2-0.8,2.3-1.3,3.5-1.8c0.5-0.4,0.9-0.8,1.3-1.2
		c0.4-0.7,0.8-1.3,1-2.1c0.1-0.4,0.1-0.7,0.1-0.9c0-0.3,0-0.5,0-0.8c-0.1-1-0.4-2.1-0.7-3c0,0.4,0,0.9-0.1,1.3
		c-0.3,0.9-0.8,1.7-1.4,2.3c-0.9,0.4-1.8,0.8-2.7,1c-0.7,0.4-1.2,0.9-1.6,1.6c0.1-0.7,0.5-1.3,1-2c0.5-0.4,1.2-0.8,1.8-0.9
		c0.5-0.1,0.9-0.4,1.3-0.7c0.5-0.5,0.9-1,1.4-1.6c0.1-0.3,0.3-0.7,0.3-0.9c0-0.1,0-0.3-0.1-0.5c-0.1-0.3-0.4-0.5-0.7-0.8l0,0
		l-0.1,0.4c-0.3,0.5-0.5,1-0.8,1.6c-0.3,0.4-0.7,0.5-1,0.8c-0.8,0.3-1.6,0.7-2.3,1c-0.3,0.1-0.4,0.4-0.5,0.7
		c0.1-0.4,0.3-0.7,0.5-0.9c0.4-0.4,1.8-1,2.1-1.3c0.4-0.3,0.7-0.5,1-0.8c0.4-0.5,0.7-1.2,0.9-1.8v-1.6c-0.3,0.5-0.5,0.9-0.8,1.3
		c-0.3,0.5-0.7,0.9-1,1.3c-0.1,0.1-1,0.5-1.2,0.7c-0.4,0.3-0.7,0.5-0.9,0.9c0,0.3-0.3,0.5-0.3,0.5c0-0.3,0.1-0.7,0.3-0.9
		c0.3-0.4,0.4-0.8,0.8-1c0.3-0.1,0.9-0.5,1.2-0.7c0.8-0.8,1.4-1.7,2.1-2.6V20c0,0-1.6,1-1.8,1.2c-1.3,0.3-2.6,0.3-3.9,0.3
		c-0.5-1.6-0.7-3.1-0.4-4.6c-0.5,0-1,0-1.4-0.3c-0.7-0.4-0.5-0.4-0.8-0.4c0.4,0.1,0.9,0.3,1.4,0.3c0.3,0,0.7,0,0.9-0.1
		c0.1-0.4,0.4-0.9,0.7-1.2c-1,0-2,0.1-2.9,0.5c-0.9,0.5,0,0.7,0,0.7l0.3,0.3c-0.8,0.8-1.3,1.7-1.7,2.6c-0.4,1.3-0.5,2.6-0.5,3.9v0.4
		c0,0.6,0.3,1.4,0.4,1.7c0.1,0.4,1,2.1,1,2.1c0.1,0.3,0.3,0.7,0.3,0.9c0.1,0.5,0.3,2.5,0.4,2.9c0,0.1,0,0.1,0,0l0,0
		c-0.1-0.3-0.5-1.4-0.7-1.8c-0.3-1-0.7-2-1.3-2.9c-0.1-0.4-0.3-0.7-0.3-1c0-0.1,0-0.3-0.1-0.5c0,0.5-0.3,1-0.5,1.4c0,0.4,0,0.7,0,1
		c0.1,0.5,0.3,0.9,0.5,1.3c0.3,0.4,0.8,1,0.8,1.2s0.4,0.7,0.5,0.9s0.3,0.8,0.3,0.9s0.5,0.9,0.5,0.9C8.3,32.6,8.1,32.3,7.9,32z
		 M10.1,17.2L10.1,17.2C10,18,10,18.6,10,19.4c-0.3-0.7-0.4-1.4-0.4-2.2C9.9,17.2,10,17.2,10.1,17.2z M9,16.9L9.1,17
		c-0.1,0.3-0.3,0.6-0.3,1c0,0.8,0,1.6,0.1,2.5c0,0.3,0.1,0.7,0.3,0.9c0,0,0,0.3,0.4,0.3s0.5-0.1,0.7-0.1c0.1,0,0.1,0,0.3,0.3
		c0.4,0.7,0.9,1.3,1.4,2c0.1,0.1,0.3,0.1,0.1,0.1c0,0-0.1,0-0.1-0.1c-0.5-0.4-1-0.9-1.4-1.4l0,0c-0.1-0.1-0.3-0.1-0.5-0.1
		c-0.3,0.1-0.5,0.1-0.8,0.4l-0.1,0.1c-0.1,0-0.1-0.1-0.3-0.1c-0.3-0.4-0.4-0.9-0.5-1.3c0-0.4,0.1-2.6,0.1-3.1
		C8.7,17.6,8.8,17.2,9,16.9z M8.4,24.2c-0.1,0.1-0.3,0.3-0.3,0.3c-0.3-0.3-0.5-0.7-0.7-0.9c-0.1-0.3-0.3-0.7-0.3-0.9
		c0-1.3,0.1-2.5,0.4-3.6c0.1-0.8,0.4-1.3,0.8-1.8l0,0l0,0l0,0c-0.3,0.5-0.4,1-0.5,1.6c0,0.5-0.1,2.1-0.1,2.6c0,0.7,0.3,1.3,0.5,1.8
		c0.1,0.3,0.5,0.1,0.9,0.3c0.7,0.5,1.2,1,1.6,1.7c0.1,0.3,0.3,0.7,0.3,0.9c-0.1-0.4-0.4-0.7-0.7-1s-0.9-0.9-1.2-0.9
		S8.6,24.2,8.4,24.2z"/>
	<path class="st0" d="M12.7,43.6c0.8-0.8,1.6-1.7,2.2-2.6c-0.8,1-2,1.7-3.3,2.1c-0.7,0.3-1.6,0.5-1.6,0.5c0.5-0.7,2.3-1,3.4-1.7
		c0.8-0.5,1.4-1.2,2-2c0.3-0.5,0.4-1.2,0.5-1.7c0.1-0.4,0.4-0.8,0.7-1c0,0-0.1-2-0.1-2.2s1-2.1,1.2-2.3c0.3-1.2,0.4-2.5,0.4-3.6
		c-0.3,0.8-0.7,1.4-1,2.1s-0.8,1.2-1.3,1.7c-0.3,0.3-0.4,0.3-1.6,0.9c-0.8,0.4-1.6,1-2.2,1.7c0.1-0.1,0.3-0.3,0.3-0.3
		c-0.4,0.5-0.8,1-0.9,1.7c-0.4,1.2-0.8,3.8-1,4c1.7-1.7,3-3.6,4-5.7c-0.8,2.1-2,4.2-3.4,5.9c-1.3,1.4-2.3,3-3.1,4.7
		c-0.3,0.1-0.7,0.4-0.9,0.5c-0.1,0-0.5,0.5-0.5,0.5s-0.1,0.4,0.1,0.5c-0.4,0.3-0.7,0.4-1,0.5H5.3c0.1,0.1,0.3,0.1,0.3,0.1
		c0.3-0.1,0.4-0.1,0.7-0.1s0.5,0.1,0.5,0.4c0.3-0.3,0.5-0.4,0.8-0.4s0.5,0.1,0.7,0.3c0.3-0.1,0.5-0.3,0.8-0.3s0.5,0.1,0.8,0.3
		l0.4,1.8c0.3-0.3,0.4-0.7,0.3-0.9c-0.1-0.4-0.1-0.9,0-1.3s0.4-0.8,0.7-1c0.3-0.9,0.7-1.7,1.2-2.5c-0.4,0.1-0.9,0.3-1.3,0.4
		c-0.7,0.1-1.3,0.3-1.8,0.5c0.9-0.5,1.8-0.8,2.9-0.9C12.2,44,12.5,43.9,12.7,43.6z"/>
	<path class="st0" d="M9,47.9c-0.3,0-0.5,0.1-0.7,0.3v1.6h0.9c-0.1-0.3-0.3-0.8-0.4-1c-0.1-0.3,0-0.3,0.1-0.3c0,0,0.1,0,0.3,0.1
		c0.1,0.4,0.1,0.9,0,1.3H10l-0.4-1.7C9.5,48,9.2,47.9,9,47.9z"/>
	<path class="st0" d="M7.5,47.9c-0.3,0-0.7,0.1-0.8,0.5l-0.1,1.4h0.7l0,0c0-0.4,0-0.9,0-1.3c0-0.1,0.1-0.1,0.3-0.1
		c0.1,0,0.1,0.3,0.1,0.3c-0.1,0.4-0.1,0.9-0.3,1.3h0.8c0-0.5,0-1.6,0-1.6S8.1,47.9,7.5,47.9z"/>
	<path class="st0" d="M6.1,47.9c-0.3,0-0.5,0-0.7,0.1c-0.4,0.5-0.5,1.2-0.5,1.8h0.7c0-0.1,0-0.4,0-0.5c0-0.3,0.1-0.5,0.1-0.8
		c0-0.1,0.1-0.1,0.3-0.1c0,0,0.1,0,0.1,0.1s-0.3,0.8-0.3,0.8c-0.1,0.1-0.1,0.4-0.1,0.5l0,0h0.8c0-0.5,0-1,0-1.6
		C6.5,48.3,6.4,47.9,6.1,47.9z"/>
	<path class="st0" d="M4.8,47.7c-0.1,0.1-0.7,0.5-0.7,0.8C3.9,49,3.9,49.3,4,49.9h0.7c0-0.7,0.3-1.3,0.7-2
		C5.2,47.8,5.1,47.8,4.8,47.7z M4.4,49c-0.1,0.3-0.3,0.5-0.3,0.9c0-0.3,0-0.7,0-0.9l0,0c0-0.4,0.1-0.8,0.4-0.8c0,0,0.1,0,0.1,0.1
		C4.7,48.6,4.5,48.8,4.4,49z"/>
	<path class="st0" d="M11.7,48c0.1-0.9,0.1-1.8,0-2.7l-0.3,1.4c-0.4,0.3-0.7,0.7-0.9,1c0,0.5,0,1,0.3,1.4l-0.3,0.5h1
		c0.4-0.1,0.5-0.5,0.4-0.9C12,48.7,11.8,48.3,11.7,48z"/>
	<path class="st0" d="M19.5,9.2c0.3,0,0.5,0,0.8-0.1s0.5-0.4,0.9-0.5s0.7,0.1,1,0.1s0.5,0,0.7-0.3c0.1-0.3,0-0.5-0.1-0.7
		c-0.1,0.3-0.3,0.4-0.5,0.4s-0.4,0-0.7,0s-0.4,0-0.7,0.1c-0.3,0.1-0.4,0.3-0.7,0.4C20,9,19.8,9.1,19.5,9.2C19.2,9.1,19,9,18.9,8.9
		C19,9.1,19.2,9.2,19.5,9.2z"/>
	<path class="st0" d="M25.9,4.7c0.4,0,0.7-0.1,1-0.4s0.5-0.5,0.7-0.9c0.1-0.3,0.3-0.5,0.3-0.5L28,3.4c0.3-0.5,0.4-1,0.5-1.7
		c0.1-0.4,0.1-0.8,0.1-1.2C28.5,0.3,28.1,0,27.8,0c-0.3,0-0.5,0.3-0.5,0.5c0,0.1,0.1,0.4,0.4,0.4c0,0.7-0.3,1.2-0.5,1.7
		c-0.3,0.5-0.7,1-1,1.4c-0.1,0.1-0.3,0.3-0.4,0.4c0,0.1,0,0.1-0.1,0.3h0.1C25.8,4.7,25.9,4.7,25.9,4.7z"/>
	<path class="st0" d="M28.4,3.6c-0.1,0.1-0.1,0.1-0.3,0.3c0,0.4-0.1,0.7-0.3,1c-0.1,0.1-0.1,0.3-0.3,0.4l0,0c0.3,0,0.5-0.1,0.8-0.1
		c0.7-0.5,1.2-1.3,1.4-2.1c0.1-0.3,0.3-0.7,0.4-1c0-0.4-0.3-0.7-0.5-0.7c-0.3,0-0.4,0.1-0.5,0.3c0,0.3,0,0.4,0.1,0.5
		C29,2.7,28.8,3.3,28.4,3.6z"/>
	<path class="st0" d="M21.6,5.7c-0.3,0.3-0.4,0.7-0.5,0.9c-0.4,0.4-0.9,0.7-1.4,0.7s-1,0-1.6,0C17.8,7,17.4,7,17,6.9
		c-0.4,0-0.7,0.1-0.9,0.4c-0.1,0.3-0.1,0.7,0,1c0.1,0.1,0.1,0.3,0.3,0.3c0.1,0.4,0.5,0.8,0.9,0.9C17.2,9.4,17,9.1,16.9,9
		c0-0.1,0-0.1,0-0.3c0.1,0,0.3,0,0.3,0c0.4-0.1,0.9-0.3,1.3-0.4c0.5,0,1.4,0.3,2.3-0.3c0.5-0.3,0.9-0.4,1.3-0.4
		c0.8,0,1.2,0.7,0.7,1.2c-0.4,0.3-0.8,0.4-1.3,0.4c-0.4,0-0.7,0-1,0c-0.7,0.3-0.8,1.2-1.4,1.6c-0.1,0.1-0.3,0.1-0.4,0.1
		c-0.3-0.3-0.4-0.7-0.1-0.9c-0.3,0.1-0.4,0.3-0.5,0.5s-0.1,0.5,0,0.8c0.1,0,0.3,0.1,0.4,0.3c0,0,0.4,0,0.8,0v-0.1c0,0,0.1,0,0.1,0.1
		c0.1,0,0.1,0,0.3,0c0.3-0.1,0.7-0.3,1-0.1l0,0v-0.1c0-0.5,0.3-0.9,0.7-1s0.8-0.1,1,0c0.5,0.3,0.5,1,0.9,1.4
		c0.1,0.1,0.4,0.3,0.7,0.4s0.4,0.1,0.7,0.3c0.1,0.1,0.3,0.3,0.3,0.4c0-0.1,0-0.4-0.1-0.5s-0.3-0.3-0.5-0.3c-0.4-0.3-0.5-0.8-0.3-1.2
		l0.1-0.1c-0.1,0.3,0,0.7,0.3,0.8s0.5,0.3,0.9,0.3c0.3,0,0.7,0.1,0.9,0.3c0.3,0.1,0.4,0.5,0.3,0.8c0.1-0.1,0.3-0.4,0.3-0.5
		c0-0.3,0-0.4-0.3-0.5c-0.1-0.1-0.4-0.3-0.5-0.3s-0.4-0.1-0.5-0.3c-0.1-0.1-0.1-0.4-0.1-0.7c0.1,0.3,0.5,0.4,0.8,0.5
		c0.4,0,0.7,0,1,0c0.4,0,0.7,0.1,0.9,0.4c0.1,0.1,0.3,0.4,0.1,0.5c0.3-0.3,0.3-0.5,0.1-0.8c-0.1-0.3-0.4-0.4-0.5-0.5
		c-0.3-0.1-0.5-0.1-0.8-0.3c-0.4-0.1-0.7-0.4-0.9-0.8c0.1,0.1,0.4,0.3,0.5,0.3c0.5,0.1,1,0.1,1.4,0c0.4-0.3,0.9-0.5,1.3-0.7
		C29.5,9,30.1,8.9,30.6,9c0.5,0,0.9,0.3,1.2,0.8c0-0.5-0.4-0.9-0.9-1s-1-0.3-1.4-0.1C29,8.8,28.6,9,28.1,9c-0.3,0-0.5,0-0.8-0.1
		s-0.4-0.3-0.4-0.7c0.7,0.4,1.4,0.4,2.1,0.1c0.7-0.3,1.3-0.5,2.1-0.7c0.8-0.1,1.4,0.1,2,0.7c-0.1-0.5-0.5-1-1-1.2
		c-0.5-0.1-1-0.1-1.6,0c-0.5,0.1-1,0.3-1.6,0.4s-1,0-1.6-0.3c0.7,0.1,1.4,0,2-0.4c0.4-0.3,0.8-0.7,1-0.9c0.3-0.4,0.7-0.7,1.2-0.8
		C31.9,5,32.4,5,32.8,5.2c-0.4-0.5-1-0.8-1.7-0.7c-0.7,0.1-1.2,0.4-1.7,0.8S28.4,6,27.7,6c-0.3,0-0.4,0-0.7,0
		c0.3-0.1,0.5-0.4,0.7-0.8C27.8,4.8,28,4.4,27.8,4c-0.1,0.4-0.4,0.8-0.7,0.9c-0.4,0.3-0.8,0.3-1.2,0.4c-0.3,0-0.5,0.1-0.8,0.1
		c-0.1,0-0.1,0-0.3,0.1c0.4-0.3,0.5-0.7,0.7-1.2c0.1-0.4,0-0.9-0.3-1.3c0.1,0.4,0,0.8-0.3,1.2c-0.4,0.5-1,0.9-1.7,1
		C22.6,4.9,22.1,5.3,21.6,5.7z M16.6,7.9L16.6,7.9c0-0.4,0.3-0.5,0.4-0.6c0,0.1-0.1,0.3,0,0.5c0,0.1,0.1,0.3,0.1,0.4
		C16.9,8.2,16.8,8.1,16.6,7.9z M21.7,6.6c0.1,0,0.1-0.1,0.3-0.3c0-0.1,0.1-0.1,0.1-0.3c0.1,0,0.3,0,0.4,0s0.3,0,0.4-0.1l0,0l0,0
		c0,0.3-0.1,0.5-0.4,0.7C22.2,6.8,22,6.8,21.7,6.6L21.7,6.6L21.7,6.6z M24.3,6.6L24.3,6.6C24.3,6.5,24.3,6.5,24.3,6.6
		c0.1,0.3,0.1,0.4,0,0.7c0,0.1-0.1,0.1-0.1,0.3l0,0c-0.1,0-0.1,0.1-0.3,0.1c0.4,0,0.8-0.3,1.2-0.1c0.4,0,0.8,0.3,0.9,0.7
		c0,0.1,0,0.1,0,0.3l0,0l0,0c-0.3-0.1-0.5-0.3-0.8-0.1c-0.3,0-0.4,0.3-0.7,0.4l0,0C24.4,9,24.2,9.2,24,9.3c0.1,0,0.4,0,0.5,0l0,0
		l0,0C24,10,23.2,10.2,22.4,10c-0.5,0-0.9,0-1.3,0.3c-0.4,0.1-0.8,0.4-1,0.8l0,0l0,0c0.3-0.4,0.7-0.8,1.2-1c0.1-0.1,0.3-0.1,0.5-0.3
		c0.8-0.1,1.6,0.3,2.2-0.3c-0.3,0-0.7-0.1-0.8-0.3l0,0l0,0c0.4,0,0.7-0.1,0.9-0.4l0,0C24.5,8.4,24.9,8,25.5,8
		c-0.4-0.4-0.9-0.3-1.3-0.1C23.8,8,23.4,8,23.3,7.8l0,0l0,0c0.3,0,0.5-0.1,0.8-0.4c-0.5,0.4-1.2,0.1-1.7,0.1c-0.7,0-1.2,0.4-1.8,0.4
		l0,0l0,0c0.4-0.1,0.8-0.3,1.2-0.5C22.2,7,22.6,7,23,7.2c0.5,0,0.8,0,1.2-0.3C24.2,6.8,24.2,6.8,24.3,6.6z"/>
	<path class="st0" d="M22,6.4c0-0.1,0.1-0.1,0.1-0.3C22.2,6,22.4,6,22.5,6s0.3,0,0.4-0.1l0,0c-0.1,0-0.3,0.1-0.4,0.1s-0.3,0-0.4,0.1
		C22.1,6.3,22,6.4,22,6.4c0,0.1-0.1,0.1-0.3,0.3l0,0C21.9,6.6,22,6.5,22,6.4L22,6.4z"/>
	<path class="st0" d="M24.2,7.8c-0.3,0-0.7,0-0.8-0.3l0,0C23.5,7.8,23.9,7.8,24.2,7.8c0.4-0.1,0.9-0.3,1.3,0.1l0,0
		C25.2,7.6,24.7,7.7,24.2,7.8z"/>
	<path class="st0" d="M24.3,7.2c0,0.1-0.1,0.1-0.1,0.3C24.2,7.3,24.3,7.3,24.3,7.2z"/>
	<path class="st0" d="M22.4,7.2c-0.7,0-1.2,0.4-1.8,0.4l0,0C21.2,7.6,21.7,7.2,22.4,7.2c0.5,0,1.2,0.3,1.7-0.1l0,0
		C23.5,7.4,22.9,7.3,22.4,7.2z"/>
	<path class="st0" d="M23.2,9L23.2,9c0.3,0.1,0.5,0.3,0.8,0.3l0,0C23.7,9.2,23.4,9.2,23.2,9z"/>
	<path class="st0" d="M25.1,8.2c-0.3,0.1-0.4,0.3-0.7,0.4C24.7,8.5,25,8.2,25.1,8.2c0.3-0.1,0.5,0,0.8,0.1l0,0
		C25.8,8.2,25.5,8.1,25.1,8.2z"/>
	<path class="st0" d="M21.3,9.8c-0.5,0.3-0.9,0.7-1.2,1l0,0C20.4,10.3,20.8,10,21.3,9.8z"/>
	<path class="st0" d="M22.5,9.6c-0.5,0-0.9,0-1.3,0.3C21.6,9.8,22,9.6,22.5,9.6c0.8,0.3,1.6,0,2.1-0.7l0,0
		C24.1,9.6,23.3,9.9,22.5,9.6z"/>
	<path class="st0" d="M24.1,9c0.3-0.1,0.4-0.3,0.5-0.4C24.3,8.7,24.2,9,24.1,9L24.1,9z"/>
	<path class="st0" d="M23.9,7.6c0.1,0,0.3-0.1,0.3-0.1C24.1,7.6,24.1,7.6,23.9,7.6L23.9,7.6z"/>
	<path class="st0" d="M24.3,6.6L24.3,6.6c-0.1,0.1-0.1,0.3-0.3,0.3C24.2,6.8,24.2,6.8,24.3,6.6z"/>
	<path class="st0" d="M22.6,4.9c0.5-0.3,0.8-0.3,1.3-0.5C24,3.9,24,3.4,23.6,3c0.1,0.3,0.1,0.4,0,0.7C23.5,4.2,23.2,4.7,22.6,4.9z"
		/>
	<path class="st0" d="M16,8.3c-0.1-0.1-0.1-0.4-0.1-0.5c-0.4,0-0.8-0.4-0.8-0.9c0-0.4,0.1-0.8,0.5-1c0.9-0.4,1.8-0.5,2.7-0.1
		c0.5,0.1,1,0.1,1.6-0.1c0.4-0.3,0.7-0.5,0.7-0.9c0.1-0.5,0.3-1,0.4-1.6c0.1-0.4,0.5-0.8,1-0.9c0.9-0.4,2.6,0.1,3-1
		c-0.4,1.2-2.1,0.7-2.9,0.9c-0.7,0.1-1,0.5-1.3,0.9c-0.1,0.5-0.4,1-0.5,1.6c-0.1,0.4-0.4,0.8-0.8,0.9c-0.5,0.1-1.2,0-1.7-0.1
		c-1-0.4-2.2-0.1-3,0.7c-0.3,0.4-0.4,0.9-0.3,1.4C14.8,7.9,15.3,8.3,16,8.3z"/>
	<path class="st0" d="M44.5,16.1c0.1,0,0.3,0,0.4,0.1c0.1,0.1,0.1,0.3,0.3,0.3c0.3,0.3,0.5,0.3,0.9,0.3c-0.3-0.1-0.5-0.3-0.7-0.5
		s-0.3-0.5-0.4-0.8c-0.3-0.4-0.8-0.8-1.3-0.8c-0.5-0.1-1-0.3-1.6-0.4c-0.1-0.1-0.4-0.3-0.3-0.4c0-0.1,0.1-0.3,0.3-0.1
		c0.1,0,0.3,0,0.4,0.1c0.3,0.1,0.7,0.1,1,0c-0.7,0-0.8-0.3-1.2-0.5c-0.4-0.3-0.9-0.3-1.3-0.3c-0.3,0-0.4,0.1-0.7,0.3
		c-0.3,0.1-0.5,0.1-0.8,0.1S39,13.2,39,13c0-0.3,0.1-0.4,0.3-0.5c0.1-0.1,0.4-0.1,0.7-0.3c-0.8,0-1.7,0.4-2.1,1
		c-0.1,0.3-0.3,0.4-0.4,0.7c-0.3,0.4-0.5,0.7-1,0.8c-0.1,0-0.7,0-0.8-0.4c-0.1-0.3,0-0.7,0.3-0.8c-0.5,0.1-0.9,0.7-1,1.2
		c0,0.5-0.3,1-0.8,1.4c-0.3,0.3-1,0.7-1.4,0.4c-0.3-0.1-0.4-0.5-0.1-0.8c0.1-0.1,0.3-0.3,0.5-0.3c-0.4-0.3-0.8,0.1-1,0.4
		c-0.3,0.3-0.5,0.7-0.9,0.8c-0.4,0-0.8-0.4-0.9-0.9c0-0.3,0.1-0.7,0.4-0.5c0.1,0.1,0.3,0.3,0.3,0.4s0.1,0.5,0.5,0.5
		c-0.1,0-0.4-0.9,0-1.4c0.4-0.4,0.9-0.8,1.4-0.9c0.1-0.1,0.4,0,0.5,0.1c0.1,0.3,0,0.4-0.1,0.7s0,0.4,0.1,0.5
		c-0.1-0.4,0.4-0.9,0.8-1.2c0.4-0.3,0.9-0.3,1.2-0.5c0.1-0.3,0.3-0.5,0.3-0.8s0.1-0.5,0.4-0.7c0.3-0.1,0.5-0.1,0.7,0.1l0,0
		c0.1,0.3,0,0.4-0.1,0.7s-0.1,0.5,0.1,0.7c0-0.7,0.8-1,1.2-1.6c0.4-0.7,0.1-1.6,0.1-2.3c0-0.3,0-0.5,0.3-0.7s0.7,0,0.8,0.4
		c0,0.3,0,0.7-0.1,0.9c0.5-0.5,0.7-1.2,0.5-1.8c-0.1-0.7-0.5-1.2-1-1.6c-0.5-0.3-0.7-0.5-0.8-0.8c0-0.3,0.3-0.5,0.5-0.4
		c0.1,0.1,0.1,0.3,0.3,0.5c0.3,0.3,0.7,0.5,1,0.4c-0.4-0.1-0.8-0.5-0.8-1c-0.1-0.4-0.3-0.9-0.7-1.2s-0.9-0.4-1.4-0.4
		c-0.5-0.1-1.3-0.4-1.2-0.7c0.3-0.4,1.2,0.1,1.4-0.7c-0.3,0.1-0.7,0.1-1,0c-0.4-0.1-0.7-0.3-0.9-0.5c-0.8-0.4-1.7-0.4-2.5-0.1
		c-0.3,0.1-0.5,0.3-0.9,0.3c-0.3,0-0.7-0.1-0.8-0.5c0-0.3,0-0.5,0.3-0.7s0.5-0.1,0.8-0.1c-0.5-0.3-1.2-0.3-1.8,0.1
		c0,0-0.1,0-0.1,0.1c0.3,0.3,0.4,0.5,0.4,0.8s-0.1,0.5-0.1,0.8c0.7,0,1.3-0.1,1.8-0.1c2-0.1,3.9,0.8,5.1,2.5c0.9,1.3,1.2,3,0.7,4.4
		c-0.7,1.4-1.8,2.6-3.3,3.3c-0.4,0.3-0.9,0.4-1.4,0.5c-0.7,0.3-1.3,0.5-2,0.9c-0.5,0.4-0.8,0.9-0.8,1.6c0.1,1.3,1.7,1.4,2,1.4
		c1.3-0.1,2.5-0.7,3.4-1.6c1.2-1,2.6-1.7,4-2c0.1,0,0.3,0,0.3,0c1.3,0,2.5,0.7,3.4,1.4c1.3,1.8,1.2,4.3-0.4,6c-0.4,0.5-1,0.9-1.7,1
		c-0.4,0-0.8,0-1.2-0.1c-0.7-0.3-1.3-0.1-2,0.3c0.1,0,0.3-0.1,0.4-0.1c0.1,0,0.3,0.1,0.4,0.3c0,0.3-0.1,0.4-0.4,0.5
		c-0.5,0.3-1.2,0.3-1.8,0.3c-0.7,0-1.2,0.3-1.7,0.8c0.1-0.1,0.3-0.1,0.4-0.1c0.1,0,0.3,0.1,0.4,0.3c0,0.1,0,0.3-0.1,0.4
		c0,0.3-0.3,0.3-0.4,0.3c-0.5,0.1-1,0.1-1.4,0.4c-0.5,0.1-0.9,0.5-0.9,1c0.1-0.1,0.4-0.3,0.5-0.4c0.3-0.1,0.5,0,0.7,0.1
		c0.1,0.1,0,0.7-0.1,0.8c-0.4,0.4-0.9,0.7-1.3,0.9c-0.5,0.3-0.9,0.7-1,1.2c0.1-0.1,0.1-0.3,0.3-0.4c0.1-0.1,0.3-0.1,0.5,0
		c0.1,0.1,0.3,0.3,0.3,0.5c0,0.4-0.3,0.8-0.7,1c-0.4,0.1-0.8,0.3-1.2,0.3c-0.4,0-0.8,0-1.2-0.3c-0.4-0.3-0.5-0.7-0.4-1
		c-0.3,0.4-0.3,0.9,0.1,1.3c0.1,0.1,0.3,0.1,0.3,0.3c0.1,0.1,0.1,0.3,0.1,0.4s-0.1,0.3-0.3,0.3s-0.3,0-0.4,0c-0.8-0.4-1.3-1.2-1-2.1
		c0.3-0.5,0.4-1,0.5-1.6c0-0.3,0-0.5,0-0.7c0-0.3,0.1-0.4,0.4-0.5c-0.3,0-0.5,0-0.7,0.3C28.1,26.8,28,27,28,27.2
		c0,0.1-0.1,0.3-0.1,0.4c-0.1,0.1-0.3,0.3-0.4,0.1c-0.1,0-0.1-0.1-0.1-0.3s0-0.3,0.1-0.4c0.3-0.7,0.5-1.4,0.7-2.1
		c0.1-0.8,0-1.6-0.5-2.1c0.1,0.1,0.1,0.3,0.1,0.4s0,0.3-0.1,0.4s-0.4,0-0.5-0.1s-0.3-0.3-0.3-0.5c-0.1-0.5-0.5-1-0.9-1.4
		s-1-0.5-1.7-0.4c0.1,0,0.4,0,0.4,0.3c0,0.1-0.1,0.4-0.3,0.4c-0.1,0-0.4,0-0.5,0c-0.1-0.1-0.3-0.1-0.5-0.3c-0.4-0.1-0.9-0.3-1.3-0.1
		s-0.9,0.1-1.3,0c0,0.1,0.3,0.3,0.4,0.3s0.1,0,0.3,0s0.3,0.1,0.1,0.3c0,0.1-0.1,0.1-0.1,0.1c-0.5,0.3-0.5,0.1-0.9,0.3
		c-0.4,0.3-0.7,0.5-1,0.8c-0.1,0-0.3,0-0.3,0l0,0v0.1l0,0c0.3-0.1,0.5-0.3,0.9-0.4c1-0.7,2.2-1,3.4-1l0,0c1.6-0.1,3,0.8,3.5,2.2
		c0.3,0.9,0.3,1.8,0.1,2.9c-0.1,0.5-0.1,0.9-0.1,1.4c0,1.2,0.8,2.3,2,2.9c0.4,0.1,0.8,0.3,1,0.3c1.3,0,2.3-0.8,2.9-2
		c0.7-1.7,1.7-3.3,3-4.6c1-0.8,2.3-1.4,3.6-1.8c0.5-0.1,1.2-0.4,1.7-0.7c1-0.4,1.6,0,1.6,0.4c0.1,0.4,0,0.8-0.4,0.9
		c0.7-0.3,1-0.9,1.3-1.6c0.1-0.7,0.3-1.3,0.3-2c0-0.3,0.1-0.5,0.4-0.7c0.4-0.1,0.8,0.1,0.9,0.4l0,0c0.1,0.4,0.1,0.8,0,1.2
		c0.5-0.8,0.5-1.8,0-2.7c-0.3-0.5-0.9-1-0.9-1.7C44.1,16.5,44.2,16.1,44.5,16.1z"/>
	<path class="st0" d="M40.5,32.6L40.5,32.6c-0.1-0.3-0.3-0.3-0.5-0.3c-0.1-0.3-0.4-0.3-0.7-0.1l-0.1,0.1c-0.1-0.1-0.3-0.1-0.4-0.1
		c-0.1,0.1-0.3,0.1-0.3,0.3c-0.1,0.1-0.1,0.3-0.4,0.3c-0.1,0-0.3,0-0.3-0.1s0-0.1,0.1-0.1c0,0,0.1,0,0.1-0.1
		c0.3-0.1,0.4-0.4,0.4-0.7c0.1,0,0.3,0,0.4-0.3c0-0.1,0-0.1,0-0.3c0.3,0,0.4-0.1,0.5-0.4l0,0c0-0.1,0-0.1,0-0.1
		c0-0.1,0.1-0.3,0.3-0.4c0.1-0.1,0.4-0.3,0.7-0.1c-0.3-0.1-0.5-0.1-0.8-0.1c-0.3,0.1-0.4,0.3-0.4,0.4H39c-0.3,0-0.4,0.3-0.4,0.5l0,0
		c-0.3,0-0.4,0.1-0.4,0.4c0,0.1,0,0.1,0,0.3c-0.1,0-0.3,0-0.3,0.1s-0.1,0.3-0.1,0.4c0,0.1-0.3,0.3-0.4,0.1c-0.1,0-0.1-0.1,0-0.3
		c0-0.1,0.1-0.1,0.1-0.3s0-0.4-0.1-0.5c0.1,0,0.4-0.1,0.4-0.3v-0.1c0.3,0,0.4,0,0.5-0.3c0-0.1,0-0.3,0-0.3c0-0.1,0.1-0.3,0.3-0.4
		c0.1-0.1,0.4-0.1,0.5-0.1c-0.4-0.3-0.8-0.1-1,0.3c0,0,0,0,0,0.1c-0.1,0-0.4,0.1-0.4,0.3c-0.1,0-0.3,0-0.4,0.1
		c-0.1,0.1-0.1,0.4-0.1,0.5c-0.1,0-0.3,0.1-0.3,0.3s0.1,0.3,0.1,0.4s0,0.3,0,0.5c-0.1,0.3-0.4,0.4-0.7,0.4L34.7,33
		c-0.1,0-0.3,0-0.4,0c-0.1-0.1-0.1-0.3-0.1-0.5c0.1-0.4,0.5-0.7,0.8-1c0.1-0.4,0.1-0.8-0.1-1.2c-0.3-0.3-0.7-0.5-1-0.5
		s-0.8,0.3-0.9,0.7c-0.3,0.4-0.3,0.9-0.3,1.3c0,0.5,0,0.9-0.1,1.4c-0.1,0.3-0.3,0.5-0.1,0.8c0.1,0.1,0.3,0.3,0.4,0.3
		c0.5,0,0.9-0.1,1.3-0.5c0.8-0.4,1.7-0.5,2.5-0.4c0.1,0,0.4,0.1,0.4,0.7c0,0.3,0.1,0.4,0.3,0.5c-0.1,0.3,0,0.7,0.3,0.8
		c0.1,0,0.1,0,0.3,0c0,0.3,0.3,0.4,0.5,0.4c0.1,0,0.3-0.1,0.4-0.3c0.1,0,0.1,0,0.3-0.1c0.1-0.1,0.1-0.3,0.1-0.4
		c0-0.1-0.1-0.4-0.3-0.4c0,0.1,0,0.4-0.1,0.5c0,0,0,0.1-0.1,0.1c-0.4-0.1-0.7-0.4-0.9-0.7c0.1,0,0.1-0.3,0.1-0.4s-0.1-0.3-0.1-0.4
		c0-0.3,0.1-0.5,0.4-0.7c0.1,0,0.4,0,0.5,0s0.4-0.1,0.4-0.3c0.1,0.1,0.4,0.3,0.5,0.1c0,0.1,0.1,0.3,0.3,0.3c0.1,0,0.3,0,0.4-0.1
		c0.3,0,0.5,0.1,0.7,0.4c0-0.3,0-0.5-0.1-0.7C40.9,32.7,40.7,32.6,40.5,32.6z"/>
	<path class="st0" d="M31.6,17.7c-0.7,0.3-1,1-0.8,1.7c0.1,0.3,0.3,0.5,0.5,0.7c0.5,0.3,1,0.4,1.7,0.5c0.3,0.1,0.5,0.3,0.5,0.5
		s-0.1,0.4-0.4,0.5c-0.4,0.3-0.8,0.4-1.3,0.5c-0.1,0-0.4,0-0.5-0.1s-0.1-0.3-0.3-0.3s-0.3-0.1-0.4,0c0-0.3-0.3-0.4-0.5-0.4
		c-0.1,0-0.3,0.1-0.3,0.1c-0.1-0.1-0.4-0.1-0.5,0l-0.1,0.1c-0.4,0-0.7,0.3-0.7,0.7c0.1-0.1,0.1-0.3,0.4-0.3c0.1,0,0.3,0,0.3,0
		s0,0.1,0.1,0.1c0.1,0.1,0.4,0.1,0.5,0l0,0c0,0.1,0.3,0.3,0.4,0.3c0,0,0.1,0,0.1-0.1c0,0.1,0.1,0.3,0.3,0.3s0.1,0,0.3,0
		s0.1,0,0.1,0.1s-0.1,0.1-0.3,0.1s-0.1-0.1-0.3-0.1s-0.4,0-0.5,0.1c-0.1-0.1-0.4-0.1-0.7,0l-0.1,0.1c-0.1-0.1-0.4,0-0.5,0.1V23
		c-0.1,0.3-0.1,0.7-0.1,0.9c0-0.3,0.1-0.5,0.4-0.5c0,0,0,0,0.1,0c0.1,0.1,0.4,0,0.5-0.1c0.1,0.1,0.4,0.1,0.5,0
		c0-0.1,0.1-0.1,0.1-0.3c0.1,0.1,0.4,0.3,0.5,0.1c0.1,0,0.1-0.1,0.3-0.3s0.1-0.1,0.3-0.1c0.1,0,0.3,0.1,0.3,0.3l0,0
		c0,0.1-0.1,0.1-0.1,0.1c-0.1,0-0.1,0-0.3,0c-0.3,0-0.4,0.3-0.4,0.4c-0.3,0-0.4,0.1-0.4,0.4V24c-0.3,0-0.4,0.1-0.4,0.4l0,0
		c0,0,0,0,0,0.1c-0.1,0.4,0.1,0.7,0.4,0.8c-0.1-0.1-0.1-0.4-0.1-0.7h0.1c0.1-0.1,0.3-0.3,0.3-0.5l0,0c0,0.1,0.3,0.1,0.3,0
		c0.1,0,0.1-0.1,0.1-0.3c0-0.1,0-0.1,0-0.3c0.4,0,0.8-0.3,0.8-0.7c0-0.1,0-0.1,0-0.3c0-0.1,0.1-0.1,0.3-0.1c0.1,0,0.1,0.1,0.1,0.1
		c0,0.1,0,0.1,0.1,0.3c0,0.1,0.1,0.1,0.3,0.1c-0.1,0.1-0.1,0.3,0,0.4c0,0,0.1,0.1,0.3,0c0,0.1,0,0.3,0.1,0.4c0,0,0,0,0.1,0
		c0.1,0.3,0,0.4-0.1,0.7c0.3-0.1,0.5-0.4,0.4-0.8l0,0l0,0c0-0.1,0-0.3-0.1-0.4c0.1-0.1,0-0.4-0.1-0.4s-0.3-0.1-0.4,0
		c0-0.1,0-0.1,0-0.3c-0.1,0-0.1-0.1-0.3-0.1c-0.1,0-0.1-0.1-0.3-0.3c0-0.1,0-0.1,0.1-0.3l1.7-0.7c0.1,0,0.3-0.1,0.4-0.3
		s0.3-0.3,0.3-0.4c0-0.3-0.3-0.5-0.5-0.7c-0.7-0.8-0.5-2.1-1.3-2.7C32.5,17.7,32,17.6,31.6,17.7z"/>
	<path class="st0" d="M23,17.4c0-0.3,0-0.4,0.1-0.5c0.1,0,0.3,0,0.4,0.1c0.3,0.1,0.4,0.4,0.4,0.7c0,0.1,0.1,0.4,0.3,0.5
		c0.1,0,0.3,0,0.4,0c0.1-0.1,0.3-0.3,0.4-0.3c0.4-0.3,1-0.3,1.4,0h0.1c-0.3-0.4-0.4-0.9-0.4-1.3c-0.1-0.4-0.1-0.9,0-1.3
		c-0.5,0.3-0.8,0.7-1,1.2c-0.1,0.1-0.1,0.3-0.3,0.4s-0.3,0.3-0.4,0.3s-0.3-0.1-0.4-0.1c-0.3-0.3-0.4-0.7-0.5-0.9
		c0-0.3,0-0.5-0.1-0.8c0.3,0,0.4-0.3,0.3-0.5c0-0.1-0.1-0.3-0.3-0.3c0.1-0.1,0.1-0.4,0-0.5c0,0,0,0-0.1,0c0-0.1,0-0.3-0.1-0.4
		c-0.1-0.1-0.4-0.3-0.5-0.3c0.1,0.1,0.3,0.3,0.3,0.4s0,0.1,0.1,0.3c0,0,0,0-0.1,0c-0.1,0.1-0.1,0.4,0,0.5c-0.3,0.1-0.4,0.3-0.3,0.5
		c0,0.1,0.1,0.1,0.1,0.3c-0.1,0-0.1,0.3,0,0.4s0.1,0.3,0,0.4s-0.3,0-0.4-0.1c0-0.1,0-0.3-0.1-0.4c0-0.1-0.1-0.3-0.4-0.3
		c0.1-0.1,0.1-0.4,0-0.5c0.4-0.4,0.3-0.5,0.1-0.5c0.1-0.3,0-0.4-0.1-0.5l0,0h-0.1c0,0,0,0-0.1-0.1c0,0.3,0,0.5-0.1,0.8
		c0.1,0.1,0.1,0.1,0.3,0.1c-0.1,0.3,0,0.5,0.1,0.5h0c-0.1,0.1,0,0.3,0,0.4c0.1,0.1,0.3,0.1,0.4,0.3c0.1,0.1,0.1,0.4,0,0.4
		S22.1,16,22,16c-0.1-0.1-0.1-0.3-0.3-0.4c-0.1-0.1-0.3-0.1-0.4-0.1c0-0.3,0-0.4-0.3-0.5c-0.1,0-0.3,0-0.3,0c0-0.3,0-0.4-0.3-0.5
		l0,0h-0.1l0,0c0,0.1-0.1,0.3-0.1,0.4c0,0,0,0-0.1,0c0,0,0,0,0,0.1c0,0.3,0.3,0.4,0.5,0.4l0,0c0,0.3,0.1,0.4,0.3,0.5
		c0.1,0,0.3,0,0.3,0c0,0.3,0.1,0.4,0.3,0.5c0.3,0.1,0.4,0.1,0.7,0.1s0.5,0.1,0.7,0.3c0.1,0,0.1,0.1,0.1,0.3c0,0.1-0.3,0.3-0.4,0.3
		s-0.3,0.3-0.1,0.4c-0.3,0-0.4,0.1-0.4,0.3s0,0.1,0,0.3c-0.1,0-0.3,0.1-0.4,0.3c0,0,0.1,0.3,0,0.5v0.1l0,0c0.1,0,0.3-0.1,0.3-0.1h0
		c0.1,0,0.3-0.3,0.3-0.5l0,0c0.1,0,0.4,0,0.4-0.3c0-0.1,0-0.1,0-0.3C22.6,18,22.9,17.7,23,17.4z"/>
	<path class="st0" d="M30.7,34.9c0.1,0,0.3-0.1,0.4-0.3l0.1-0.1l0,0h-0.1L31,34.6c-0.1,0.1-0.3,0.1-0.4,0.3L30.7,34.9
		C30.6,34.9,30.6,34.9,30.7,34.9L30.7,34.9z"/>
	<path class="st0" d="M25.9,32.3c-0.8-0.9-1.2-2.1-1.2-3.4c0-0.9,0.1-2,0.4-2.9c0.1-0.5,0-1.2-0.3-1.6c-0.4-0.4-1-0.7-1.6-0.7
		c-0.5,0-0.9,0.1-1.4,0.3c0.1,0,0.4-0.1,0.5-0.1c0.7-0.1,1.4,0,2,0.4c0.5,0.5,0.3,1.4,0.1,2c-0.4,1.3-0.5,2.6-0.3,3.9
		c0.1,0.5,0.4,1,0.7,1.6l0.4,0.3c0.1,0.1,0.1,0.4,0.3,0.7s0.4,0.5,0.7,0.7c0-0.1,0-0.3-0.1-0.4c0-0.1-0.1-0.3-0.1-0.4
		c0.1,0.1,0.4,0.3,0.4,0.4c0.3,0.3,0.5,0.7,0.7,1c0.8,0.5,1.7,0.9,2.7,0.9c0.1-0.1,0.3-0.1,0.4-0.3c-0.1,0-0.3-0.1-0.4-0.3l0,0
		c-0.1-0.1-0.1-0.1-0.3-0.3l0,0h-0.1c-0.1,0-0.3,0-0.3,0.1c-0.4,0.1-0.4,0.3-0.4,0.4c-0.1-0.1-0.1-0.4,0-0.5
		C27.5,33.9,26.5,33.2,25.9,32.3z"/>
	<path class="st0" d="M35,32.3c-0.1,0.1-0.3,0.3-0.4,0.4v0.1h0.1H35c0.8-1,1.4-2.3,1.8-3.6c0.3-0.9,0.7-1.8,1-2.7
		c-0.4,0.5-0.8,1.2-1.2,1.8c-0.4,0.8-0.8,1.7-1.2,2.5c0.1,0.4,0.1,0.8-0.1,1C35.3,31.9,35.1,32.2,35,32.3z"/>
	<path class="st0" d="M32.4,34.5c-0.3-0.3-0.3-0.5,0-1.3c0.1-0.4,0.1-0.8,0.1-1.2c0,0.4-0.5,0.8-0.9,0.8c-0.3,0-0.4-0.1-0.7,0
		c-0.1,0.1-0.3,0.1-0.3,0.3c-0.1,0.1-0.3,0.1-0.4,0c0.1,0.1,0.3,0.3,0.4,0.3s0.3,0,0.4-0.1c0.1,0,0.3-0.1,0.4-0.1s0.3,0.1,0.3,0.3
		c0,0.1-0.1,0.1-0.3,0.1s-0.3,0-0.4,0c-0.4,0-0.5,0.5-0.9,0.5c-0.1,0-0.3-0.1-0.5-0.3c-0.3-0.1-0.5,0-0.7,0.1c0.1-0.1,0.3-0.1,0.4,0
		s0.3,0.1,0.4,0.4c0.1,0.1,0.3,0.3,0.5,0.3c0.3,0,0.4-0.3,0.7-0.4c0.1-0.1,0.4-0.1,0.5,0.1c0.1,0.1,0,0.4-0.1,0.5
		c-0.1,0.3-0.3,0.4-0.5,0.4c-0.1,0-0.4-0.1-0.5-0.1c-0.3,0-0.4,0.1-0.5,0.3c-0.1,0.1-0.4,0.3-0.5,0.4c-0.3,0-0.4-0.1-0.5-0.3l0,0
		c0,0.3,0.1,0.5,0.4,0.7c0.3,0,0.5,0,0.8-0.1s0.5-0.1,0.8-0.1s0.5,0.1,0.8,0c0.1-0.1,0.3-0.3,0.3-0.4c0-0.1,0.3-0.3,0.4-0.3
		c0.1,0.1,0.1,0.3,0.1,0.4c0,0.3-0.3,0.5-0.5,0.8c-0.3,0.1-0.5,0.1-0.8,0.3c-0.3,0.1-0.4,0.5-0.4,0.9c0-0.3,0.1-0.4,0.4-0.4
		c0.1-0.1,0.4-0.1,0.7-0.1c0.3,0,0.4,0,0.7-0.1c0.5-0.3,0.5-0.9,1-1.3c0.3-0.1,0.5-0.3,0.8-0.4c0.4-0.3,0.5-0.8,1-1
		c-0.3,0-0.7,0.4-1.2,0.7C33.3,34.8,32.8,34.8,32.4,34.5z"/>
	<path class="st0" d="M26.1,19.3c0,0.1,0.1,0.3,0.3,0.4c0.1,0,0.3,0.1,0.4,0.3c0.1,0.1,0.3,0.3,0.3,0.4c0.3,0.3,0.8,0.3,1,0
		c-0.3,0.1-0.7,0.1-0.8-0.1c0-0.1,0-0.4-0.1-0.7c-0.1-0.1-0.3-0.3-0.3-0.3c-0.1-0.1-0.3-0.1-0.3-0.3c0-0.1,0-0.3,0.1-0.4
		c0.1,0,0.3,0,0.3,0.1c-0.1-0.1-0.3-0.4-0.4-0.7c-0.4-0.3-0.8-0.3-1.2-0.3c-0.7,0.1-0.7,0.7-1.2,0.5c-0.4,0-0.5-0.4-0.5-0.7
		c0-0.1,0-0.3-0.1-0.3c0.1,0.5-0.1,0.8,0.1,1c0.3,0.3,0.5,0.3,0.7,0.5s0.3,0.7,0,0.9c0.3-0.1,0.4-0.4,0.4-0.7c0-0.1-0.1-0.3-0.1-0.4
		s0-0.3,0.1-0.4s0.4,0,0.4,0.1l0,0c0,0.1,0,0.4,0,0.5s0,0.4,0,0.5c0.1,0.1,0.3,0.3,0.5,0.3c0.1,0,0.4,0.1,0.5,0.1
		c0.3,0.3,0.4,0.7,0.1,0.9l0,0c0.4-0.1,0.5-0.5,0.4-0.8c0-0.1-0.1-0.3-0.1-0.3c-0.3-0.1-0.5-0.3-0.7-0.5c-0.1-0.1-0.1-0.4,0-0.5
		c0-0.1,0-0.1,0.1-0.3c0-0.1,0.1-0.1,0.3-0.1c0.1,0,0.1,0.3,0.1,0.4C26.3,19.1,26.1,19.1,26.1,19.3z"/>
	<path class="st0" d="M40.7,20.6c0.1,0,0.3-0.1,0.3-0.1c0.7-0.7,0.9-1.6,0.5-2.5c-0.4-0.8-1.2-1.2-2.1-1.2c-0.8,0.1-1.7,0.4-2.2,1
		c-0.8,0.7-1.6,1.2-2.3,1.7c-0.3,0.1-0.5,0.3-0.8,0.4c0.1,0.3,0.3,0.5,0.4,0.8c0.3-0.1,0.5-0.3,0.8-0.4c0.7-0.4,1.3-0.8,1.8-1.2
		c0.5-0.5,1-0.9,1.7-1.3c1.3-0.8,2.9-0.1,2.7,1.4C41.5,19.7,41.3,20.2,40.7,20.6z"/>
	<path class="st0" d="M34.5,22c-0.3,0.1-0.9,0.3-0.9,0.3c0.1,0,0.4,0,0.5,0s0.3,0.1,0.4,0.3s0.3,0.1,0.4,0.3c0.3,0,0.5-0.1,0.8-0.3
		s0.5-0.1,0.8,0c0-0.1-0.3-0.3-0.4-0.3s-0.4,0-0.5,0s-0.3,0.1-0.4,0.1s-0.3-0.1-0.3-0.3s0.1-0.3,0.4-0.3l0,0c0.3,0.1,0.5,0.1,0.8,0
		s0.4-0.4,0.5-0.4c0.3,0,0.4,0,0.7,0c0.3,0.1,0.4,0.1,0.7,0c0.3,0,0.4-0.3,0.4-0.4c0,0.1-0.3,0.3-0.4,0.3c-0.1,0-0.3,0-0.4-0.1
		s-0.3-0.1-0.4-0.1c-0.3,0-0.4,0-0.7,0.1c-0.1,0.1-0.4,0.1-0.7,0.3c-0.3,0-0.4,0-0.7-0.1c0,0-0.1-0.1,0-0.3c0-0.1,0.1-0.1,0.3-0.1
		c0.1,0,0.1,0,0.3,0c0.1,0,0.4,0,0.5-0.1s0.3-0.3,0.4-0.4c0.1-0.1,0.3-0.1,0.4-0.1s0.3-0.1,0.4-0.3c0.1-0.1,0.1-0.3,0-0.4
		c0,0.3-0.1,0.4-0.4,0.4c-0.3,0-0.4,0-0.7,0.1c-0.1,0.1-0.3,0.1-0.5,0.3c-0.1,0.1-0.4,0.1-0.5,0.1c-0.3,0.1-0.4,0.3-0.7,0.3
		c0.1,0.1,0.3,0.4,0.4,0.7C34.9,21.6,34.7,21.9,34.5,22z"/>
	<path class="st0" d="M28.9,2.2c-0.1,0.1-0.1,0.3-0.3,0.4c0,0.1-0.1,0.3-0.1,0.5C28.6,2.9,28.8,2.6,28.9,2.2z"/>
	<path class="st0" d="M30.7,14.2c1-0.7,2.2-1,3.4-1.6c1.4-0.7,2.5-1.7,3.1-3.1c0.5-1.4,0.3-3-0.7-4.2c-1.6-2-4.2-2.9-6.6-2.1
		c-0.3,0.5-0.5,0.9-0.9,1.4l0,0c0.5-0.4,1-0.7,1.7-0.8c0.1,0,0.3,0,0.4,0c0.7,0,1.3,0.3,1.6,0.9c0.1,0.1,0.1,0.4,0.3,0.5
		c0.9-0.1,1.7,0.4,2.2,1c0.5,0.9,0.5,2,0,2.7c-1,1.8-3.4,2.1-5.1,3c-1.3,0.7-2.2,2-2.2,3.5c-0.1,1.8,1,3.4,2.7,4
		c-0.1-0.3-0.1-0.5-0.1-0.8c0.1-0.7,0.5-1,1-1.3l0,0c-0.8-0.1-1.3-0.7-1.6-1.3C29.8,15.4,30.1,14.7,30.7,14.2z"/>
	<path class="st0" d="M30.7,20.8c0.7,0.1,1.4,0.3,2.1,0.1l0,0c-0.3-0.1-0.4-0.1-0.7-0.3c-0.4-0.1-0.8-0.3-1.2-0.4
		c-0.1,0-0.1-0.1-0.1-0.1c-0.3,0-0.4-0.1-0.7-0.1c-2.1-0.8-3.3-3.1-2.7-5.3c0.4-1.4,1.4-2.6,2.9-3.1c1.6-0.8,3.9-1.2,4.6-3
		c0.4-0.9,0-1.8-0.8-2.3c-0.8-0.4-1.7-0.5-2.6-0.4c-0.7,0.1-1.2,0.3-1.7,0.4c-0.1,0.1-0.4,0.3-0.5,0.4l0.3-0.1
		c0.3,0,0.4-0.1,0.7-0.1s0.7-0.1,0.9-0.1s0.5,0,0.9,0.1s0.8,0.4,1,0.8c0.1,0,0.1,0.1,0.3,0.1c0.3,0.1,0.4,0.4,0.5,0.7
		c0,0.3-0.1,0.7-0.4,0.8c-1,0.8-2.2,1.3-3.4,1.8c-1.3,0.7-2.5,1.7-3.1,3c-1.2,2.7,0.1,5.9,2.9,6.9C30.1,20.6,30.3,20.7,30.7,20.8z"
		/>
	<path class="st0" d="M31.7,4.7c-0.1,0-0.3,0-0.4,0.1c-0.3,0.1-0.5,0.3-0.7,0.4c0.7-0.1,1.3-0.1,1.8-0.1C32.3,4.8,32,4.8,31.7,4.7z"
		/>
	<path class="st0" d="M39,21.7c0.3,0,0.7,0,0.9,0.1c0.1,0,0.3,0.1,0.4,0.1c0.5,0.1,0.9,0,1.3-0.3c0.4-0.3,0.7-0.4,0.9-0.8
		c1.4-1.6,1.6-3.9,0.3-5.6c-0.5-0.5-1.2-1-2-1.2c-0.5-0.1-1-0.1-1.6-0.1c-0.9,0.1-1.8,0.4-2.6,0.9c-0.4,0.3-0.8,0.5-1.2,0.9
		c-0.1,0.1-0.4,0.3-0.7,0.5c-0.7,0.5-1.4,0.9-2.3,1c0.1,0,0.3,0.1,0.4,0.3c0.4,0.4,0.7,0.9,0.8,1.6v0.1c1.2-0.5,2.3-1.3,3.4-2.1
		c0.7-0.5,1.6-0.9,2.3-0.9c0.9,0,1.8,0.5,2.2,1.4s0.3,2-0.5,2.7s-2,0.7-3.1,1.2c-0.7,0.4-1.3,0.8-2,1.3c0.1,0,0.1,0,0.3,0
		c0.1,0,0.3,0,0.4,0c0.5,0,0.9,0,1.3-0.3c0.1,0,0.1-0.1,0.1-0.1s0-0.1-0.1-0.1c-0.3,0-0.5,0-0.8,0.1c0-0.1,0.1-0.4,0.3-0.5
		C38.1,22,38.6,21.7,39,21.7z"/>
	<path class="st0" d="M35.4,24.2L35.4,24.2c-0.1,0.1-0.1,0.1-0.1,0.3c0.1,0,0.1,0,0.3-0.1C35.4,24.3,35.4,24.3,35.4,24.2L35.4,24.2z
		"/>
	<path class="st0" d="M42.6,22.9c0-0.3-0.5-0.4-0.7-0.4c-0.4,0-0.8,0.1-1.2,0.4c-0.9,0.4-1.8,0.7-2.6,1c-0.8,0.4-1.6,0.8-2.2,1.3
		c-0.7,0.5-1.2,1.2-1.6,1.8c-0.3,0.4-0.5,0.8-0.7,1.2c-0.3,0.4-0.4,0.8-0.5,1.2c-0.3,0.8-0.8,1.4-1.6,1.8c-1.3,0.8-3,0.5-4-0.5
		c-0.5-0.5-0.8-1.3-0.9-2.1c0-0.9,0-1.8,0.3-2.7c0.1-0.9-0.1-1.7-0.5-2.5c-0.4-0.5-1-0.9-1.7-1.2c-1.6-0.4-3.3,0-4.7,0.9
		c-0.3,0.1-0.4,0.3-0.7,0.3c0.1,0.3,0.1,0.7,0.3,1c0.3-0.1,0.5-0.1,0.8-0.3c1.3-0.5,3.1-1.6,4.4-0.5c0.5,0.7,0.8,1.4,0.5,2.2
		c-0.1,0.8-0.3,1.6-0.3,2.5c0,1.6,0.8,3,2,4c0.5,0.4,1,0.8,1.7,0.9c0.1,0,0.1,0,0.3,0s0.1-0.1,0.3-0.1c0.1-0.1,0.4-0.1,0.5,0
		c0.1,0,0.4,0.3,0.5,0.3s0.3-0.1,0.4-0.3C30.3,33,30,32.6,30,32.2c0.1,0.1,0.3,0.1,0.5,0.1c0.1,0,0.3-0.1,0.4-0.3
		c0.1-0.1,0.4-0.1,0.5-0.1c0.3,0,0.7,0,0.8-0.3c0.1-0.1,0.3-0.4,0.4-0.5c0.1-0.7,0.4-1.2,0.8-1.6c0.7-0.5,1.6-0.4,2.1,0.3
		c0.3-0.4,0.4-0.8,0.5-1.2c0.5-1.6,1.4-2.9,2.7-3.9c0.5-0.4,1.2-0.8,1.8-1c0.4-0.1,1.4-0.7,1.7-0.8C42,23.3,42.6,23,42.6,22.9z"/>
</g>
</svg>
