<?xml version="1.0" encoding="utf-8"?>
<!-- Generator: Adobe Illustrator 16.0.0, SVG Export Plug-In . SVG Version: 6.00 Build 0)  -->
<!DOCTYPE svg PUBLIC "-//W3C//DTD SVG 1.1//EN" "http://www.w3.org/Graphics/SVG/1.1/DTD/svg11.dtd">
<svg version="1.1" id="Layer_1" xmlns="http://www.w3.org/2000/svg" xmlns:xlink="http://www.w3.org/1999/xlink" x="0px" y="0px"
	 width="48px" height="70px" viewBox="0 0 48 70" enable-background="new 0 0 48 70" xml:space="preserve">
<g>
	<path fill="#FFFFFF" d="M2.658,69.5c-1.19,0-2.158-0.893-2.158-1.986V2.489C0.5,1.393,1.468,0.5,2.658,0.5h42.683
		c1.19,0,2.159,0.893,2.159,1.989v65.022c0,1.096-0.969,1.987-2.159,1.987L2.658,69.5L2.658,69.5z"/>
	<path fill="#191919" d="M45.341,1C46.257,1,47,1.667,47,2.489v65.022C47,68.335,46.257,69,45.341,69H2.658
		C1.742,69,1,68.335,1,67.514V2.489C1,1.667,1.742,1,2.658,1H45.341 M45.341,0H2.658C1.192,0,0,1.117,0,2.489v65.022
		C0,68.884,1.192,70,2.658,70h42.683C46.807,70,48,68.884,48,67.514V2.489C48,1.117,46.807,0,45.341,0L45.341,0z"/>
</g>
<g enable-background="new    ">
	<path fill="#191919" d="M23.383,36.939c-1.797,0-3.425-0.31-4.886-0.922c-1.461-0.616-2.707-1.478-3.738-2.583
		c-1.032-1.107-1.832-2.432-2.399-3.974c-0.568-1.541-0.852-3.245-0.852-5.111c0-1.994,0.287-3.802,0.86-5.425
		c0.574-1.623,1.391-3.009,2.452-4.156s2.35-2.034,3.869-2.66c1.518-0.626,3.216-0.939,5.094-0.939c1.738,0,3.326,0.308,4.764,0.921
		c1.438,0.615,2.666,1.476,3.686,2.582c1.021,1.107,1.813,2.432,2.375,3.974c0.563,1.541,0.846,3.24,0.846,5.095
		c0,2.457-0.412,4.61-1.235,6.459c-0.819,1.849-1.979,3.336-3.479,4.46l7.232,5.216h-6.294l-4.45-3.46
		c-0.592,0.162-1.207,0.29-1.844,0.383C24.744,36.895,24.078,36.939,23.383,36.939z M23.574,14.806
		c-1.136,0-2.177,0.224-3.121,0.669c-0.945,0.446-1.759,1.078-2.443,1.896c-0.684,0.817-1.214,1.794-1.591,2.93
		c-0.376,1.137-0.565,2.399-0.565,3.791c0,1.379,0.183,2.637,0.548,3.772c0.365,1.137,0.878,2.107,1.539,2.913
		c0.661,0.806,1.455,1.432,2.382,1.877c0.927,0.447,1.953,0.67,3.078,0.67c1.193,0,2.266-0.209,3.217-0.626
		c0.95-0.417,1.759-1.018,2.426-1.8c0.666-0.782,1.179-1.741,1.538-2.878c0.359-1.136,0.539-2.428,0.539-3.877
		c0-1.483-0.174-2.805-0.521-3.964c-0.347-1.159-0.847-2.136-1.494-2.931c-0.647-0.793-1.438-1.399-2.373-1.816
		C25.797,15.015,24.744,14.806,23.574,14.806z"/>
</g>
<path fill="#191919" d="M23.052,52.07c-1.732-0.1-3.25,0.857-3.979,2.285c-0.161,0.314-0.428,0.563-0.765,0.674
	c-0.004,0-0.007,0.003-0.013,0.004c-0.284,0.094-0.571-0.148-0.525-0.446c0.098-0.653,0.254-1.288,0.458-1.899
	c0.111-0.332,0.354-0.6,0.666-0.758c1.432-0.727,2.391-2.244,2.291-3.981c-0.122-2.124-1.888-3.858-4.012-3.943
	c-2.396-0.097-4.368,1.815-4.368,4.188c0,1.637,0.938,3.049,2.304,3.738c0.31,0.158,0.549,0.424,0.66,0.752
	c0.206,0.612,0.36,1.248,0.458,1.903c0.046,0.298-0.239,0.54-0.525,0.446c-0.004-0.002-0.007-0.004-0.013-0.004
	c-0.335-0.111-0.604-0.358-0.763-0.674c-0.729-1.428-2.246-2.385-3.98-2.285c-2.123,0.121-3.857,1.89-3.942,4.015
	c-0.097,2.394,1.815,4.366,4.188,4.366c1.632,0,3.04-0.932,3.732-2.289c0.161-0.314,0.431-0.564,0.767-0.678
	c0.005,0,0.009-0.002,0.013-0.002c0.286-0.096,0.569,0.149,0.525,0.447c-0.295,1.991-1.113,3.813-2.308,5.322
	C13.685,63.557,13.906,64,14.29,64h5.418c0.386,0,0.607-0.443,0.368-0.747c-1.194-1.51-2.011-3.331-2.308-5.323
	c-0.044-0.298,0.241-0.541,0.527-0.447c0.004,0.002,0.007,0.002,0.011,0.004c0.337,0.111,0.605,0.361,0.767,0.677
	c0.694,1.358,2.103,2.289,3.732,2.289c2.375,0,4.287-1.974,4.19-4.366C26.911,53.96,25.177,52.193,23.052,52.07z"/>
</svg>
