<?xml version="1.0" encoding="utf-8"?>
<!-- Generator: Adobe Illustrator 16.0.0, SVG Export Plug-In . SVG Version: 6.00 Build 0)  -->
<!DOCTYPE svg PUBLIC "-//W3C//DTD SVG 1.1//EN" "http://www.w3.org/Graphics/SVG/1.1/DTD/svg11.dtd">
<svg version="1.1" id="Layer_1" xmlns="http://www.w3.org/2000/svg" xmlns:xlink="http://www.w3.org/1999/xlink" x="0px" y="0px"
	 width="48px" height="70px" viewBox="0 0 48 70" enable-background="new 0 0 48 70" xml:space="preserve">
<g>
	<path fill="#FFFFFF" d="M2.658,69.5c-1.19,0-2.158-0.893-2.158-1.986V2.489C0.5,1.393,1.468,0.5,2.658,0.5h42.683
		c1.19,0,2.159,0.893,2.159,1.989v65.022c0,1.096-0.969,1.987-2.159,1.987L2.658,69.5L2.658,69.5z"/>
	<path fill="#191919" d="M45.341,1C46.257,1,47,1.667,47,2.489v65.022C47,68.335,46.257,69,45.341,69H2.658
		C1.742,69,1,68.335,1,67.514V2.489C1,1.667,1.742,1,2.658,1H45.341 M45.341,0H2.658C1.192,0,0,1.117,0,2.489v65.022
		C0,68.884,1.192,70,2.658,70h42.683C46.807,70,48,68.884,48,67.514V2.489C48,1.117,46.807,0,45.341,0L45.341,0z"/>
</g>
<g enable-background="new    ">
	<path fill="#191919" d="M31.468,36.521H15.819V34.59c0-0.788,0.11-1.527,0.33-2.217c0.22-0.69,0.516-1.339,0.887-1.948
		c0.371-0.608,0.806-1.182,1.304-1.721s1.032-1.061,1.6-1.565c0.568-0.504,1.147-0.991,1.739-1.46
		c0.591-0.47,1.171-0.942,1.739-1.417c0.533-0.452,1.02-0.896,1.46-1.33c0.44-0.436,0.817-0.884,1.13-1.348s0.557-0.953,0.73-1.47
		C26.912,19.602,27,19.042,27,18.439c0-0.661-0.102-1.237-0.305-1.73c-0.203-0.492-0.487-0.903-0.854-1.234
		c-0.362-0.33-0.798-0.579-1.296-0.747c-0.499-0.168-1.043-0.252-1.635-0.252c-1.02,0-2.058,0.237-3.112,0.713
		c-1.055,0.475-2.069,1.188-3.042,2.139V13.45c0.51-0.383,1.026-0.716,1.547-1c0.521-0.283,1.061-0.521,1.617-0.713
		c0.556-0.191,1.142-0.333,1.756-0.426c0.614-0.093,1.27-0.139,1.965-0.139c1.125,0,2.145,0.148,3.06,0.444
		c0.916,0.295,1.697,0.729,2.348,1.304c0.649,0.574,1.15,1.29,1.506,2.147c0.354,0.857,0.529,1.843,0.529,2.956
		c0,1.008-0.125,1.915-0.375,2.721c-0.249,0.806-0.604,1.557-1.063,2.252c-0.457,0.695-1.014,1.356-1.66,1.982
		s-1.371,1.269-2.174,1.93c-0.672,0.545-1.339,1.075-2.006,1.591s-1.267,1.021-1.799,1.513c-0.533,0.493-0.965,0.985-1.295,1.479
		c-0.331,0.492-0.496,0.988-0.496,1.486v0.087h11.25L31.468,36.521L31.468,36.521z"/>
</g>
<path fill="#191919" d="M23.052,52.07c-1.732-0.1-3.25,0.857-3.979,2.285c-0.161,0.314-0.428,0.563-0.765,0.674
	c-0.004,0-0.007,0.003-0.013,0.004c-0.284,0.094-0.571-0.148-0.525-0.446c0.098-0.653,0.254-1.288,0.458-1.899
	c0.111-0.332,0.354-0.6,0.666-0.758c1.432-0.727,2.391-2.244,2.291-3.981c-0.122-2.124-1.888-3.858-4.012-3.943
	c-2.396-0.097-4.368,1.815-4.368,4.188c0,1.637,0.938,3.049,2.304,3.738c0.31,0.158,0.549,0.424,0.66,0.752
	c0.206,0.612,0.36,1.248,0.458,1.903c0.046,0.298-0.239,0.54-0.525,0.446c-0.004-0.002-0.007-0.004-0.013-0.004
	c-0.335-0.111-0.604-0.358-0.763-0.674c-0.729-1.428-2.246-2.385-3.98-2.285c-2.123,0.121-3.857,1.89-3.942,4.015
	c-0.097,2.394,1.815,4.366,4.188,4.366c1.632,0,3.04-0.932,3.732-2.289c0.161-0.314,0.431-0.564,0.767-0.678
	c0.005,0,0.009-0.002,0.013-0.002c0.286-0.096,0.569,0.149,0.525,0.447c-0.295,1.991-1.113,3.813-2.308,5.322
	C13.685,63.557,13.906,64,14.29,64h5.418c0.386,0,0.607-0.443,0.368-0.747c-1.194-1.51-2.011-3.331-2.308-5.323
	c-0.044-0.298,0.241-0.541,0.527-0.447c0.004,0.002,0.007,0.002,0.011,0.004c0.337,0.111,0.605,0.361,0.767,0.677
	c0.694,1.358,2.103,2.289,3.732,2.289c2.375,0,4.287-1.974,4.19-4.366C26.911,53.96,25.177,52.193,23.052,52.07z"/>
</svg>
