<?xml version="1.0" encoding="utf-8"?>
<!-- Generator: Adobe Illustrator 16.0.0, SVG Export Plug-In . SVG Version: 6.00 Build 0)  -->
<!DOCTYPE svg PUBLIC "-//W3C//DTD SVG 1.1//EN" "http://www.w3.org/Graphics/SVG/1.1/DTD/svg11.dtd">
<svg version="1.1" id="Layer_1" xmlns="http://www.w3.org/2000/svg" xmlns:xlink="http://www.w3.org/1999/xlink" x="0px" y="0px"
	 width="48px" height="70px" viewBox="0 0 48 70" enable-background="new 0 0 48 70" xml:space="preserve">
<g>
	<path fill="#FFFFFF" d="M2.658,69.5c-1.19,0-2.158-0.893-2.158-1.986V2.489C0.5,1.393,1.468,0.5,2.658,0.5h42.683
		c1.19,0,2.159,0.893,2.159,1.989v65.022c0,1.096-0.969,1.987-2.159,1.987L2.658,69.5L2.658,69.5z"/>
	<path fill="#191919" d="M45.341,1C46.257,1,47,1.667,47,2.489v65.022C47,68.335,46.257,69,45.341,69H2.658
		C1.742,69,1,68.335,1,67.514V2.489C1,1.667,1.742,1,2.658,1H45.341 M45.341,0H2.658C1.192,0,0,1.117,0,2.489v65.022
		C0,68.884,1.192,70,2.658,70h42.683C46.807,70,48,68.884,48,67.514V2.489C48,1.117,46.807,0,45.341,0L45.341,0z"/>
</g>
<g enable-background="new    ">
	<path fill="#191919" d="M15.688,29.567c0-0.719,0.09-1.414,0.27-2.086c0.18-0.673,0.449-1.293,0.809-1.861
		c0.359-0.567,0.812-1.077,1.356-1.529c0.544-0.452,1.182-0.817,1.913-1.096c-1.078-0.603-1.936-1.376-2.573-2.321
		c-0.638-0.944-0.957-1.991-0.957-3.139c0-0.915,0.188-1.762,0.565-2.538c0.377-0.776,0.898-1.449,1.565-2.018
		c0.667-0.567,1.452-1.011,2.356-1.33c0.904-0.318,1.89-0.478,2.956-0.478c1.079,0,2.071,0.163,2.981,0.487
		c0.907,0.325,1.696,0.771,2.362,1.339c0.667,0.568,1.188,1.24,1.56,2.018c0.371,0.776,0.557,1.616,0.557,2.521
		c0,1.147-0.319,2.194-0.957,3.139c-0.637,0.945-1.483,1.719-2.538,2.321c0.719,0.278,1.353,0.641,1.903,1.087
		c0.55,0.446,1.012,0.953,1.383,1.521c0.371,0.567,0.648,1.188,0.834,1.86s0.279,1.373,0.279,2.104c0,1.09-0.203,2.087-0.609,2.991
		c-0.405,0.903-0.973,1.678-1.703,2.32c-0.73,0.645-1.605,1.146-2.626,1.505c-1.021,0.359-2.146,0.539-3.373,0.539
		c-1.217,0-2.333-0.181-3.347-0.539c-1.015-0.358-1.89-0.86-2.625-1.505c-0.736-0.643-1.31-1.417-1.721-2.32
		C15.895,31.654,15.688,30.657,15.688,29.567z M19.618,29.22c0,0.707,0.104,1.345,0.313,1.913c0.208,0.567,0.504,1.049,0.887,1.442
		c0.383,0.395,0.843,0.696,1.382,0.904c0.539,0.209,1.139,0.313,1.8,0.313c0.639,0,1.223-0.107,1.756-0.322
		c0.533-0.214,0.994-0.521,1.383-0.921c0.389-0.4,0.692-0.881,0.913-1.443c0.22-0.563,0.33-1.191,0.33-1.887
		c0-0.638-0.104-1.237-0.313-1.8c-0.207-0.562-0.504-1.052-0.887-1.469c-0.382-0.418-0.843-0.748-1.382-0.991
		c-0.538-0.243-1.139-0.365-1.8-0.365c-0.626,0-1.208,0.113-1.748,0.339c-0.539,0.227-1.003,0.545-1.391,0.956
		c-0.388,0.412-0.693,0.901-0.913,1.47C19.729,27.928,19.618,28.548,19.618,29.22z M20.47,17.953c0,0.521,0.093,1.005,0.278,1.451
		c0.185,0.446,0.435,0.835,0.748,1.165c0.313,0.33,0.681,0.589,1.104,0.773c0.423,0.186,0.878,0.278,1.365,0.278
		c0.487,0,0.942-0.096,1.365-0.286c0.423-0.191,0.794-0.452,1.111-0.783c0.32-0.33,0.572-0.719,0.758-1.165
		c0.185-0.445,0.277-0.924,0.277-1.434c0-0.522-0.09-1.009-0.271-1.461c-0.182-0.452-0.428-0.841-0.739-1.165
		c-0.313-0.324-0.685-0.579-1.11-0.765c-0.432-0.186-0.895-0.278-1.393-0.278c-0.522,0-0.997,0.096-1.426,0.287
		c-0.429,0.19-0.797,0.454-1.104,0.791c-0.307,0.336-0.545,0.728-0.713,1.173C20.554,16.982,20.47,17.454,20.47,17.953z"/>
</g>
<path fill="#191919" d="M23.052,52.07c-1.732-0.1-3.25,0.857-3.979,2.285c-0.161,0.314-0.428,0.563-0.765,0.674
	c-0.004,0-0.007,0.003-0.013,0.004c-0.284,0.094-0.571-0.148-0.525-0.446c0.098-0.653,0.254-1.288,0.458-1.899
	c0.111-0.332,0.354-0.6,0.666-0.758c1.432-0.727,2.391-2.244,2.291-3.981c-0.122-2.124-1.888-3.858-4.012-3.943
	c-2.396-0.097-4.368,1.815-4.368,4.188c0,1.637,0.938,3.049,2.304,3.738c0.31,0.158,0.549,0.424,0.66,0.752
	c0.206,0.612,0.36,1.248,0.458,1.903c0.046,0.298-0.239,0.54-0.525,0.446c-0.004-0.002-0.007-0.004-0.013-0.004
	c-0.335-0.111-0.604-0.358-0.763-0.674c-0.729-1.428-2.246-2.385-3.98-2.285c-2.123,0.121-3.857,1.89-3.942,4.015
	c-0.097,2.394,1.815,4.366,4.188,4.366c1.632,0,3.04-0.932,3.732-2.289c0.161-0.314,0.431-0.564,0.767-0.678
	c0.005,0,0.009-0.002,0.013-0.002c0.286-0.096,0.569,0.149,0.525,0.447c-0.295,1.991-1.113,3.813-2.308,5.322
	C13.685,63.557,13.906,64,14.29,64h5.418c0.386,0,0.607-0.443,0.368-0.747c-1.194-1.51-2.011-3.331-2.308-5.323
	c-0.044-0.298,0.241-0.541,0.527-0.447c0.004,0.002,0.007,0.002,0.011,0.004c0.337,0.111,0.605,0.361,0.767,0.677
	c0.694,1.358,2.103,2.289,3.732,2.289c2.375,0,4.287-1.974,4.19-4.366C26.911,53.96,25.177,52.193,23.052,52.07z"/>
</svg>
