<?xml version="1.0" encoding="utf-8"?>
<!-- Generator: Adobe Illustrator 16.0.0, SVG Export Plug-In . SVG Version: 6.00 Build 0)  -->
<!DOCTYPE svg PUBLIC "-//W3C//DTD SVG 1.1//EN" "http://www.w3.org/Graphics/SVG/1.1/DTD/svg11.dtd">
<svg version="1.1" id="Layer_1" xmlns="http://www.w3.org/2000/svg" xmlns:xlink="http://www.w3.org/1999/xlink" x="0px" y="0px"
	 width="48px" height="70px" viewBox="0 0 48 70" enable-background="new 0 0 48 70" xml:space="preserve">
<g>
	<path fill="#FFFFFF" d="M2.658,69.5c-1.19,0-2.158-0.893-2.158-1.986V2.489C0.5,1.393,1.468,0.5,2.658,0.5h42.683
		c1.19,0,2.159,0.893,2.159,1.989v65.022c0,1.096-0.969,1.987-2.159,1.987L2.658,69.5L2.658,69.5z"/>
	<path fill="#191919" d="M45.341,1C46.257,1,47,1.667,47,2.489v65.022C47,68.335,46.257,69,45.341,69H2.658
		C1.742,69,1,68.335,1,67.514V2.489C1,1.667,1.742,1,2.658,1H45.341 M45.341,0H2.658C1.192,0,0,1.117,0,2.489v65.022
		C0,68.884,1.192,70,2.658,70h42.683C46.807,70,48,68.884,48,67.514V2.489C48,1.117,46.807,0,45.341,0L45.341,0z"/>
</g>
<g enable-background="new    ">
	<path fill="#191919" d="M16.254,35.602v-3.791c1.623,1.286,3.454,1.93,5.495,1.93c1.657,0,2.981-0.376,3.972-1.13
		c0.992-0.754,1.487-1.773,1.487-3.061c0-2.828-2.162-4.242-6.485-4.242h-1.93v-3.234h1.843c3.836,0,5.754-1.333,5.754-3.999
		c0-2.457-1.494-3.686-4.489-3.686c-1.669,0-3.24,0.597-4.712,1.79v-3.581c1.692-0.95,3.692-1.426,5.999-1.426
		c2.211,0,3.991,0.556,5.323,1.669c1.334,1.112,2,2.538,2,4.277c0,3.28-1.673,5.39-5.011,6.329v0.069
		c1.797,0.174,3.22,0.803,4.263,1.887s1.563,2.438,1.563,4.06c0,2.237-0.842,4.043-2.521,5.416
		c-1.682,1.374-3.896,2.061-6.643,2.061C19.697,36.939,17.726,36.494,16.254,35.602z"/>
</g>
<path fill="#191919" d="M23.052,52.07c-1.732-0.1-3.25,0.856-3.979,2.285c-0.161,0.313-0.428,0.563-0.765,0.674
	c-0.004,0-0.007,0.003-0.013,0.004c-0.284,0.094-0.571-0.148-0.525-0.446c0.098-0.653,0.254-1.288,0.458-1.899
	c0.111-0.332,0.354-0.6,0.666-0.758c1.432-0.727,2.391-2.244,2.291-3.98c-0.122-2.124-1.888-3.858-4.012-3.943
	c-2.396-0.097-4.368,1.814-4.368,4.188c0,1.638,0.938,3.05,2.304,3.738c0.31,0.158,0.549,0.424,0.66,0.752
	c0.206,0.612,0.36,1.248,0.458,1.903c0.046,0.298-0.239,0.54-0.525,0.446c-0.004-0.002-0.007-0.004-0.013-0.004
	c-0.335-0.111-0.604-0.358-0.763-0.674c-0.729-1.429-2.246-2.385-3.98-2.285c-2.123,0.121-3.857,1.89-3.942,4.015
	c-0.097,2.394,1.815,4.366,4.188,4.366c1.632,0,3.04-0.932,3.732-2.289c0.161-0.314,0.431-0.564,0.767-0.678
	c0.005,0,0.009-0.002,0.013-0.002c0.286-0.097,0.569,0.148,0.525,0.447c-0.295,1.99-1.113,3.813-2.308,5.321
	C13.685,63.557,13.906,64,14.29,64h5.418c0.386,0,0.607-0.443,0.368-0.747c-1.194-1.51-2.011-3.331-2.308-5.323
	c-0.044-0.298,0.241-0.541,0.527-0.447c0.004,0.002,0.007,0.002,0.011,0.004c0.337,0.111,0.605,0.361,0.767,0.678
	c0.694,1.357,2.103,2.289,3.732,2.289c2.375,0,4.287-1.975,4.19-4.366C26.911,53.96,25.177,52.193,23.052,52.07z"/>
</svg>
