<?xml version="1.0" encoding="utf-8"?>
<!-- Generator: Adobe Illustrator 16.0.0, SVG Export Plug-In . SVG Version: 6.00 Build 0)  -->
<!DOCTYPE svg PUBLIC "-//W3C//DTD SVG 1.1//EN" "http://www.w3.org/Graphics/SVG/1.1/DTD/svg11.dtd">
<svg version="1.1" id="Layer_1" xmlns="http://www.w3.org/2000/svg" xmlns:xlink="http://www.w3.org/1999/xlink" x="0px" y="0px"
	 width="48px" height="70px" viewBox="0 0 48 70" enable-background="new 0 0 48 70" xml:space="preserve">
<g>
	<path fill="#FFFFFF" d="M2.658,69.5c-1.19,0-2.158-0.893-2.158-1.986V2.489C0.5,1.393,1.468,0.5,2.658,0.5h42.683
		c1.19,0,2.159,0.893,2.159,1.989v65.022c0,1.096-0.969,1.987-2.159,1.987L2.658,69.5L2.658,69.5z"/>
	<path fill="#191919" d="M45.341,1C46.257,1,47,1.667,47,2.489v65.022C47,68.335,46.257,69,45.341,69H2.658
		C1.742,69,1,68.335,1,67.514V2.489C1,1.667,1.742,1,2.658,1H45.341 M45.341,0H2.658C1.192,0,0,1.117,0,2.489v65.022
		C0,68.884,1.192,70,2.658,70h42.683C46.807,70,48,68.884,48,67.514V2.489C48,1.117,46.807,0,45.341,0L45.341,0z"/>
</g>
<g enable-background="new    ">
	<path fill="#FF1A1A" d="M35.605,36.521h-4.537l-2.244-6.348h-9.806l-2.156,6.348h-4.521l9.337-24.935h4.659L35.605,36.521z
		 M27.729,26.803l-3.458-9.945c-0.104-0.324-0.214-0.846-0.33-1.565h-0.07c-0.104,0.661-0.22,1.183-0.348,1.565l-3.425,9.945H27.729
		z"/>
</g>
<path fill="#FF1A1A" d="M17.561,44.277c2.398,3.104,6.057,6.762,9.162,9.162c0.368,0.285,0.368,0.836,0,1.121
	c-3.104,2.399-6.764,6.06-9.162,9.162c-0.286,0.368-0.836,0.368-1.122,0c-2.399-3.104-6.058-6.763-9.161-9.162
	c-0.369-0.285-0.369-0.836,0-1.121c3.103-2.4,6.761-6.06,9.161-9.162C16.724,43.908,17.275,43.908,17.561,44.277z"/>
</svg>
