<?xml version="1.0" encoding="utf-8"?>
<!-- Generator: Adobe Illustrator 16.0.0, SVG Export Plug-In . SVG Version: 6.00 Build 0)  -->
<!DOCTYPE svg PUBLIC "-//W3C//DTD SVG 1.1//EN" "http://www.w3.org/Graphics/SVG/1.1/DTD/svg11.dtd">
<svg version="1.1" id="Layer_1" xmlns="http://www.w3.org/2000/svg" xmlns:xlink="http://www.w3.org/1999/xlink" x="0px" y="0px"
	 width="48px" height="70px" viewBox="0 0 48 70" enable-background="new 0 0 48 70" xml:space="preserve">
<g>
	<path fill="#FFFFFF" d="M2.658,69.5c-1.19,0-2.158-0.893-2.158-1.986V2.489C0.5,1.393,1.468,0.5,2.658,0.5h42.683
		c1.19,0,2.159,0.893,2.159,1.989v65.022c0,1.096-0.969,1.987-2.159,1.987L2.658,69.5L2.658,69.5z"/>
	<path fill="#191919" d="M45.341,1C46.257,1,47,1.667,47,2.489v65.022C47,68.335,46.257,69,45.341,69H2.658
		C1.742,69,1,68.335,1,67.514V2.489C1,1.667,1.742,1,2.658,1H45.341 M45.341,0H2.658C1.192,0,0,1.117,0,2.489v65.022
		C0,68.884,1.192,70,2.658,70h42.683C46.807,70,48,68.884,48,67.514V2.489C48,1.117,46.807,0,45.341,0L45.341,0z"/>
</g>
<g enable-background="new    ">
	<path fill="#FF1A1A" d="M16.254,35.602v-3.791c1.623,1.286,3.454,1.93,5.495,1.93c1.657,0,2.981-0.376,3.972-1.13
		c0.992-0.754,1.487-1.773,1.487-3.061c0-2.828-2.162-4.242-6.485-4.242h-1.93v-3.234h1.843c3.836,0,5.754-1.333,5.754-3.999
		c0-2.457-1.494-3.686-4.487-3.686c-1.669,0-3.24,0.597-4.712,1.79v-3.581c1.692-0.95,3.692-1.426,5.999-1.426
		c2.213,0,3.989,0.556,5.321,1.669c1.334,1.112,2,2.538,2,4.277c0,3.28-1.671,5.39-5.009,6.329v0.069
		c1.797,0.174,3.218,0.803,4.261,1.887s1.563,2.438,1.563,4.06c0,2.237-0.841,4.043-2.521,5.416
		c-1.682,1.374-3.896,2.061-6.643,2.061C19.697,36.939,17.726,36.494,16.254,35.602z"/>
</g>
<path fill="#FF1A1A" d="M17.561,44.277c2.398,3.104,6.057,6.762,9.162,9.162c0.368,0.285,0.368,0.836,0,1.121
	c-3.104,2.399-6.764,6.06-9.162,9.162c-0.286,0.368-0.836,0.368-1.122,0c-2.399-3.104-6.058-6.763-9.161-9.162
	c-0.369-0.285-0.369-0.836,0-1.121c3.103-2.4,6.761-6.06,9.161-9.162C16.724,43.908,17.275,43.908,17.561,44.277z"/>
</svg>
