<?xml version="1.0" encoding="utf-8"?>
<!-- Generator: Adobe Illustrator 16.0.0, SVG Export Plug-In . SVG Version: 6.00 Build 0)  -->
<!DOCTYPE svg PUBLIC "-//W3C//DTD SVG 1.1//EN" "http://www.w3.org/Graphics/SVG/1.1/DTD/svg11.dtd">
<svg version="1.1" id="Layer_1" xmlns="http://www.w3.org/2000/svg" xmlns:xlink="http://www.w3.org/1999/xlink" x="0px" y="0px"
	 width="48px" height="70px" viewBox="0 0 48 70" enable-background="new 0 0 48 70" xml:space="preserve">
<g>
	<path fill="#FFFFFF" d="M2.658,69.5c-1.19,0-2.158-0.893-2.158-1.986V2.489C0.5,1.393,1.468,0.5,2.658,0.5h42.683
		c1.19,0,2.159,0.893,2.159,1.989v65.022c0,1.096-0.969,1.987-2.159,1.987L2.658,69.5L2.658,69.5z"/>
	<path fill="#191919" d="M45.341,1C46.257,1,47,1.667,47,2.489v65.022C47,68.335,46.257,69,45.341,69H2.658
		C1.742,69,1,68.335,1,67.514V2.489C1,1.667,1.742,1,2.658,1H45.341 M45.341,0H2.658C1.192,0,0,1.117,0,2.489v65.022
		C0,68.884,1.192,70,2.658,70h42.683C46.807,70,48,68.884,48,67.514V2.489C48,1.117,46.807,0,45.341,0L45.341,0z"/>
</g>
<g enable-background="new    ">
	<path fill="#FF1A1A" d="M32.494,13.605c-1.043,1.913-2.029,3.806-2.956,5.678c-0.929,1.872-1.769,3.753-2.521,5.642
		c-0.754,1.89-1.408,3.794-1.967,5.712c-0.556,1.919-0.985,3.881-1.287,5.886H19.54c0.278-1.787,0.675-3.567,1.191-5.349
		c0.516-1.78,1.122-3.559,1.817-5.338c0.695-1.779,1.475-3.567,2.339-5.364c0.862-1.797,1.781-3.61,2.756-5.442H15.836V11.59h16.658
		V13.605z"/>
</g>
<path fill="#FF1A1A" d="M17.56,44.277c2.399,3.104,6.058,6.762,9.163,9.162c0.368,0.285,0.368,0.836,0,1.121
	c-3.104,2.399-6.763,6.06-9.163,9.162c-0.285,0.368-0.836,0.368-1.121,0c-2.399-3.104-6.058-6.763-9.161-9.162
	c-0.369-0.285-0.369-0.836,0-1.121c3.103-2.4,6.761-6.06,9.161-9.162C16.724,43.908,17.275,43.908,17.56,44.277z"/>
</svg>
