<?xml version="1.0" encoding="utf-8"?>
<!-- Generator: Adobe Illustrator 16.0.0, SVG Export Plug-In . SVG Version: 6.00 Build 0)  -->
<!DOCTYPE svg PUBLIC "-//W3C//DTD SVG 1.1//EN" "http://www.w3.org/Graphics/SVG/1.1/DTD/svg11.dtd">
<svg version="1.1" id="Layer_1" xmlns="http://www.w3.org/2000/svg" xmlns:xlink="http://www.w3.org/1999/xlink" x="0px" y="0px"
	 width="48px" height="70px" viewBox="0 0 48 70" enable-background="new 0 0 48 70" xml:space="preserve">
<g>
	<path fill="#FFFFFF" d="M2.658,69.5c-1.19,0-2.158-0.893-2.158-1.986V2.489C0.5,1.393,1.468,0.5,2.658,0.5h42.683
		c1.19,0,2.159,0.893,2.159,1.989v65.022c0,1.096-0.969,1.987-2.159,1.987L2.658,69.5L2.658,69.5z"/>
	<path fill="#191919" d="M45.341,1C46.257,1,47,1.667,47,2.489v65.022C47,68.335,46.257,69,45.341,69H2.658
		C1.742,69,1,68.335,1,67.514V2.489C1,1.667,1.742,1,2.658,1H45.341 M45.341,0H2.658C1.192,0,0,1.117,0,2.489v65.022
		C0,68.884,1.192,70,2.658,70h42.683C46.807,70,48,68.884,48,67.514V2.489C48,1.117,46.807,0,45.341,0L45.341,0z"/>
</g>
<path fill="#FF2727" d="M6.404,50.343c0-3.228,2.6-5.843,5.809-5.843c1.59,0,3.031,0.645,4.08,1.684
	c0.389,0.387,1.023,0.387,1.412,0c1.05-1.045,2.489-1.684,4.081-1.684c3.209,0,5.81,2.617,5.81,5.843l0,0
	c0,6.036-7.772,11.531-10.004,12.98c-0.361,0.235-0.824,0.235-1.185,0C14.175,61.874,6.404,56.382,6.404,50.343"/>
<g enable-background="new    ">
	<path fill="#FF1A1A" d="M32.58,28.507c0,1.252-0.205,2.394-0.617,3.426c-0.411,1.031-0.982,1.921-1.713,2.669
		c-0.729,0.747-1.596,1.328-2.6,1.738c-1.002,0.411-2.088,0.617-3.259,0.617c-1.252,0-2.402-0.243-3.451-0.73
		c-1.049-0.484-1.954-1.209-2.713-2.171c-0.759-0.962-1.347-2.159-1.765-3.591c-0.418-1.432-0.626-3.092-0.626-4.981
		c0-2.307,0.275-4.353,0.826-6.138c0.55-1.785,1.307-3.28,2.269-4.486c0.962-1.205,2.092-2.121,3.391-2.747
		c1.298-0.626,2.702-0.939,4.208-0.939c0.938,0,1.795,0.064,2.563,0.191c0.771,0.128,1.39,0.301,1.853,0.521v3.634
		c-0.59-0.302-1.223-0.557-1.896-0.766c-0.672-0.208-1.442-0.313-2.313-0.313c-0.973,0-1.87,0.197-2.693,0.591
		c-0.823,0.395-1.533,0.972-2.13,1.729c-0.597,0.759-1.067,1.698-1.409,2.816c-0.342,1.119-0.519,2.408-0.53,3.869h0.104
		c0.533-0.823,1.254-1.472,2.165-1.947c0.911-0.475,1.979-0.713,3.208-0.713c1.09,0,2.07,0.177,2.945,0.53s1.623,0.863,2.244,1.53
		c0.619,0.666,1.098,1.478,1.436,2.434C32.411,26.236,32.58,27.313,32.58,28.507z M28.512,28.837c0-0.719-0.084-1.373-0.252-1.965
		c-0.168-0.591-0.424-1.098-0.766-1.521s-0.771-0.75-1.286-0.982c-0.517-0.231-1.122-0.348-1.817-0.348
		c-0.695,0-1.307,0.125-1.834,0.374c-0.527,0.25-0.971,0.577-1.33,0.982c-0.359,0.406-0.629,0.869-0.809,1.392
		c-0.18,0.521-0.27,1.055-0.27,1.6c0,0.591,0.084,1.196,0.252,1.816s0.426,1.186,0.773,1.695c0.348,0.511,0.792,0.931,1.33,1.261
		c0.539,0.33,1.18,0.495,1.921,0.495c0.66,0,1.246-0.121,1.756-0.364c0.51-0.244,0.938-0.58,1.278-1.009
		c0.341-0.429,0.603-0.937,0.782-1.521C28.419,30.158,28.512,29.521,28.512,28.837z"/>
</g>
</svg>
