<?xml version="1.0" encoding="utf-8"?>
<!-- Generator: Adobe Illustrator 16.0.0, SVG Export Plug-In . SVG Version: 6.00 Build 0)  -->
<!DOCTYPE svg PUBLIC "-//W3C//DTD SVG 1.1//EN" "http://www.w3.org/Graphics/SVG/1.1/DTD/svg11.dtd">
<svg version="1.1" id="Layer_1" xmlns="http://www.w3.org/2000/svg" xmlns:xlink="http://www.w3.org/1999/xlink" x="0px" y="0px"
	 width="48px" height="70px" viewBox="0 0 48 70" enable-background="new 0 0 48 70" xml:space="preserve">
<g>
	<path fill="#FFFFFF" d="M2.658,69.5c-1.19,0-2.158-0.893-2.158-1.986V2.489C0.5,1.393,1.468,0.5,2.658,0.5h42.683
		c1.19,0,2.159,0.893,2.159,1.989v65.022c0,1.096-0.969,1.987-2.159,1.987L2.658,69.5L2.658,69.5z"/>
	<path fill="#191919" d="M45.341,1C46.257,1,47,1.667,47,2.489v65.022C47,68.335,46.257,69,45.341,69H2.658
		C1.742,69,1,68.335,1,67.514V2.489C1,1.667,1.742,1,2.658,1H45.341 M45.341,0H2.658C1.192,0,0,1.117,0,2.489v65.022
		C0,68.884,1.192,70,2.658,70h42.683C46.807,70,48,68.884,48,67.514V2.489C48,1.117,46.807,0,45.341,0L45.341,0z"/>
</g>
<path fill="#FF2727" d="M6.404,50.343c0-3.228,2.6-5.843,5.809-5.843c1.59,0,3.031,0.645,4.08,1.684
	c0.389,0.387,1.023,0.387,1.412,0c1.05-1.045,2.489-1.684,4.081-1.684c3.209,0,5.81,2.617,5.81,5.843l0,0
	c0,6.036-7.772,11.531-10.004,12.98c-0.361,0.235-0.824,0.235-1.185,0C14.175,61.874,6.404,56.382,6.404,50.343"/>
<g enable-background="new    ">
	<path fill="#FF1A1A" d="M17.602,11.032v25.489h-4.034v-20.55c-0.73,0.521-1.516,0.965-2.356,1.33
		c-0.84,0.365-1.799,0.687-2.877,0.965v-3.442c0.672-0.221,1.321-0.452,1.947-0.696c0.626-0.243,1.243-0.516,1.852-0.816
		c0.608-0.302,1.223-0.638,1.843-1.009c0.62-0.371,1.261-0.794,1.921-1.27L17.602,11.032L17.602,11.032z"/>
	<path fill="#FF1A1A" d="M30.852,36.939c-2.598,0-4.623-1.063-6.078-3.184c-1.455-2.121-2.182-5.188-2.182-9.198
		c0-4.404,0.759-7.737,2.277-9.997c1.52-2.261,3.709-3.391,6.572-3.391c5.481,0,8.225,4.26,8.225,12.78
		c0,4.22-0.773,7.439-2.32,9.659C35.797,35.83,33.633,36.939,30.852,36.939z M31.25,14.389c-3.025,0-4.537,3.332-4.537,9.997
		c0,6.236,1.482,9.354,4.451,9.354c2.921,0,4.381-3.17,4.381-9.511C35.545,17.669,34.113,14.389,31.25,14.389z"/>
</g>
</svg>
