<?xml version="1.0" encoding="utf-8"?>
<!-- Generator: Adobe Illustrator 16.0.0, SVG Export Plug-In . SVG Version: 6.00 Build 0)  -->
<!DOCTYPE svg PUBLIC "-//W3C//DTD SVG 1.1//EN" "http://www.w3.org/Graphics/SVG/1.1/DTD/svg11.dtd">
<svg version="1.1" id="Layer_1" xmlns="http://www.w3.org/2000/svg" xmlns:xlink="http://www.w3.org/1999/xlink" x="0px" y="0px"
	 width="48px" height="70px" viewBox="0 0 48 70" enable-background="new 0 0 48 70" xml:space="preserve">
<g>
	<path fill="#FFFFFF" d="M2.658,69.5c-1.19,0-2.158-0.893-2.158-1.986V2.489C0.5,1.393,1.468,0.5,2.658,0.5h42.683
		c1.19,0,2.159,0.893,2.159,1.989v65.022c0,1.096-0.969,1.987-2.159,1.987L2.658,69.5L2.658,69.5z"/>
	<path fill="#191919" d="M45.341,1C46.257,1,47,1.667,47,2.489v65.022C47,68.335,46.257,69,45.341,69H2.658
		C1.742,69,1,68.335,1,67.514V2.489C1,1.667,1.742,1,2.658,1H45.341 M45.341,0H2.658C1.192,0,0,1.117,0,2.489v65.022
		C0,68.884,1.192,70,2.658,70h42.683C46.807,70,48,68.884,48,67.514V2.489C48,1.117,46.807,0,45.341,0L45.341,0z"/>
</g>
<path fill="#FF2727" d="M6.404,50.343c0-3.228,2.6-5.843,5.809-5.843c1.59,0,3.031,0.645,4.08,1.684
	c0.389,0.387,1.023,0.387,1.412,0c1.05-1.045,2.489-1.684,4.081-1.684c3.209,0,5.81,2.617,5.81,5.843l0,0
	c0,6.036-7.772,11.531-10.004,12.98c-0.361,0.235-0.824,0.235-1.185,0C14.175,61.874,6.404,56.382,6.404,50.343"/>
<g enable-background="new    ">
	<path fill="#FF1A1A" d="M15.688,29.567c0-0.719,0.09-1.414,0.27-2.086c0.18-0.673,0.449-1.293,0.809-1.861
		c0.359-0.567,0.812-1.077,1.356-1.529c0.544-0.452,1.182-0.817,1.913-1.096c-1.078-0.603-1.936-1.376-2.573-2.321
		c-0.638-0.944-0.957-1.991-0.957-3.139c0-0.915,0.188-1.762,0.565-2.538c0.377-0.776,0.898-1.449,1.565-2.018
		c0.667-0.567,1.452-1.011,2.356-1.33c0.904-0.318,1.89-0.478,2.956-0.478c1.079,0,2.071,0.163,2.981,0.487
		c0.908,0.325,1.697,0.771,2.363,1.339c0.667,0.568,1.188,1.24,1.559,2.018c0.371,0.776,0.557,1.616,0.557,2.521
		c0,1.147-0.319,2.194-0.957,3.139c-0.637,0.945-1.483,1.719-2.538,2.321c0.719,0.278,1.353,0.641,1.903,1.087
		c0.55,0.446,1.012,0.953,1.383,1.521c0.371,0.567,0.648,1.188,0.834,1.86s0.279,1.373,0.279,2.104c0,1.09-0.203,2.087-0.609,2.991
		c-0.405,0.903-0.973,1.678-1.703,2.32c-0.73,0.645-1.605,1.146-2.626,1.505c-1.021,0.359-2.146,0.539-3.373,0.539
		c-1.217,0-2.333-0.181-3.347-0.539c-1.015-0.358-1.89-0.86-2.625-1.505c-0.736-0.643-1.31-1.417-1.721-2.32
		C15.895,31.654,15.688,30.657,15.688,29.567z M19.618,29.22c0,0.707,0.104,1.345,0.313,1.913c0.208,0.567,0.504,1.049,0.887,1.442
		c0.383,0.395,0.843,0.696,1.382,0.904c0.539,0.209,1.139,0.313,1.8,0.313c0.639,0,1.223-0.107,1.756-0.322
		c0.533-0.214,0.994-0.521,1.383-0.921c0.389-0.4,0.692-0.881,0.913-1.443c0.22-0.563,0.33-1.191,0.33-1.887
		c0-0.638-0.104-1.237-0.313-1.8c-0.207-0.562-0.504-1.052-0.887-1.469c-0.382-0.418-0.843-0.748-1.382-0.991
		c-0.538-0.243-1.139-0.365-1.8-0.365c-0.626,0-1.208,0.113-1.748,0.339c-0.539,0.227-1.003,0.545-1.391,0.956
		c-0.388,0.412-0.693,0.901-0.913,1.47C19.729,27.928,19.618,28.548,19.618,29.22z M20.47,17.953c0,0.521,0.093,1.005,0.278,1.451
		c0.185,0.446,0.435,0.835,0.748,1.165c0.313,0.33,0.681,0.589,1.104,0.773c0.423,0.186,0.878,0.278,1.365,0.278
		c0.487,0,0.942-0.096,1.365-0.286c0.423-0.191,0.794-0.452,1.111-0.783c0.32-0.33,0.572-0.719,0.758-1.165
		c0.185-0.445,0.277-0.924,0.277-1.434c0-0.522-0.09-1.009-0.271-1.461c-0.181-0.452-0.427-0.841-0.739-1.165
		c-0.313-0.324-0.685-0.579-1.111-0.765c-0.431-0.186-0.894-0.278-1.392-0.278c-0.522,0-0.997,0.096-1.426,0.287
		c-0.429,0.19-0.797,0.454-1.104,0.791c-0.307,0.336-0.545,0.728-0.713,1.173C20.554,16.982,20.47,17.454,20.47,17.953z"/>
</g>
</svg>
