<?xml version="1.0" encoding="utf-8"?>
<!-- Generator: Adobe Illustrator 16.0.0, SVG Export Plug-In . SVG Version: 6.00 Build 0)  -->
<!DOCTYPE svg PUBLIC "-//W3C//DTD SVG 1.1//EN" "http://www.w3.org/Graphics/SVG/1.1/DTD/svg11.dtd">
<svg version="1.1" id="Layer_1" xmlns="http://www.w3.org/2000/svg" xmlns:xlink="http://www.w3.org/1999/xlink" x="0px" y="0px"
	 width="48px" height="70px" viewBox="0 0 48 70" enable-background="new 0 0 48 70" xml:space="preserve">
<g>
	<path fill="#FFFFFF" d="M2.658,69.5c-1.19,0-2.158-0.893-2.158-1.986V2.489C0.5,1.393,1.468,0.5,2.658,0.5h42.683
		c1.19,0,2.159,0.893,2.159,1.989v65.022c0,1.096-0.969,1.987-2.159,1.987L2.658,69.5L2.658,69.5z"/>
	<path fill="#191919" d="M45.341,1C46.257,1,47,1.667,47,2.489v65.022C47,68.335,46.257,69,45.341,69H2.658
		C1.742,69,1,68.335,1,67.514V2.489C1,1.667,1.742,1,2.658,1H45.341 M45.341,0H2.658C1.192,0,0,1.117,0,2.489v65.022
		C0,68.884,1.192,70,2.658,70h42.683C46.807,70,48,68.884,48,67.514V2.489C48,1.117,46.807,0,45.341,0L45.341,0z"/>
</g>
<g enable-background="new    ">
	<path fill="#191919" d="M23.383,36.939c-1.797,0-3.425-0.309-4.886-0.922c-1.461-0.615-2.707-1.477-3.738-2.583
		c-1.032-1.107-1.832-2.432-2.399-3.974c-0.568-1.541-0.852-3.245-0.852-5.111c0-1.994,0.287-3.802,0.86-5.425
		c0.574-1.623,1.391-3.009,2.452-4.156s2.35-2.034,3.869-2.66c1.518-0.626,3.216-0.939,5.094-0.939c1.738,0,3.326,0.308,4.764,0.921
		c1.438,0.615,2.666,1.476,3.686,2.582c1.021,1.107,1.813,2.432,2.375,3.974c0.563,1.541,0.845,3.24,0.845,5.095
		c0,2.457-0.412,4.61-1.235,6.459c-0.82,1.849-1.98,3.336-3.479,4.46l7.232,5.216h-6.294l-4.45-3.46
		c-0.592,0.162-1.207,0.29-1.844,0.383C24.744,36.895,24.078,36.939,23.383,36.939z M23.574,14.806
		c-1.136,0-2.177,0.224-3.121,0.669c-0.945,0.446-1.759,1.078-2.443,1.896c-0.684,0.817-1.214,1.794-1.591,2.93
		c-0.376,1.137-0.565,2.399-0.565,3.791c0,1.379,0.183,2.637,0.548,3.772c0.365,1.137,0.878,2.107,1.539,2.913
		c0.661,0.806,1.455,1.432,2.382,1.877c0.927,0.447,1.953,0.67,3.078,0.67c1.193,0,2.266-0.209,3.217-0.626
		c0.95-0.417,1.759-1.018,2.426-1.8c0.666-0.782,1.179-1.741,1.538-2.878c0.359-1.136,0.539-2.428,0.539-3.877
		c0-1.483-0.174-2.805-0.521-3.964c-0.347-1.159-0.847-2.136-1.494-2.931c-0.648-0.793-1.439-1.399-2.373-1.816
		C25.797,15.015,24.744,14.806,23.574,14.806z"/>
</g>
<path fill="#191919" d="M17.363,44.104c-0.225-0.138-0.502-0.138-0.727,0c-1.717,1.047-8.947,5.779-8.947,11.219
	c0,2.82,2.285,5.107,5.105,5.107c0.923,0,1.787-0.242,2.534-0.673c0.214-0.127,0.463,0.095,0.381,0.329
	c-0.398,1.105-0.963,2.137-1.664,3.055C13.78,63.49,14.037,64,14.475,64h5.104c0.439,0,0.695-0.51,0.427-0.859
	c-0.692-0.906-1.25-1.924-1.649-3.018c-0.084-0.232,0.164-0.454,0.378-0.33c0.731,0.402,1.573,0.637,2.47,0.637
	c2.819,0,5.105-2.287,5.105-5.107C26.311,49.883,19.081,45.15,17.363,44.104z"/>
</svg>
