<?xml version="1.0" encoding="utf-8"?>
<!-- Generator: Adobe Illustrator 16.0.0, SVG Export Plug-In . SVG Version: 6.00 Build 0)  -->
<!DOCTYPE svg PUBLIC "-//W3C//DTD SVG 1.1//EN" "http://www.w3.org/Graphics/SVG/1.1/DTD/svg11.dtd">
<svg version="1.1" id="Layer_1" xmlns="http://www.w3.org/2000/svg" xmlns:xlink="http://www.w3.org/1999/xlink" x="0px" y="0px"
	 width="48px" height="70px" viewBox="0 0 48 70" enable-background="new 0 0 48 70" xml:space="preserve">
<g>
	<path fill="#FFFFFF" d="M2.658,69.5c-1.19,0-2.158-0.893-2.158-1.986V2.489C0.5,1.393,1.468,0.5,2.658,0.5h42.683
		c1.19,0,2.159,0.893,2.159,1.989v65.022c0,1.096-0.969,1.987-2.159,1.987L2.658,69.5L2.658,69.5z"/>
	<path fill="#191919" d="M45.341,1C46.257,1,47,1.667,47,2.489v65.022C47,68.335,46.257,69,45.341,69H2.658
		C1.742,69,1,68.335,1,67.514V2.489C1,1.667,1.742,1,2.658,1H45.341 M45.341,0H2.658C1.192,0,0,1.117,0,2.489v65.022
		C0,68.884,1.192,70,2.658,70h42.683C46.807,70,48,68.884,48,67.514V2.489C48,1.117,46.807,0,45.341,0L45.341,0z"/>
</g>
<g enable-background="new    ">
	<path fill="#191919" d="M33.434,36.521h-5.392l-8.676-11.405c-0.325-0.429-0.521-0.719-0.592-0.869h-0.069v12.274h-4.138V11.589
		h4.138v11.719h0.069c0.14-0.255,0.337-0.539,0.592-0.852l8.362-10.867h4.955l-9.79,11.963L33.434,36.521z"/>
</g>
<path fill="#191919" d="M17.363,44.104c-0.225-0.138-0.502-0.138-0.727,0c-1.717,1.047-8.947,5.779-8.947,11.219
	c0,2.82,2.285,5.107,5.105,5.107c0.923,0,1.787-0.242,2.534-0.673c0.214-0.127,0.463,0.095,0.381,0.329
	c-0.398,1.105-0.963,2.137-1.664,3.055C13.78,63.49,14.037,64,14.475,64h5.104c0.439,0,0.695-0.51,0.427-0.859
	c-0.692-0.906-1.25-1.924-1.649-3.018c-0.084-0.232,0.164-0.454,0.378-0.33c0.731,0.402,1.573,0.637,2.47,0.637
	c2.819,0,5.105-2.287,5.105-5.107C26.311,49.883,19.081,45.15,17.363,44.104z"/>
</svg>
