<?xml version="1.0" encoding="utf-8"?>
<!-- Generator: Adobe Illustrator 16.0.0, SVG Export Plug-In . SVG Version: 6.00 Build 0)  -->
<!DOCTYPE svg PUBLIC "-//W3C//DTD SVG 1.1//EN" "http://www.w3.org/Graphics/SVG/1.1/DTD/svg11.dtd">
<svg version="1.1" id="Layer_1" xmlns="http://www.w3.org/2000/svg" xmlns:xlink="http://www.w3.org/1999/xlink" x="0px" y="0px"
	 width="48px" height="70px" viewBox="0 0 48 70" enable-background="new 0 0 48 70" xml:space="preserve">
<g>
	<path fill="#FFFFFF" d="M2.658,69.5c-1.19,0-2.158-0.893-2.158-1.986V2.489C0.5,1.393,1.468,0.5,2.658,0.5h42.683
		c1.19,0,2.159,0.893,2.159,1.989v65.022c0,1.096-0.969,1.987-2.159,1.987L2.658,69.5L2.658,69.5z"/>
	<path fill="#191919" d="M45.341,1C46.257,1,47,1.667,47,2.489v65.022C47,68.335,46.257,69,45.341,69H2.658
		C1.742,69,1,68.335,1,67.514V2.489C1,1.667,1.742,1,2.658,1H45.341 M45.341,0H2.658C1.192,0,0,1.117,0,2.489v65.022
		C0,68.884,1.192,70,2.658,70h42.683C46.807,70,48,68.884,48,67.514V2.489C48,1.117,46.807,0,45.341,0L45.341,0z"/>
</g>
<g enable-background="new    ">
	<path fill="#191919" d="M35.605,36.521h-4.537l-2.244-6.348h-9.806l-2.156,6.348h-4.521l9.337-24.935h4.659L35.605,36.521z
		 M27.729,26.803l-3.458-9.945c-0.104-0.324-0.214-0.846-0.33-1.565h-0.07c-0.104,0.661-0.22,1.183-0.348,1.565l-3.425,9.945H27.729
		z"/>
</g>
<path fill="#191919" d="M17.364,44.104c-0.225-0.138-0.502-0.138-0.727,0C14.92,45.15,7.69,49.883,7.69,55.32
	c0,2.82,2.285,5.109,5.105,5.109c0.923,0,1.787-0.244,2.534-0.674c0.214-0.127,0.463,0.096,0.381,0.329
	c-0.398,1.106-0.963,2.138-1.664,3.056C13.78,63.49,14.037,64,14.475,64h5.104c0.439,0,0.695-0.51,0.427-0.859
	c-0.692-0.906-1.25-1.924-1.649-3.018c-0.084-0.232,0.164-0.454,0.378-0.33c0.731,0.402,1.573,0.637,2.47,0.637
	c2.819,0,5.105-2.287,5.105-5.107C26.311,49.883,19.081,45.15,17.364,44.104z"/>
</svg>
